<svg width="48" height="48" viewBox="0 0 48 48" fill="none" xmlns="http://www.w3.org/2000/svg">
<rect width="48" height="48" fill="#29374D"/>
<path d="M23.9985 12C17.373 12 12 17.394 12 24.048C12 29.37 15.438 33.885 20.208 35.4795C20.808 35.5905 21.027 35.2185 21.027 34.899C21.027 34.6125 21.0165 33.855 21.0105 32.85C17.673 33.5775 16.968 31.2345 16.968 31.2345C16.4235 29.8425 15.636 29.472 15.636 29.472C14.5455 28.725 15.717 28.74 15.717 28.74C16.9215 28.8255 17.5545 29.982 17.5545 29.982C18.6255 31.8225 20.364 31.2915 21.048 30.9825C21.156 30.204 21.4665 29.673 21.81 29.3715C19.146 29.067 16.344 28.0335 16.344 23.418C16.344 22.1025 16.812 21.027 17.58 20.184C17.4555 19.8795 17.0445 18.654 17.697 16.9965C17.697 16.9965 18.705 16.6725 20.997 18.231C21.954 17.964 22.98 17.8305 24.0015 17.826C25.02 17.832 26.0475 17.964 27.006 18.2325C29.2965 16.674 30.303 16.998 30.303 16.998C30.957 18.657 30.546 19.881 30.423 20.1855C31.1925 21.0285 31.656 22.104 31.656 23.4195C31.656 28.047 28.851 29.0655 26.178 29.364C26.6085 29.736 26.9925 30.471 26.9925 31.5945C26.9925 33.2055 26.9775 34.5045 26.9775 34.899C26.9775 35.2215 27.1935 35.5965 27.8025 35.478C32.565 33.882 36 29.3685 36 24.048C36 17.394 30.627 12 23.9985 12Z" fill="#FEFEFF"/>
</svg>
