<svg version="1.2" baseProfile="tiny-ps" xmlns="http://www.w3.org/2000/svg" viewBox="0 0 3072 4096" width="3072" height="4096">
	<title>IMG_20210727_141623569</title>
	<style>
		tspan { white-space:pre }
		.shp0 { opacity: 0.71;fill: #2c272a } 
		.shp1 { fill: #181619 } 
		.shp2 { fill: #2f2d36 } 
		.shp3 { opacity: 0.969;fill: #5f5b68 } 
		.shp4 { fill: #9b9ba6 } 
		.shp5 { opacity: 0.98;fill: #d0d6e3 } 
		.shp6 { opacity: 0.42;fill: #9e9ca0 } 
	</style>
	<g id="Background">
		<path id="Path 0" class="shp0" d="M1382 1110L1365 1053L1439 1096L1464 1003L1477 1031L1558 973L1539 1006L1816 1031L1817 1150L1782 1156L1836 1192L1782 1215L1830 1225L1806 1336L1855 1377L1813 1371L1810 1424L1805 1452L1804 1451L1790 1421L1788 1387L1788 1387L1796 1359L1792 1356L1757 1344L1764 1340L1787 1301L1789 1287L1805 1052L1617 1030L1485 1045L1484 1046L1473 1055L1382 1110Z" />
		<path id="Path 1" class="shp1" d="M1617 1030L1805 1052L1789 1287L1733 1276L1787 1301L1764 1340L1757 1344L1792 1356L1796 1359L1788 1387L1790 1421L1804 1451L1805 1452L1854 1675L1983 1878L1990 1997L2005 2053L1998 2098L1943 2066L1715 2118L1694 2075L1583 2078L1575 1870L1480 1828L1442 1671L1473 1620L1420 1509L1470 1438L1559 1494L1447 1309L1493 1234L1356 1134L1361 1129L1362 1129L1373 1102L1382 1110L1473 1055L1484 1046L1485 1045L1617 1030Z" />
		<path id="Path 2" class="shp0" d="M1188 1106L1229 1114L1244 1036L1244 1126L1263 1053L1276 1147L1347 1144L1334 1103L1361 1129L1356 1134L1272 1165L1188 1106ZM871 1699L920 1466L863 1467L899 1370L830 1391L880 1327L836 1319L871 1257L804 1120L1131 1056L1173 1109L1011 1089L974 1097L902 1107L876 1114L873 1118L870 1128L864 1139L830 1169L924 1433L919 1665L871 1699Z" />
		<path id="Path 3" class="shp1" d="M1011 1089L1173 1109L1173 1111L1186 1119L1188 1106L1272 1165L1342 1175L1331 1240L1279 1203L1092 1375L1086 1535L1149 1584L1045 1604L1240 1965L1176 1989L1164 2074L1058 2098L1058 2160L1015 2167L1059 2177L1055 2224L999 2286L943 2324L981 2172L900 2131L972 2053L973 2122L1009 2047L926 1733L989 1524L924 1433L915 1326L991 1251L874 1219L864 1139L870 1128L873 1118L876 1114L902 1107L974 1097L1011 1089Z" />
		<path id="Path 4" class="shp0" d="M1362 1129L1345 1081L1373 1102L1362 1129Z" />
		<path id="Path 5" fill-rule="evenodd" class="shp2" d="M1272 1165L1356 1134L1493 1234L1447 1309L1559 1494L1470 1438L1420 1509L1473 1620L1442 1671L1480 1828L1575 1870L1583 2078L1694 2075L1715 2118L1943 2066L1998 2098L2005 2053L2014 2235L1941 2205L1973 2187L1917 2116L1719 2144L1572 2100L1552 2037L1420 2065L1346 2021L1381 2016L1427 1996L1368 1950L1393 1915L1451 1927L1409 1725L1343 1737L1350 1690L1299 1711L1258 1634L1212 1648L1253 1608L1203 1604L1189 1591L1171 1630L1247 1667L1215 1719L1225 1773L1284 1754L1265 1965L1188 1994L1215 2072L1143 2123L1173 2165L1140 2220L1190 2199L1154 2274L1143 2242L1081 2263L1068 2369L1122 2411L1141 2381L1139.24 2420.67L1089 2436L1071 2385L1057 2419L1039 2302L997 2348L1017 2279L946 2333L978 2496L909 2576L885 2561L868 2553L802 2466L660 2421L680 2361L704 2395L752 2367L733 2318L620 2362L625 2410L588 2392L599 2328L732 2278L702 2069L749 2053L828 1827L732 1743L626 1875L666 1766L594 1768L576 1825L566 1796L468 1844L275 2038L169 2053L188 2130L116 2247L176 2260L71 2337L93 2056L201 1978L228 1942L316 1844L526 1748L855 1730L824 1905L856 1856L832 1961L869 1917L798 2033L868 1961L833 2092L898 2039L919 1665L924 1433L989 1524L926 1733L1009 2047L973 2122L972 2053L900 2131L981 2172L943 2324L999 2286L1055 2224L1059 2177L1015 2167L1058 2160L1058 2098L1164 2074L1176 1989L1240 1965L1045 1604L1149 1584L1086 1535L1092 1375L1279 1203L1331 1240L1342 1175L1272 1165ZM1139.24 2420.67L1144.71 2419L1139 2426L1139.24 2420.67ZM1188 2366L1204 2468L1224 2428L1275 2497L1345 2455L1346 2523L1377 2487L1486.83 2550.86L1464 2573L1401 2513L1365 2588L1369 2535L1316 2574L1302 2514L1259 2549L1174 2446L1133 2485L1148 2418L1144.71 2419L1188 2366ZM1506 2562L1592 2529L1736.51 2576.72L1601 2550L1456 2590L1488.12 2551.61L1506 2562ZM1743 2578L1744.57 2579.38L1736.51 2576.72L1743 2578ZM1913 2635L1982 2616L2003 2618L2138 2631L2219 2744L2221 2746L2252 2804L2163 2800L2108 2789L2036 2776L2131 2753L2028 2739L1977 2680L1893 2719L1807 2669L1816 2703L1773 2645L1843 2666L1744.57 2579.38L1913 2635ZM1488.12 2551.61L1486.83 2550.86L1497 2541L1488.12 2551.61ZM924 1433L830 1169L864 1139L874 1219L991 1251L915 1326L924 1433ZM1787 1301L1733 1276L1789 1287L1787 1301ZM1805 1452L1810 1424L1874 1548L1884 1569L1908 1680L1948 1714L1962 1778L1963 1781L1977 1801L1985 1817L1990 1997L1983 1878L1854 1675L1805 1452Z" />
		<path id="Path 6" class="shp0" d="M1874 1548L1810 1424L1880 1543L1874 1548Z" />
		<path id="Path 7" class="shp1" d="M1318 1443L1364 1482L1333 1505L1318 1443ZM1211 1533L1211 1473L1300 1489L1308 1589L1200 1536L1211 1533Z" />
		<path id="Path 8" class="shp3" d="M1200 1536L1166 1547L1164 1505L1211 1533L1200 1536Z" />
		<path id="Path 9" class="shp2" d="M1516 1514L1553 1537L1516 1557L1516 1514Z" />
		<path id="Path 10" class="shp3" d="M1874 1548L1880 1543L1891 1558L1884 1569L1874 1548ZM1215 1719L1247 1667L1171 1630L1189 1591L1203 1604L1253 1608L1212 1648L1258 1634L1299 1711L1350 1690L1343 1737L1409 1725L1451 1927L1393 1915L1368 1950L1427 1996L1381 2016L1346 2021L1420 2065L1552 2037L1572 2100L1719 2144L1917 2116L1973 2187L1941 2205L2014 2235L2021 2257L2024 2257L2009 2275L1916 2295L1883 2225L1929 2195L1874 2144L1717 2168L1562 2124L1547 2058L1375 2054L1368 2050L1215 2001L1228 2090L1177 2177L1218 2215L1122 2321L1126 2376L1215 2334L1260 2463L1346 2442L1465 2525L1648 2525L1833 2604L1927 2594L2015 2484L2045 2568L2032 2588L2022 2567L1967 2550L1975 2604L1992 2608L2061 2617L2138 2626L2218 2737L2219 2744L2138 2631L2003 2618L1982 2616L1913 2635L1592 2529L1506 2562L1377 2487L1346 2523L1345 2455L1275 2497L1224 2428L1204 2468L1188 2366L1139 2426L1141 2381L1122 2411L1068 2369L1081 2263L1143 2242L1154 2274L1190 2199L1140 2220L1173 2165L1143 2123L1215 2072L1188 1994L1265 1965L1284 1754L1225 1773L1215 1719Z" />
		<path id="Path 11" class="shp0" d="M1884 1569L1891 1558L1963 1681L1908 1680L1884 1569Z" />
		<path id="Path 12" class="shp3" d="M919 1665L898 2039L833 2092L868 1961L798 2033L869 1917L832 1961L856 1856L824 1905L855 1730L853 1704L871 1699L919 1665ZM1908 1680L1963 1681L1984 1708L1948 1714L1908 1680Z" />
		<path id="Path 13" fill-rule="evenodd" class="shp0" d="M2130 2803L1677 2806L1193 2736L905 2636L779 2494L601 2415L477 2402L440 2468L97 2400L35 2302L89 2024L273.16 1891.71L228 1942L201 1978L93 2056L71 2337L177 2412L277 2401L423 2400L532 2386L544 2320L587 2392L588 2392L625 2410L632 2412L649 2419L660 2421L802 2466L868 2553L885 2561L909 2576L924 2592L956 2619L1069 2657L1083 2670L1190 2708L1195 2709L1689 2797L2036 2776L2108 2789L2130 2803ZM476 1746L729 1686L853 1704L855 1730L526 1748L380.84 1814.36L476 1746ZM380.84 1814.36L273.16 1891.71L316 1844L380.84 1814.36ZM1948 1714L1984 1708L1997 1734L2013 1754L2020 1765L1977 1801L1963 1781L1962 1778L1948 1714Z" />
		<path id="Path 14" class="shp1" d="M71 2337L176 2260L116 2247L188 2130L169 2053L275 2038L468 1844L566 1796L576 1825L594 1768L666 1766L626 1875L732 1743L828 1827L749 2053L702 2069L732 2278L599 2328L588 2392L587 2392L580 2316L544 2320L532 2386L423 2400L277 2401L177 2412L71 2337Z" />
		<path id="Path 15" class="shp3" d="M1977 1801L2020 1765L2050 1814L2043 1837L2035 1837L2021 1835L2018 1876L1985 1817L1977 1801Z" />
		<path id="Path 16" class="shp0" d="M1990 1997L1985 1817L2018 1876L2021 2257L2014 2235L2005 2053L1990 1997ZM2043 1837L2050 1814L2086 1842L2043 1837Z" />
		<path id="Path 17" fill-rule="evenodd" class="shp4" d="M1311 1917L1353 1934L1358 1887L1311 1917ZM2061 2617L2102.9 2621.9L2068 2587L2058 2488L2153 2447L2009 2275L1916 2295L1883 2225L1929 2195L1874 2144L1717 2168L1562 2124L1547 2058L1375 2054L1368 2050L1215 2001L1228 2090L1177 2177L1218 2215L1122 2321L1126 2376L1215 2334L1260 2463L1346 2442L1465 2525L1648 2525L1833 2604L1927 2594L2015 2484L2045 2568L2061 2617ZM2218 2737L2138 2626L2102.9 2621.9L2218 2737Z" />
		<path id="Path 18" class="shp5" d="M1280 2041L1471 2085L1473 2123L1508 2095L1510 2133L1682 2210L1789 2205L1913 2351L1926 2441L1876 2405L1927 2513L1864 2485L1912 2556L1873 2531L1884 2584L1823 2586L1661 2488L1541 2524L1346 2436L1266 2446L1297 2216L1251 2233L1239 2335L1216 2274L1280 2041Z" />
		<path id="Path 19" fill-rule="evenodd" class="shp2" d="M979 2169L1042 2153L997 2070L979 2169ZM497 2287L570 2259L465 2200L497 2287Z" />
		<path id="Path 20" class="shp6" d="M2009 2275L2024 2257L2216 2465L2153 2447L2009 2275Z" />
		<path id="Path 21" fill-rule="evenodd" class="shp1" d="M909 2576L978 2496L946 2333L1017 2279L997 2348L1039 2302L1057 2419L1071 2385L1089 2436L1148 2418L1133 2485L1174 2446L1259 2549L1302 2514L1316 2574L1369 2535L1365 2588L1401 2513L1464 2573L1497 2541L1456 2590L1601 2550L1743 2578L1843 2666L1773 2645L1816 2703L1807 2669L1893 2719L1977 2680L2028 2739L2131 2753L2036 2776L1689 2797L1195 2709L1190 2708L1083 2670L1069 2657L956 2619L1013 2601L924 2592L909 2576ZM1975 2604L2022 2567L2032 2588L1992 2608L1975 2604Z" />
		<path id="Path 22" class="shp2" d="M544 2320L580 2316L587 2392L544 2320Z" />
		<path id="Path 23" class="shp1" d="M625 2410L620 2362L733 2318L752 2367L704 2395L680 2361L660 2421L649 2419L632 2412L625 2410Z" />
		<path id="Path 24" class="shp5" d="M2153 2447L2216 2465L2384 2562L2346 2564L2436 2626L2676 2834L2605 2828L2692 2912L2701 2923L2722 2973L2699 2960L2693 2970L2688 2976L2682 2978L2687 3008L2671 3013L2636 2991L2609 2996L2483 2966L2467 2919L2467 2960L2410 2950L2269 2820L2263 2807L2241 2780L2221 2746L2219 2744L2218 2737L2068 2587L2058 2488L2153 2447Z" />
		<path id="Path 25" class="shp6" d="M1975 2604L1967 2550L2022 2567L1975 2604ZM2436 2626L2346 2564L2384 2562L2486 2636L2699 2659L2744 2664L2821 2680L2808 2698L2778 2693L2574 2658L2436 2626ZM2032 2588L2045 2568L2061 2617L1992 2608L2032 2588Z" />
		<path id="Path 26" class="shp2" d="M924 2592L1013 2601L956 2619L924 2592Z" />
		<path id="Path 27" class="shp4" d="M2692 2912L2605 2828L2676 2834L2436 2626L2574 2658L2656 2679L2525 2696L2808 2857L2884 2846L2893 2781L2956 2766L2954 2808L2890 2858L2870 2863L2701 2874L2692 2912Z" />
		<path id="Path 28" class="shp5" d="M2574 2658L2778 2693L2808 2698L2821 2680L2952 2717L2957 2722L2983 2773L2983 2779L2956 2766L2893 2781L2884 2846L2808 2857L2525 2696L2656 2679L2574 2658Z" />
		<path id="Path 29" class="shp4" d="M2418 2693L2449 2701L2421 2726L2418 2693Z" />
		<path id="Path 30" class="shp3" d="M2252 2804L2221 2746L2241 2780L2257 2805L2252 2804Z" />
		<path id="Path 31" class="shp6" d="M2954 2808L2956 2766L2983 2779L2983 2804L2968 2812L2954 2808Z" />
		<path id="Path 32" class="shp4" d="M2241 2780L2263 2807L2257 2805L2241 2780Z" />
		<path id="Path 33" class="shp1" d="M2130 2803L2108 2789L2163 2800L2171 2810L2130 2803Z" />
		<path id="Path 34" class="shp0" d="M2163 2800L2252 2804L2257 2805L2263 2807L2269 2820L2171 2810L2163 2800Z" />
		<path id="Path 35" class="shp3" d="M2954 2808L2968 2812L2930 2849L2890 2858L2954 2808Z" />
		<path id="Path 36" class="shp6" d="M2890 2858L2930 2849L2776 2885L2870 2863L2890 2858Z" />
		<path id="Path 37" class="shp3" d="M2701 2874L2870 2863L2776 2885L2711 2882L2701 2874Z" />
		<path id="Path 38" class="shp6" d="M2692 2912L2701 2874L2711 2882L2701 2923L2692 2912Z" />
		<path id="Path 39" class="shp4" d="M2467 2960L2467 2919L2483 2966L2467 2960Z" />
		<path id="Path 40" class="shp6" d="M2410 2950L2467 2960L2483 2966L2609 2996L2636 2991L2671 3013L2584 3017L2517 2996L2512 3001L2461 2983L2410 2950ZM2693 2970L2699 2960L2722 2973L2687 3008L2682 2978L2688 2976L2693 2970Z" />
	</g>
</svg>