<svg preserveAspectRatio="xMidYMid meet" data-bbox="39.47 21.456 158.344 161.432" xmlns="http://www.w3.org/2000/svg" width="200" height="200" viewBox="39.47 21.456 158.344 161.432" data-type="color" role="img" aria-labelledby="svgcid-wtc1urtl4h30"><defs><style>#comp-jy5kvsaq svg [data-color="1"] {fill: #FFB84D;}
#comp-jy5kvsaq svg [data-color="2"] {fill: #A8B8AE;}
#comp-jy5kvsaq svg [data-color="3"] {fill: #285A5B;}
#comp-jy5kvsaq svg [data-color="4"] {fill: #F04F17;}</style></defs><title id="svgcid-wtc1urtl4h30">Chicke and Egg</title>
    <g>
        <path fill="#F9A82D" d="M136.133 142.436c.392-.14.571-.422.573-.833.001-.106.013-.242.078-.312.431-.463.846-.913 1.04-1.554.106-.349.405-.651.652-.944.323-.384.699-.723 1.02-1.109.426-.513.791-1.079 1.242-1.568.247-.268.622-.414.927-.633.207-.148.425-.3.582-.495.619-.766 1.406-1.063 2.387-1.053.777.009 1.557-.193 2.335-.192 1.348.002 2.612.392 3.801 1.025.543.289 1.129.513 1.631.859.546.375 1.037.837 1.515 1.298.465.449.885.945 1.323 1.421a.817.817 0 0 1 .128.176c.674 1.303 1.429 2.573 1.993 3.922.452 1.081.74 2.244.978 3.396.215 1.044.281 2.12.379 3.185.052.563.015 1.134.052 1.699.04.609.151 1.214.174 1.823.039 1.01.026 2.023.055 3.033.005.192.102.382.157.572a.119.119 0 0 0 .027.083c-.076.259-.382.518.003.775l-.011.15.096.314.002.897-.215.307-.078.466c-.018.755-.032 1.511-.062 2.265-.003.069-.105.134-.161.201-.316-.011-.37.166-.313.427.129.592.023 1.121-.296 1.654-.325.543-.453 1.216-.827 1.713-.606.805-1.336 1.517-2.025 2.258-.352.378-.682.803-1.104 1.084-.667.442-1.402.783-2.111 1.162-.171.092-.354.163-.53.246-.249.118-.517.209-.743.362-.908.614-2.094.011-2.983.69-.051.039-.14.039-.211.041-1.272.037-2.559.207-3.812.067-1.217-.136-2.497-.077-3.642-.648-.524-.261-1.057-.516-1.542-.839-.224-.149-.344-.454-.511-.688l-1.29-1.102c-.008-.321-.137-.517-.496-.472l-.014-.17-.211-.134-.39-.798-1.094-1.602.018-.218.057-.46-.766-1.639c-.013-.193.025-.409-.049-.575-.224-.507-.491-.994-.741-1.489.038-.271.13-.548.101-.811-.06-.549-.184-1.092-.282-1.637l-.014-.334c.217-.69.267-1.392.151-2.106l.104-.779c-.024-.23-.062-.46-.068-.691-.008-.294.011-.588.018-.882l.107-.602-.09-.463.02-.387c.033-.115.084-.229.096-.347.017-.165.004-.332.004-.499.148-.504.289-1.01.448-1.511.036-.113.113-.261.208-.299.923-.373.478-1.335.849-1.942.022-.036-.068-.128-.072-.195a1.166 1.166 0 0 1 .028-.328c.055-.239.129-.473.184-.712.056-.241.074-.492.15-.726.205-.632.432-1.257.65-1.884.139-.301.275-.605.411-.909z" data-color="1"></path>
        <path fill="#80A09F" d="M121.11 163.717l-.093-1.77c.299.237.586.644.901.667.389.028.633.151.881.392.087.084.187.177.298.21.736.221 1.478.426 2.216.641.102.029.206.068.293.125.516.338 1.054.594 1.666.564.302.244.665.367.967.577.372.259.695.431.906.117.386.057.685.194.911.118.601-.204 1.164-.536 1.817-.167.083.047.214.028.32.014.448-.059.891-.406 1.35-.008.038.033.167-.037.253-.064.273-.088.544-.179.816-.268l1.093 1.602-.87.273c.793.907 1.474 1.905 2.615 2.441-.14 1.056-.322 1.167-1.326.906-.423-.11-.867-.142-1.302-.21l-.161-.072c-.033-.081-.044-.195-.104-.237a9.365 9.365 0 0 0-.942-.587c-.112-.059-.279-.016-.421-.012-.058.002-.132.057-.17.036-.32-.178-.633-.369-.965-.565l.168-.301-1.216-.168.439-.601-.095-.107-.496.282c-.743-.873-1.722-1.135-2.738-1.326l-1.04-.306c-.322-.529-.758-.604-1.285-.323-.468-.131-.951-.223-1.399-.401-.56-.222-1.091-.519-1.638-.775-.131-.061-.287-.072-.414-.139-.219-.118-.413-.284-.637-.388-.183-.087-.397-.115-.598-.17z" data-color="2"></path>
        <path fill="#80A09F" d="M134.823 169.877c.435.068.879.1 1.302.21 1.004.261 1.186.15 1.326-.906-1.141-.536-1.823-1.534-2.615-2.441l.87-.273.39.798.211.133.014.171c-.055.388.162.49.496.471l1.29 1.102-.316.058c.254.875.253.908-1.014 1.222-.728.18-1.335-.244-1.954-.545z" data-color="2"></path>
        <path fill="#80A09F" d="M128.123 166.219c1.015.19 1.994.453 2.738 1.326l.496-.282.095.107-.439.601 1.216.168-.168.301c.331.196.645.387.965.565.038.021.112-.034.17-.036.142-.005.309-.047.421.012.327.171.636.378.942.587.061.042.071.156.104.237-.53-.117-1.06-.233-1.589-.354-.05-.011-.121-.048-.133-.088-.166-.548-.707-.42-1.047-.624-.683-.409-1.558-.623-1.907-1.524-.098-.254-.595-.541-.865-.502-.514.072-.707-.258-.999-.494z" data-color="2"></path>
        <path fill="#80A09F" d="M127.954 153.554c-.113.63-.55 1.02-.986 1.447-.452.442-1.288.451-1.403 1.304-.136-.06-.242-.14-.352-.147-.139-.009-.391.013-.407.071-.203.761-.898.881-1.469 1.161.196-.477.642-.727.959-1.082.587-.66 1.467-.692 2.066-1.193.415-.348 1.008-.639 1.071-1.33.008-.092.339-.155.521-.231z" data-color="2"></path>
        <path fill="#80A09F" d="M159.528 155.281l.226 1.2.781-1.346.472.343-.557.791c-.074.305.798.2.45.648-.177.229-.584.28-.962.445v-.659l-.765.461.011-.15-.003-.775a.124.124 0 0 1-.027-.083c.06-.181.112-.366.185-.543.048-.118.125-.223.189-.332z" data-color="2"></path>
        <path fill="#15494B" d="M45.614 35.142l.254-.004.139.968-.713-.09c-.094.374-.142.732-.276 1.055-.131.315-.284.73-.545.854-.325.155-.344.364-.403.616l-.051.125-.215.082c-.05-.771.751-1.04.962-1.69-.206-.121-.389-.259-.029-.499.162-.108.251-.332.359-.512.178-.298.346-.603.518-.905z" data-color="3"></path>
        <path fill="#80A09F" d="M196.89 160.28h.92c.048.668-.403.952-1.198.778.021-.15.156-.217.815-.388l-.548-.237.011-.153z" data-color="2"></path>
        <path fill="#80A09F" d="M161.159 151.536c.005.107.058.255.007.316-.361.429-.102.625.332.772l-.027.164-.925.213c-.256-.513.283-.863.285-1.328 0-.047.214-.092.328-.137z" data-color="2"></path>
        <path fill="#15494B" d="M60.549 26.414c.207.087.416.169.619.264.148.069.287.156.43.234l-.056.188-.725.032-.726-.253.25-.503.208.038z" data-color="3"></path>
        <path fill="#80A09F" d="M60.341 26.377l-.25.503-.276-.196a12.948 12.948 0 0 1-.004-.199l-.158.179-.294-.002-.221-.11-.842-.135 1.494-.245.551.205z" data-color="2"></path>
        <path fill="#80A09F" d="M125.799 165.591c.526-.282.963-.207 1.285.323-.533.307-.872-.155-1.285-.323z" data-color="2"></path>
        <path fill="#80A09F" d="M135.726 143.348c.015-.255.01-.514.051-.765.05-.303.14-.599.213-.898l.142.751-.406.912z" data-color="2"></path>
        <path fill="#80A09F" d="M160.138 159.259c-.065-.165-.229-.427-.178-.478.164-.165.406-.252.618-.37l-.44.848z" data-color="2"></path>
        <path fill="#80A09F" d="M160.879 159.503l-.57.403-.164-.371.734-.032z" data-color="2"></path>
        <path fill="#F9A82D" d="M49.678 57.006l-.33.206-.377.069.013-.273c.232-.007.462-.442.694-.002z" data-color="1"></path>
        <path fill="#80A09F" d="M162.19 161.448l-.884-.21.884.21z" data-color="2"></path>
        <path fill="#80A09F" d="M129.488 152.226c.113.341.175.653-.354.642l.354-.642z" data-color="2"></path>
        <path fill="#80A09F" d="M120.87 145.146l.12-1.297-.12 1.297z" data-color="2"></path>
        <path fill="#80A09F" d="M161.51 150.997c-.008.245.095.563-.344.532l.344-.532z" data-color="2"></path>
        <path fill="#80A09F" d="M120.878 145.7l-.007-.452.007.452z" data-color="2"></path>
        <path fill="#80A09F" d="M48.985 57.008l-.013.273a36.466 36.466 0 0 0-.153-.205l.166-.068z" data-color="2"></path>
        <path fill="#80A09F" d="M159.882 154.752l.153.151-.292.047.139-.198z" data-color="2"></path>
        <path fill="#80A09F" d="M120.929 153.371l.013-.647-.013.647z" data-color="2"></path>
        <path fill="#80A09F" d="M183.853 154.409c-.181-.185-.48-.585-.778-.065l-.041.033c-1.752.642-3.381.422-5.243.349-3.635-.143-7.126 1.171-10.207 3.027-.597.36-1.136.514-1.773.267-.196.477-.597.689-1.093.479-.042-.018-.108.005-.158.022-.546.185-1.089.376-1.637.554-.077.025-.176-.006-.262-.021-.591-.102-1.088.136-1.572.425l-.208.024-.57.403-.164-.371-.007-.276c-.065-.165-.229-.427-.178-.478.164-.165.406-.253.618-.37l.387-.181.287-.127.279-.054c.221-.103.446-.197.661-.311 2.483-1.315 3.205-2.485 4.428-4.965.244-.496.489-.992.71-1.499.764-1.757.975-3.442 1.408-5.26a7.312 7.312 0 0 0 .149-2.474l.032-.328-.224-.22-.19-.255-.48-.335c-.457.001-.863.089-1.019.6l-.169.309c-.057.318-.114.637-.182.971-1.611 1.195-2.906 2.833-3.956 4.525-.443.714-1.222 1.743-1.348 2.59-.264 1.775-1.843 3.026-1.625 4.912l.865-1.093c.024-.03.349 3.435-.835 1.685-.168.008-.85.347-.484.576.393.257.394.674.002.897l-.215.307c.222.196.273.364-.077.466-.018.755-.032 1.511-.062 2.266-.003.069-.105.134-.161.201.276.672.476 1.389.849 2.002.394.647.615 1.436 1.317 1.875.053.033.071.117.115.17.234.284.471.566.706.849.519.623 1.05 1.606 1.82 1.911.453.18.95.251 1.374.489.167.094.319.211.474.323.201.144.408.278.623.4 2.068 1.174 4.261.197 6.174.948.916.36 1.787-.173 2.687-.139.028.001.059-.039.086-.063.199-.179.292-1.481.078-1.623-2.051-1.361-4.122-2.697-6.271-3.905-2.147-1.204-6.314-2.397-7.852-4.035.336-.28.679-.245 1.125-.321.165-.028.32-.111.48-.17l.416-.206.999.12.226.104c.076.044.165.141.227.126 2.576-.604 5.589-.389 8.249-.639 2.817-.264 5.193-1.227 7.884-1.785.507-.105.438-.601.7-.861l.219-.015.993-.356c.034-.047.133-.222.268-.362.397-.411.802-.815 1.218-1.207.336-.322.109-.63-.092-.835zm-20.318 4.903z" data-color="2"></path>
        <path fill="#80A09F" d="M160.964 158.231l.287-.127-.287.127z" data-color="2"></path>
        <path fill="#80A09F" d="M120.906 153.989l.035-.384-.035.384z" data-color="2"></path>
        <path fill="#80A09F" d="M120.959 143.695l.025-.279-.025.279z" data-color="2"></path>
        <path fill="#80A09F" d="M123.306 157.481l-.084.133.084-.133z" data-color="2"></path>
        <path fill="#80A09F" d="M131.918 162.299l-.314-.059-.253-.111-.086.218v.001c-.353-.428-.839-.462-1.34-.452l-.303-.06-.174-.581c-.345.505-.65.454-1.045.231-.337-.19-.735-.195-.993.212l-.122.008c-.444-.559-1.061-.579-1.696-.545l-.136.001-.395-.022-.617-.081c-.173-.117-.333-.308-.521-.339-.674-.112-1.358-.08-2.039-.032l.001.001c-.091-.066-.178-.178-.275-.187-.188-.019-.381.019-.572.034.009-.383.017-.767.027-1.15.866.083 1.713.127 2.594-.044.483-.093 1.054.228 1.576.393.347.109.629.38 1.062.136.168-.094.503.106.761.173l.081.182c.293.6.944.344 1.4.56.11.052.331-.129.501-.204l1.036.648c.409-.303.805-.632 1.253-.071.052.065.266.081.349.03.318-.199.613-.435.917-.657l.211-.058.325.007c.25.495.517.983.741 1.489.074.167.035.382.049.575l-1.018-.095c-.328-.048-.656-.1-.985-.151zm-7.961-2.03c-.019.041-.043.078-.05.117-.002.01.066.048.073.041.03-.027.05-.066.073-.101l-.096-.057z" data-color="2"></path>
        <path fill="#80A09F" d="M133.132 160.483l-.325-.007c.093-.639.271-1.272-.049-1.914-.057-.115.123-.348.194-.527.098.545.222 1.087.282 1.637.028.263-.064.54-.102.811z" data-color="2"></path>
        <path fill="#80A09F" d="M132.938 157.701c-.138-.402-.487-.805.036-1.2.059-.045.001-.231.016-.349.024-.188.064-.373.098-.558a4.503 4.503 0 0 1-.15 2.107z" data-color="2"></path>
        <path fill="#80A09F" d="M133.193 154.816c-.487-.51-.128-1.047-.051-1.574-.006.295-.025.589-.017.883.006.231.044.461.068.691z" data-color="2"></path>
        <path fill="#80A09F" d="M159.269 157.477c.393.257.394.674.002.897l-.002-.897z" data-color="2"></path>
        <path fill="#80A09F" d="M136.816 168.039c-.333.019-.551-.083-.496-.471.359-.045.488.15.496.471z" data-color="2"></path>
        <path fill="#15494B" d="M159.182 156.237l.003.775c-.385-.257-.079-.516-.003-.775z" data-color="3"></path>
        <path fill="#80A09F" d="M133.25 152.641l-.09-.463.09.463z" data-color="2"></path>
        <path fill="#80A09F" d="M159.056 158.681c.222.196.273.364-.077.466l.077-.466z" data-color="2"></path>
        <path fill="#80A09F" d="M134.631 164.646l.056-.46-.056.46z" data-color="2"></path>
        <path fill="#80A09F" d="M136.307 167.398l-.211-.133.211.133z" data-color="2"></path>
        <path fill="#15494B" d="M57.111 37.111c.224-.253.338-.415.485-.539.142-.12.317-.2.477-.298.057.12.192.283.155.352-.101.184-.25.379-.43.47-.154.077-.378.015-.687.015z" data-color="3"></path>
        <path fill="#15494B" d="M59.137 26.552l.221.11-.141.179-.08-.289z" data-color="3"></path>
        <path fill="#15494B" d="M59.652 26.664l.158-.179.004.199-.162-.02z" data-color="3"></path>
        <path fill="#80A09F" d="M79.924 135.766l-.441-.43.399-.083.042.513z" data-color="2"></path>
        <path fill="#80A09F" d="M80.49 135.868l.12.199-.472-.168.352-.031z" data-color="2"></path>
        <path fill="#80A09F" d="M121.04 160.537c.191-.015.384-.053.572-.034.097.01.184.122.275.187l-.277.201-.598-.101.028-.253z" data-color="2"></path>
        <path fill="#80A09F" d="M119.494 158.133l-.041-.388.041.388z" data-color="2"></path>
        <path fill="#80A09F" d="M119.473 159.882l-.068-.066.101-.083-.033.149z" data-color="2"></path>
        <path fill="#80A09F" d="M119.419 145.945l.004-.174-.004.174z" data-color="2"></path>
        <path fill="#80A09F" d="M119.61 158.596l-.003-.104c.012.025.027.049.035.074.002.007-.021.02-.032.03z" data-color="2"></path>
        <path fill="#F04F17" d="M99.08 166.929c-.376-.145-.899-.308-1.207-.154-.688.344-1.352-.106-2.158.212.084-.524.153-.919.208-1.315.011-.084-.041-.174-.041-.262-.003-.52-.027-1.042.008-1.56.036-.536.132-1.068.204-1.619l.246.047.116-.636-.023-.235-.098-.739-.168-1.778-.048-.147.162-1.158.107-.197a90.845 90.845 0 0 1-.251-.412l.136-.045c-.055-.214-.117-.427-.161-.644a.993.993 0 0 1-.004-.17c.009.066.015.133.028.198.043.217.105.43.158.644l-.137.045.249.413c.026-.096.085-.196.074-.287-.041-.339-.16-.678-.146-1.013.023-.558.12-1.114.199-1.668.065-.455.152-.907.227-1.35-.074-.137-.234-.296-.228-.448.019-.461.002-.966.187-1.367.214-.462.016-.761-.154-1.113a.714.714 0 0 1-.086.15.981.981 0 0 1 .033-.179c-.003-.024-.016-.036-.04-.036-.193-.126-.139-.098.054.029.004-.09-.03-.219.017-.263.391-.366.23-.738.043-1.12-.037-.075-.079-.189-.048-.249.178-.342.134-.711.076-1.081.062-.158.109-.318.095-.479a1.488 1.488 0 0 0-.136-.454c.037-.191.114-.376.278-.551-.266-.512.066-1.05-.032-1.524-.091-.439.007-.756.151-1.114l-.441-.139c-.046.473.296 1.018-.104 1.271-.079.399-.126.639-.177.878-.01.049-.062.099-.055.142.021.134.046.268.071.402a1.67 1.67 0 0 1-.146-.43c-.007-.043.044-.093.055-.142.05-.24.095-.48.172-.879.399-.255.054-.798.098-1.271l-1.647-.278c.024.034.022.064-.007.09l.167.149c.039.022.057.054.089.08l.049.901c-.028.034-.041.069-.074.101l.007.334c.03.026.045.047.065.07l-.063.207c-.029.007-.051.016-.091.02l-.15.214-.003.055c-.03.013-.055.026-.057.042a161.51 161.51 0 0 0-.373 3.098c-.003.026.094.062.175.097l-.005.006c.007.024.023.034.048.03.015.011.037.023.057.034l-.396 1.193c.059.498.124.889.147 1.282.041.696.06 1.393.086 2.089l-.034.111-.029.242-.01.088c-.224.3-.376.609-.108.967l-.004.034-.002.232c.007.041.016.082.024.122l-.134 1.685.226.033-.183.357c.342.276.412.681.185 1.046-.028.044-.062.114-.046.152.343.812-.566 1.428-.351 2.221.011.04-.072.106-.111.159l-.042.314.002.511c.333.175.4.381.241.758l-.195.202-.08.539.047.268-.032.796.057.171c.189.285.152.395-.217.645l-.032.25c.057.065.165.133.162.196-.02.481-.061.961-.096 1.441l.022.017c.443.218.368.629.285.968a.554.554 0 0 1-.24.346.576.576 0 0 0 .211-.328c.085-.339.162-.749-.281-.97.329.767.221 1.01-.558 1.265-.039.013-.06.08-.09.122a.019.019 0 0 0 .007-.002l-1.305.654-.232.094-.208.117-.237.1-.428.202-.242.12-.199.094-.537.266-.23.08-.473.216-.292.155a54.73 54.73 0 0 1-.23.093l-1.867 1.171-.205.167-.229.182-.327.255-.226.172-.208.163-1.217.945-.202.165-.235.172-.539.487-.23.17-.542.45a.209.209 0 0 0-.099.019l.008.151-.028.112-.085.542.226-.058-.226.058-.445.616c.019.023.03.049.033.079l.829.281.793-.729.024-.022c.134-.107.395-.234.382-.319-.107-.69.382-.775.849-.916.216-.065.416-.183.623-.277l.094-.486 1.185-.435-.363.012.036-.25.239-.287.999-.631-.13-.599c.746.058 1.283-.646 1.995-.264l.092-.178.557-.503.192-.099.627.117.458-.362-.458.362.314.244-.372.244-.228.164-.241.233-.547.39-.042.027-.681.583-.451.593-.163.189-.681.622-.366.022-.018.022-.52.532-.124.485-.655.501-.448.162c-.365-.009-.63.101-.628.527l-.208.242c-.01.031-.02.075-.031.112-.01.037-.02.065-.027.065.008.001.017-.028.027-.065.01-.037.021-.081.031-.112-.444-.148-.702-.044-.691.478a.506.506 0 0 1-.131.328c-.471.478.03.665.283.882.269.23.557.206.749-.143l.236-.163.343.397.268-.482.029-.028.297-.193.252-.07.636-.155.365.083.148-.542c.449.009.449.009.477-.635l.366-.239 1.12-.946c-.277-.412.18-.518.448-.73.119-.094.22-.212.329-.32l.226-.163.786-.803-.791-.257.791.257.189-.152.338-.397-.018-.336c.418.032.509-.221.497-.565l.495-.289.169-.09c.086.124.263.343.245.359-.238.229-.503.43-.676.569l-.028.543c-.056.03-.146.047-.164.092-.137.352-.26.709-.387 1.065l-.033.034-.299.521-.126.788-.366.652.448.141-.254.255-.399.745-.426 1.014.012.313-.088.302c-.099.114-.237.212-.289.345-.083.21-.11.443-.193.811l.525-.232.245-.021c.221.32.391.709.847.73l-.208-.659c.523.08.335-.443.54-.634l.56-.452-.342-.248c.006-.026-.004-.042-.03-.048l.096-.225.089-.095.089-.099.038-.145c.025-.195-.066-.399.261-.5.26-.081.46-.355.687-.543l-.098-.125-.34.088c-.316-.431.14-.488.28-.613.023-.345-.068-.743.082-.883.383-.356.488-.819.661-1.254.107-.27.236-.632.14-.863-.221-.531.099-.86.402-1.06.438-.289.421-.759.455-1.089.07-.68.482-1.14.798-1.657.145-.237.465-.432.744-.51.952-.266 1.92-.471 3.036-.736-.182-.351-.249-.714-.429-.784zm-2.708-14.671l.019-.441a.47.47 0 0 1-.019.441zm.083-1.098c.015.011-.013.081-.042.153l.009-.184c.012.01.018.02.033.031zm-13.998 23.603l.35-.423-.35.423zm1.911 2.324z" data-color="4"></path>
        <path fill="#F04F17" d="M86.697 173.056l-.086.15.167-.052-.081-.098z" data-color="4"></path>
        <path fill="#F04F17" d="M86.611 173.206l-.009.003-.016.006.021-.001a.03.03 0 0 1 .004-.008z" data-color="4"></path>
        <path fill="#F04F17" d="M89.454 171.017l-.092.178.168-.067-.076-.111z" data-color="4"></path>
        <path fill="#F9A82D" d="M49.141 56.603c-.004.01-.008.028-.012.028-.012 0-.025-.007-.037-.011.004-.01.008-.028.012-.028.012 0 .025.007.037.011z" data-color="1"></path>
        <path fill="#80A09F" d="M133.901 140.265c.098-.371.195-.646.24-.929.063-.393.251-.546.659-.514.449.034.411.325.403.622-.009.302.021.615-.054.901-.034.127-.309.3-.432.271-.308-.072-.59-.247-.816-.351z" data-color="2"></path>
        <path fill="#80A09F" d="M76.633 137.562l.06.069c-.028.015-.054.033-.083.043-.005.002-.033-.031-.03-.038.013-.026.035-.049.053-.074z" data-color="2"></path>
        <path fill="#80A09F" d="M48.236 160.134l-.042-.023.038.026.004-.003z" data-color="2"></path>
        <path fill="#15494B" d="M53.177 58.968c.216.193.64.351.111.667l-.146.005c.192-.215-.447-.472.035-.672z" data-color="3"></path>
        <path fill="#F04F17" d="M122.263 170.809c-.085-.009-.175-.015-.264-.028-.789-.111-1.258-.516-1.186-1.288.059-.633-.222-1.266.074-1.899.12-.257.067-.594.092-.895.081-.176-.028-.359-.021-.537.033-.816.098-1.63.152-2.445l-.093-1.77-.005-1.156.027-.254c.009-.383.017-.767.027-1.15a42.706 42.706 0 0 0-.167-.288c.006-.572.015-1.145.018-1.717.001-.323-.137-.829.013-.935.419-.296.157-.544.112-.837-.037-.244.013-.499.008-.749-.004-.206-.033-.412-.051-.618a11.764 11.764 0 0 0-.097-.14l.002-.114.035-.384-.012-.234.013-.647a.354.354 0 0 0 .013-.097l-.014-.696c-.021-1.327-.045-2.655-.061-3.982-.007-.597 0-1.195.001-1.792l-.028-.356a.393.393 0 0 1 .025-.101l-.007-.451a.291.291 0 0 1-.001-.102l.12-1.297a10.505 10.505 0 0 1-.031-.154l.025-.279c-.006-.34-.111-1.721-.117-2.06l-.622.191-.383.287c-.502.415-.36-.272-.862.144-.091.218.174 2.113.068 2.367.449.112.327.486.296.827l.059.599-.003.173-.022.56-.035.253.001.17-.008 1.658-.026.533.005 3.855.125.305c.297.441-.074.831-.088 1.248-.006.17.09.342.098.515.014.323-.014.648-.004.972.013.422.056.843.066 1.264.004.155-.051.311-.079.467l.041.388.113.36c.012.025.027.048.035.074.002.006-.021.02-.032.03l-.047.292-.021.459-.036.385-.033.149-.082.5c.195.23.319.436.143.774-.102.195.005.492 0 .743-.007.38-.03.76-.046 1.14.023.068.07.138.065.204-.036.508-.212 1.049-.095 1.517.203.81-.142 1.509-.229 2.258-.049.422-.124.851-.088 1.269.049.561.268 1.132-.458 1.439-.089.037-.139.165-.207.25l-.2.055-.808.001-1.285.098-.788.084-.421.15-.462.056-.242.108c-.197.036-.413.034-.589.116-1.168.547-2.327 1.113-3.49 1.672-.43.168-.848.349-.943.876l-.256.24-.569 1.136.569-1.136c-.741.024-1.395.198-1.755.943-.049.102-.239.236-.312.21-.372-.132-.432.06-.495.358-.092.44-.523.761-.754.72-.326.3-.562.645-.884.775-.316.128-.455.252-.434.572l-.097.058-1.622 1.288-.099.761.46.507.562-.108.533-.188-.558-.328.558.328a.053.053 0 0 0 .04-.039l1.031-.555.474-.115.501-.573c.75.111.635-.593.894-.946l.231-.056c.105-.037.231-.05.312-.117.247-.202.452-.465.72-.628.326-.198.714-.292 1.048-.481.24-.135.516-.31.633-.539.343-.675.767-.977 1.415-.916l.417-.658.183-.089c.427.276.71-.031 1.015-.249l.09-.282.854-.126.237-.027.16.16-.033.164-.451.198c-.419-.097-.382.108-.25.376l-.563.537c-.219.182-.454.531-.653.512-.484-.046-.492.246-.55.554l-.549.071c.072.503-.492 1.011-1.053 1.009-.083.189-.116.402-.24.524-.356.354-.735.69-1.13 1.001-.536.423-1.126.782-1.632 1.237-.306.275-.504.673-.733 1.027-.188.291-.257.562.262.563l-.165.516.107.081.381-.343c.151-.009.301.596.468.013.267-.023.548-.005.798-.085.209-.068.476-.213.552-.393.266-.63.658-1.069 1.353-1.196a.32.32 0 0 0 .171-.108c.292-.338.578-.681.933-1.101l-.035-.216.107.092c.555-.513 1.096-1.042 1.669-1.533.371-.318.321-.941.886-1.123.194-.063.336-.289.501-.441.27-.215.583-.39.869-.6.175-.129.311-.312.464-.47.277-.559.667-.842 1.451-.875-.101.209-.317.478-.259.566.351.532-.144.731-.348 1.051-.297.468-.581.945-.86 1.424-.246.421-.397.938-.739 1.252-.316.291-.363.841-.886.923-.04.006-.066.12-.093.187-.172.423-.244.937-.534 1.251-.631.684-.847 1.644-1.582 2.245-.044.036-.014.244-.011.244.442.027.625.389.892.65.047.046.261-.053.382-.115.073-.037.108-.18.174-.191.65-.109.869-.541.89-1.134l.411-.034v-.497l.581-.9.203-.18.542-.154.084-.108-.181-.044c-.055-.127-.185-.277-.153-.376.1-.311.26-.604.397-.903l.135-.052.093-.367.65-.892.141-.642.501-.386-.298-.192c.433-.528.864-1.052 1.289-1.579a.384.384 0 0 0 .063-.199c.021-.221.031-.444.048-.694l.886.336-.029-.178c.277-.089.551-.19.832-.265.344-.092.733-.094 1.034-.258.603-.33.896-1.261.725-2.063zm-7.572 2.756c-.012-.03-.016-.075-.037-.084.021.009.026.054.037.084z" data-color="4"></path>
        <path fill="#80A09F" d="M132.596 160.533c-.304.222-.599.458-.917.657-.082.052-.297.036-.349-.03-.447-.561-.844-.233-1.253.071l-1.036-.648c-.171.074-.392.256-.501.204-.457-.216-1.107.04-1.4-.56.812-.384 2.484-.13 2.739.417.501-.447.981-.076 1.501.023.339-.401.8-.08 1.216-.134z" data-color="2"></path>
        <path fill="#80A09F" d="M121.886 160.69c.681-.048 1.365-.08 2.039.032.187.031.348.222.521.339-.85.111-1.681.015-2.498-.228-.033-.009-.042-.094-.062-.143z" data-color="2"></path>
        <path fill="#80A09F" d="M127.411 161.699c.258-.407.656-.402.993-.212.394.222.7.273 1.045-.231l.174.581c-.461.088-.901.29-1.361-.119-.161-.144-.56-.021-.851-.019z" data-color="2"></path>
        <path fill="#80A09F" d="M125.594 161.163c.635-.035 1.252-.014 1.696.545-.348-.088-.7-.163-1.042-.269-.226-.07-.437-.183-.654-.276z" data-color="2"></path>
        <path fill="#80A09F" d="M129.925 161.896c.501-.01.987.025 1.34.452-.042.051-.107.152-.122.145-.408-.192-.813-.396-1.218-.597z" data-color="2"></path>
        <path fill="#80A09F" d="M131.918 162.299l.985.154-.985-.154z" data-color="2"></path>
        <path fill="#80A09F" d="M125.063 161.142l.395.022-.395-.022z" data-color="2"></path>
        <path fill="#80A09F" d="M131.266 162.347l.086-.218.253.111-.339.107z" data-color="2"></path>
        <path fill="#80A09F" d="M123.957 160.269l.097.057c-.023.035-.043.074-.073.101-.007.007-.075-.031-.073-.041.006-.039.03-.075.049-.117z" data-color="2"></path>
        <path fill="#15494B" d="M57.872 33.288l-.366.957c-.388-.288-.578-.722-.986-.356-.016.015-.201-.106-.194-.126.066-.195.12-.508.246-.543.216-.06.528-.391.744.06.024.054.257.008.556.008z" data-color="3"></path>
        <path fill="#80A09F" d="M49.667 161.562a221.78 221.78 0 0 1-.488-.484c.556-.109.476.217.484.487l.004-.003z" data-color="2"></path>
        <path fill="#80A09F" d="M49.237 161.406c-.211.138-.306.234-.34.216-.075-.04-.119-.137-.176-.211.069-.044.136-.12.207-.124.08-.004.162.058.309.119z" data-color="2"></path>
        <path fill="#F04F17" d="M53.538 44.664a.267.267 0 0 0 .141-.091c.013-.019-.038-.081-.062-.129l-.158.119c.027.036.064.106.079.101z" data-color="4"></path>
        <path fill="#F04F17" d="M53.969 28.657l.426-.227-.449-.096-.574-.145-.096.559-.51.286c-.035-.006-.08-.029-.104-.015-.576.332-1.164.647-1.717 1.014-.185.123-.28.382-.417.579.391-.22.777-.449 1.175-.658.237-.124.499-.202.734-.329.126-.069.219-.199.327-.301.104.017.243-.003.306.057.339.322.585-.013.799-.153.114-.076.074-.387.1-.571z" data-color="4"></path>
        <path fill="#F04F17" d="M52.444 31.605l.072.153 1.11-.547c-.397-.351-.776-.203-1.182.394z" data-color="4"></path>
        <path fill="#F04F17" d="M47.998 33.587l-.539.017c.255.294.387.289.539-.017z" data-color="4"></path>
        <path fill="#F04F17" d="M54.242 27.779l-.089.177.319.292.356-.252-.586-.217z" data-color="4"></path>
        <path fill="#F04F17" d="M59.024 25.858c-.406-.094-.791-.518-.728-.806-.77-.175-.689-.949-.969-1.378-.183.116-.393.339-.494.298-.563-.231-.822-.689-.758-1.223-.295-.094-.568-.131-.786-.26-.525-.311-1.013-.685-1.541-.99-.131-.076-.4-.045-.536.043-.479.309-.963.424-1.531.197-.202.26-.48.496-.598.794-.243.614-.137 1.343-.599 1.894l-.119.116c-.331-.042-.66-.107-.991-.119-.309-.011-.621.035-.931.057l-.045-.178-1.983 1.502c.458.613.453 1.118.13 1.631-.495.331.08.45.133.672l-.046.333c-.009.01-.027.022-.026.03.005.024.018.046.028.069.043.159.089.318.128.478.041.164.075.33.112.495l-1.897-.124c-.07.106-.153.22-.223.342-.278.488-.556.977-.821 1.472-.031.059.009.161.029.24.13.515.263 1.029.396 1.543l-.134.026.739.785.054.243.597 1.102.254-.004.821-.839c-.389-.176-.699-.376-.687-.897.007-.294-.16-.592-.248-.888l-.131-.654.141-.12-.152-.117c-.008-.722.018-.618.726-.657.661-.036.883.419 1.269.713l1.004 1.07c.489-.447 1.173-.7 1.386-1.425.035-.119.22-.186.306-.3.092-.122.148-.271.219-.408-.426.286-.819.695-1.406.364l-.269-.384-.04-.138c-.137-.41-.269-.821-.416-1.227-.04-.11-.127-.203-.193-.304l-.118-.131-.003-.395c.206-.403-.001-.711-.238-1.012l.116-.452.092-.355.192-.474c.144-.008.315-.061.448-.052-.133-.009-.304.043-.449.052.107.062.212.127.322.185.601.32 1.203.637 1.802.96.041.022.088.091.083.132-.047.408.318.409.538.554l.276.281c.019.081.011.196.062.237.32.256 1.632.003 1.608-.334-.023-.323.644-.587.073-.905l-.151-.119a19.412 19.412 0 0 0-.119-.187l-.017-.245-.195-.496c.003-.024-.008-.036-.032-.037-.009-.198-.001-.4-.033-.594-.028-.168-.193-.428-.14-.476.325-.298.1-.605.071-.908l.035-.021.163-.069-.069-.114-.085-.237-.014-.248.014.248.194-.201.238-.059.444-.094.304.168.223.394c.46.469.948.916 1.365 1.421.134.161.083.475.13.821l.666.059.08.476-.276.879c-.588-.418-.648.26-.971.418l-.356.252c-.01.035 0 .061.033.077.227-.054.612-.052.655-.172.215-.593.645-.358.869-.341.191-.352.276-.75.514-.892.366-.218.837-.26 1.264-.376l.074-.12.415-.008 1.493-.245c-.253-.107-.499-.252-.764-.314z" data-color="4"></path>
        <path fill="#F04F17" d="M54.809 41.147c-.315-.127-.672-.227-1.006-.218-1.461.038-2.923.103-4.382.196-.581.037-.998.006-1.354-.6-.702-1.193-1.9-1.647-3.231-1.789-.272-.029-.545-.046-.818-.069l-.215.082.006.28c-.464.29-.159.661-.106 1.006l-.194.27-3.506 3.459c.187.625.123.764-.32 1.039-.065.304-.123.502-.146.704-.04.337-.2.703.181.964l.556.148.563.151.145.018c.14-.055.278-.151.42-.157.559-.024 1.142.357 1.675-.103.801.274 1.459-.275 2.193-.388.52-.08.933-.494 1.533-.438.497.047.773.352.585.846-.039.103.019.243.033.366l.006.202c-.247.356-.405.711-.153 1.149.072.125.022.335-.009.499-.086.455-.273.909-.264 1.36.008.389-.116.718-.18 1.076-.164.917.432 1.849-.028 2.776-.036.073.037.201.06.304.046.207.181.444.122.614-.143.417.172.602.337.867.092.148.165.326.295.429.274.217.102.77.614.791l.598.097.165-.068c.231-.006.461-.442.693-.002l.671-.393c.217.346.402.674.619.979.399.56.983.642 1.613.578.523-1.263 1.05-2.524 1.566-3.79.086-.21.129-.438.192-.658l.019-.244-.011-2.52-.005-.362c-.036-.185-.08-.369-.108-.556-.069-.462-.157-.923-.186-1.387-.018-.294.057-.594.091-.891l-.511-1.367-.235-.261-.003.004-2.818-2.115.049-.151c1.13-.154 2.258-.324 3.39-.457.901-.106 1.42-.556 1.436-1.278.01-.489-.216-.823-.637-.992zm-3.375 13.018c.064-.17.01-.383.082-.557.041-.215.099-.429.116-.646.015-.189-.035-.383-.025-.574a4.52 4.52 0 0 1 .089-.675c.033-.162.121-.314.151-.477.047-.26.067-.524.098-.787.041-.348.08-.697.124-1.045.06-.483.126-.965.186-1.448.026-.206.043-.413.068-.649l.358-.074c.111.486.254.964.32 1.453.038.282.026.619-.1.861-.144.276-.156.409.061.654.174.196.287.516.288.781.004.784-.074 1.569-.091 2.354-.007.317.086.635.087.953.001.168-.073.349-.155.501-.17.315-.372.614-.554.923-.113.191-.717.185-.842-.041-.257-.466-.473-.943-.261-1.507zM44.866 39.4l-.001-.287.001.287.144.241-.144-.241zm-.571 6.566c.012-.028.039-.062.032-.082.008.02-.02.054-.032.082zm4.834 10.665c-.012 0-.025-.007-.037-.011.004-.01.008-.028.012-.028.012 0 .025.007.037.011-.004.01-.008.028-.012.028zm1.693-11.16l-.151 2.313-.431.207c.586.363.197.847.246 1.273.032.279-.032.571-.069.855-.039.301-.097.6-.146.9-.003.018-.01.037-.007.054.107.603-.22 1.104-.39 1.641-.057.179-.115.378-.235.512-.276.309-.254.534.185.75l-.783 1.303c-.642-.519-.413-.856-.011-1.164-.447-.858-.433-1.728-.248-2.634.059-.291.152-.647-.08-.964-.048-.066.116-.286.192-.458-.31-.412-.253-.921-.003-1.448.135-.284.024-.684-.089-1.005l.419-.545-.183-.008c-.065-.282-.196-.566-.182-.844.029-.596.132-1.189.214-1.865l1.752 1.127zm4.151-3.079c-.538.14-1.077.285-1.625.373-1.302.21-2.609.393-3.915.581-.591.085-1.191.125-1.775.245-.907.185-1.803.421-2.721.639l.079.513c-.496.056-.944.117-1.394.153-.275.022-.553.007-.829.009l-1.504.347-.339.116-.178-.341.091-.267c.172-.152.363-.287.511-.46.161-.189.282-.413.454-.674a38.71 38.71 0 0 0-.184-.147l1.643-1.734.882-.596 1.424-.597.203-.032c.743-.076 1.367.069 1.629.879l.011.424c-.116.781.434.493.802.497l.247-.108c.981-.083 1.962-.158 2.941-.254.464-.046.926-.195 1.387-.186.7.013 1.398.118 2.096.2.085.01.216.108.224.176.007.079-.086.225-.16.244z" data-color="4"></path>
        <path fill="#15494B" d="M53.606 159.088c.064.099.129.163.141.236.007.038-.08.092-.124.139-.062-.071-.131-.138-.178-.218-.008-.013.085-.084.161-.157z" data-color="3"></path>
        <path fill="#80A09F" d="M85.327 143.449l-.04-.062.061.041-.021.021z" data-color="2"></path>
        <path fill="#15494B" d="M71.027 32.065l.126-.032-.389-.125.063.154.2.003z" data-color="3"></path>
        <path d="M59.132 38.32l.003.006.001.001-.004-.007z" fill="#15494B" data-color="3"></path>
        <path fill="#15494B" d="M175.589 78.345c-.169-.145-.489-.287-.502-.451-.054-.729-.611-.664-1.075-.787-.229-.061-.491-.14-.648-.3-.305-.311-.326-.332-.508-.03-.201 0-.347-.025-.48.007-.134.032-.255.12-.382.184-1.242-.545-2.488-.352-3.747.035.231-.24.497-.552.715-.521.518.073.769-.158.983-.542l-.09-.052.09.052c.521-.372 1.037-.751 1.564-1.114.201-.138.415-.277.645-.349.323-.101.403-.273.282-.569l-.234-.538-.028-.239c-.161-.328-.376-.392-.701-.193-.107.066-.286.003-.429.023-.287.04-.572.096-.858.146l-.288.03c-.643.026-1.292.001-1.925.093-.488.071-.945.334-1.431.431-.6.12-1.217.15-1.825.233-.139.019-.312.059-.399.154-.585.637-1.439.643-2.167.937-.425.172-.878.275-1.314.422-.216.073-.421.177-.631.267-.331-.037-.4.137-.34.417l-.185-.017-.772-.079-.133-.433.354-.191c.31-.02.656.014.668-.448a.104.104 0 0 0 .08-.021c.177-.056.364-.091.528-.172.221-.11.43-.248.635-.386.58-.39 1.172-.764 1.73-1.184.546-.411 1.049-.879 1.587-1.301.09-.071.268-.03.28-.031.213-.239.342-.418.505-.558.289-.249.599-.475.9-.711.381-.3.719-.727 1.151-.873.668-.225 1.024-.717 1.424-1.204.219-.178.478-.327.644-.545.113-.149.096-.395.138-.598-.359-.056-.467-.771-1.002-.38-.044.032-.145.016-.204-.01-.514-.228-.786.115-.986.348-.244-.032-.43-.114-.566-.063-.318.119-.612.302-.915.459l-.539-.281-.066.427c-.528.188-1.058.371-1.582.57-.07.026-.108.135-.161.205l-.214.142c-.401-.202-.449.174-.607.369-.533.375-1.278.264-1.755.83-.267.316-.714.481-1.079.714l.185.206-.185-.206c-.604.472-1.223.926-1.808 1.421-.37.313-.689.685-1.031 1.03-.117.039-.266.045-.346.122-.379.368-.747.749-1.105 1.139-.366.4-.714.815-1.07 1.224l-.761.472c-.581-.057-.742-.258-.756-.944l.326-.213.491-.042-.381-.308.348-.079.083-.145a9.94 9.94 0 0 0-.061-.155l.961-1.03.256-.845c-.101-.215-.223-.255-.345-.226.122-.029.244.011.345.226l.341-.203.151-.179.126-.33c.02-.068.018-.165.063-.2.36-.279.73-.546 1.097-.817l-.097-.201c.441-.624.823-1.174 1.218-1.715.132-.181.421-.333.427-.506.024-.675.387-1.126.846-1.546a.915.915 0 0 0 .232-.299c.21-.5.373-1.021.615-1.504.118-.236.372-.406.485-.523.069-.237.131-.395.156-.558.017-.115-.018-.237-.03-.356l.08-.568-.262-.434c.029-.354-.174-.228-.346-.166l-.203-.065c-.281-.245-.54-.212-.779.063l-.282.099-1.143.509c-.608-.143-.246.287-.285.481-.301.121-.737.023-.816.502l-.214.021-.125.012-1.051 1.391c-.216.083-.504.104-.636.259a35.523 35.523 0 0 0-1.578 2.008c-.092.125-.047.343-.109.5-.061.153-.147.338-.277.412-.253.143-.542.22-.251.579a.175.175 0 0 0-.053.093c-.101.071-.231.122-.296.217-.165.242-.283.516-.45.756-.379.546-.798 1.066-1.16 1.623-.326.503-.586 1.048-.897 1.561-.383.63-.788 1.246-1.184 1.867l-.302.358c-.412-.031-.944-.234-1.209-.051-.372.256-.641.152-.98.121-.109-.01-.241.137-.349.228-.275.23-.527.563-.877.079-.056-.077-.217-.119-.324-.11-.37.029-.743.064-1.105.143-.252.055-.488.185-.732.282l-.267.076c-.212-.148-.407-.362-.642-.424-.207-.054-.459.061-.798.121l-.127.238-.653-.823-.681.759c-.024.027-.056.047-.084.07l-.203-.081-1.007.064-.2-.075-.336.465a13.1 13.1 0 0 1-.181.065l.181-.066.336-.465-.509-.605-.375.712-.363-.714-.754.468-.194-.001-.021.595c-.254-.06-.506-.139-.763-.176.257.038.509.116.763.176l.021-.595-.912-.483-1.576.63c-.613-.619-1.321-.918-2.138-.084l.028-.296-.704-.132-.188.201-.718.206-.192-.057-.69.009-.166-.003c-.588-.192-1.167-.418-1.767-.562-.301-.072-.691-.212-.911.209l-.319-.03c-.196-.217-.342-.269-.358.108l-.426.11a587.44 587.44 0 0 1-.97-.207c-.212-.291-.346-.3-.632.108l-.458.204-.232-.1-.225-.024-.315-.283c-.247 0-.404.014-.557-.003-.261-.029-.521-.078-.781-.118l-.432.031-.241-.002-.204-.071c-.193-.28-.381-.284-.563.012l-.542.001c-.63-.47-1.308-.705-2.09-.413l-.026.119-.714.482.714-.482.026-.119-.335-.224a20.233 20.233 0 0 0-.246-.011l-.259-.018-.427-.439c-.289.116-.486.208-.69.276-.512.17-.968-.24-1.38-.23-.771.019-1.527.009-2.286-.108a.085.085 0 0 0-.068-.039c-.254-.399-.488-.116-.726.022l-.19-.127-.2-.109c-.161.305-.383.201-.633.126-.15-.045-.332.017-.499.031l-.432-.027c-.345-.173-.656-.183-.957.275-.261-.327-.491-.633-.741-.922a.888.888 0 0 0-.323-.211c-.159-.067-.33-.105-.512-.16l-.218.253-.992-.316-.185-.124-.269-.14-.41-.005c-.265-.254-.508-.537-.801-.752-.281-.206-.614-.34-.924-.506a49.14 49.14 0 0 1-.4.041c-.071-.001-.158.024-.211-.008-.332-.201-.657-.414-.984-.622l-.35-.136c-.522-.701-.618-.726-1.526-.404l-.316-.016.015-.304c-.619.134-.875-.833-1.569-.516-.077.035-.221-.109-.341-.129-.178-.03-.362-.024-.544-.033l-.196-.026-.153-.424-.117.163c-.22-.071-.437-.154-.66-.21-.355-.09-.714-.163-1.071-.242l-.22-.017-.713-.161.052.276c-.018-.092-.035-.184-.055-.278l-.257-.217-.142-.099-.32-.19-.159-.006-.388.132.388-.132c-.081-.065-.178-.199-.239-.184-.63.154-.829-.339-1.111-.714l-.581.291c-.017-.039-.046-.052-.087-.04-.02-.067-.025-.183-.063-.195-.529-.171-.999-.449-1.453-.761-.008-.006-.032.012-.049.019a11.701 11.701 0 0 0-.316-.06h.012c-.207-.336-.414-.379-.619.001l-.134-.191-.242-.243.242.244.123-.183-.364-.068c.052-.414-.29-.179-.442-.259v-.042l-.039-.014c-.025-.053-.05-.105-.071-.162l.463-.209.004-.128-.483-.068-.127-.042-.349-1.339c-.121-.793-.381-1.527-.899-2.17-.309.226-.553.268-.652-.166-.135-.59-.266-1.18-.405-1.769-.093-.395-.443-.738-.243-1.196.007-.017-.078-.067-.111-.109-.21-.277-.469-.532-.615-.841-.237-.504-.262-1.103-.704-1.519a.452.452 0 0 1-.12-.296c-.009-1.062-.005-2.124-.005-3.236a91.87 91.87 0 0 1-.464-.25l.043-.258c.051-.012.135-.009.147-.037.033-.078.081-.206.045-.248-.294-.349-.291-.764-.374-1.183-.093-.466-.646-.797-.488-1.394.045-.17-.062-.379-.022-.552.134-.581.047-.77-.578-.985.063-.245.135-.495.19-.749.021-.096.001-.2 0-.301-.114.002-.235-.02-.339.012-.093.028-.168.116-.297.212-.026-.161-.043-.262-.058-.364-.068-.468-.747-1.334-1.12-1.425l-.046.341.43.354-.43-.354.046-.341-.225-.499.296-.713-.21.048-.578-.355-.114-.106c-.18-.456-.057-1.056-.629-1.328l.02-.206-.216-1.344-.511.155-.856-2.226-.21-.238-.219-.12c-.26-.581-.653-1.134-.325-1.792-.222-.114-.511-.19-.514-.277-.023-.549-.481-.648-.82-.874l.019.34c.005.146.002.292.05.41-.048-.118-.045-.263-.05-.41l-.019-.34-.117-.106-.424-.896-.333-.143a15.044 15.044 0 0 0-.1-.17l-.055-.314c-.124-.425-.154-.92-.747-.994l-.196-.146-.126.032-.014.184.014-.184-.2-.004-.063-.154-.178-.181-.665-.425-.555-.43-.309-.25-.247-.179-.181-.161-.698-.509-.187-.146-2.356-1.013-.167-.095c-.082-.062-.158-.136-.249-.183-.845-.445-1.676-.923-2.546-1.313-.597-.268-1.25-.411-1.878-.61.207.087.416.169.619.264.148.069.287.156.43.234l-.056.188-.725.032-.727-.253-.276-.196-.163-.02-.294-.002-.141.179-.079-.29-.842-.135-.415.008-.073.12c-.427.117-.898.158-1.264.376-.238.142-.323.54-.514.892-.223-.017-.653-.252-.869.341-.044.12-.428.118-.655.172l-.11.105-.426.227c-.027.184.014.495-.101.571-.213.14-.459.475-.799.153-.063-.06-.202-.04-.305-.057-.108.102-.2.232-.327.301-.235.128-.497.205-.734.329-.397.208-.784.437-1.181.662-.071.137-.127.286-.219.408-.086.114-.271.181-.306.3-.213.725-.896.978-1.386 1.425l-.039.31-.166.251-.131.149a13.17 13.17 0 0 0-.279.128c-.151.307-.283.311-.539.017l-.218.038c.155.502-.24.545-.552.658l-.821.839.139.968-.713-.09c-.094.374-.142.732-.276 1.055-.131.315-.284.73-.545.854-.325.155-.344.364-.403.616l-.051.126c.273.023.546.04.818.069 1.331.141 2.529.596 3.231 1.789.356.605.773.637 1.354.6 1.459-.094 2.92-.158 4.382-.196.335-.009.691.091 1.006.218.421.169.647.504.636.989-.016.722-.535 1.172-1.436 1.278-1.132.133-2.26.303-3.39.457l-.049.151 2.818 2.115.003-.004.235.261.331-.155.11-.002-.11.002-.331.155.512 1.367.476.107-.476-.107c-.034.297-.109.597-.091.891.029.465.117.926.186 1.387.028.186.071.371.108.556l.169-1.069-.169 1.069.006.362.165 1.095-.165-1.095.011 2.521-.019.244.066.197c-.19.597-.371 1.196-.574 1.789.203-.592.383-1.192.574-1.789l-.066-.197c-.063.22-.106.447-.192.658-.517 1.265-1.043 2.527-1.567 3.789.176-.028.352-.069.529-.075.068-.003.14.072.209.111l.866.218.039-.13-.039.13c.041.02.065.047.098.07-.034-.023-.058-.05-.098-.07l-.866-.218-.142.763c.216.193.64.351.111.667l-.102.319-.11.221-.027.783.643-.181-.062.391-.002.002c-.173.437-.451.149-.694.1l-.281.447-.151.435.504.049-.306.408c.066.383.121.763-.218 1.063l.252.268c.141-.045.288-.077.422-.138.123-.057.232-.147.347-.222l-.198-.32.203.017-.005.302c-.115.075-.224.165-.347.222-.133.062-.281.094-.422.139.06.23.081.482.193.683.115.207.32.364.535.597l-1.079.496-.092.533c-.01.155 0 .316-.037.464-.037.149-.129.283-.183.429-.047.129-.07.266-.11.398-.08.264-.165.526-.248.789l.016.448c.124.435-.046.564-.47.476-.417-.086-.58.103-.502.519.032.174.03.36.013.538-.046.469-.145.936-.154 1.404-.008.429.076.859.12 1.288-.056.188-.221.459-.151.55.306.399.271.714-.022.925.157.51.366.943.412 1.391.406 3.931.532 7.932.859 11.879.475.431.732 1.091.671 1.728-.028.298-.121.588-.151.886-.047.474.068.947.181 1.409l.504 2.051c-.121.856.087 1.768.303 2.625l1.365 5.417c-.139.399.273.749.522 1.091.701.963.2 2.489 1.006 3.367-.532 1.569 2.034 3.053 1.346 4.56.343-.113.682.212.814.547.132.336.163.719.379 1.008.147.197.364.328.556.482.563.454.91 1.116 1.242 1.758l2.527 4.897c.739.367 1.315 1.529 1.884 2.139.146.157.327.292.435.471.317.525.576 1.086.911 1.599.444.679 1.287 1.11 1.2 1.915.265-.035.552-.151.633-.068.272.278.458.638.704.944.071.088.236.099.357.15.395.164.795.368.762.861-.028.432.146.568.527.566l.735.349.031-.037.86.333-.111.463c.31.317.95.205 1.045.789.017.105-.063.225-.098.338l.363.174.239.115.201.417.317.063.326.008.345.305.354-.081.18.311.124.214c.717.178 1.176.986.92 1.676l1.842 1.142h1.238v.542l.06.063.399-.083.042.513.213.134.352-.032c.595.22 1.15.488 1.35.987.455.187.824.347 1.2.486.13.048.281.04.422.058l.013.217.676.123c.017.003.035-.005.053-.006.231-.002 1.274.876 1.335 1.123l.241.517.11.003a.36.36 0 0 0 .102-.023c-.038-.306.063-.443.395-.355.136.036.287.022.435.022.68-.004 1.12.172 1.564-.523l.623.487c.239-.263.158-.711-.098-.958s-.632-.327-.988-.331c-.154-.002-.325.002-.438-.102-.275-.254.125-.662.468-.812.389-.17.951-.285 1.146.091.079.153.058.335.079.506.106.86 1.267 1.424 1.107 2.275-.048.258-.211.553-.04.752.19.221.563.052.837.154.154.057.261.196.359.328l1.245 1.677c.155.209.322.427.563.524.35.141.914.122.919.498a5.242 5.242 0 0 1 2.568.359c.185.076.386.165.578.108.208-.061.33-.268.474-.429.519-.578 1.562-.554 2.054.047 1.229-.444 1.581-2.334.595-3.189a.805.805 0 0 1-.426.454c.116-.159.232-.331.374-.536.026.018.167.063.221.159.189.332.452.669.49 1.026.041.375-.135.776-.235 1.161-.054.206-.147.402-.223.602.391-.144.93.185 1.179-.412.171.495.582.736 1.061.648.16-.03.313-.114.472-.122.269-.013.572-.155.744.248.066.155.329.225.547.362l.129-.826c.701.153 1.319.53 1.922-.064.117-.115.371-.092.562-.133l-.07-.055a.601.601 0 0 0 .477.07c.407-.111.772-.635 1.128-.41.223.141.224.494.444.639.207.136.477.017.717-.043s.587.033.57.279l.929-.604c-.026.017 1.604.244 1.83.217.458-.054 1.164-.169 1.565-.372-.045-.135-.009-.309-.053-.441.318.011.919.06.914.481.211.076.424.146.632.231.098.04.184.108.276.163l.445-.041a.085.085 0 0 1 .059-.047l.046-.211-.253-.44h.612l.183-.016-.303-.556.423-.305.071.871.054.167.319.061.313-.187c.026-.104.041-.212.081-.31.065-.16.147-.312.234-.492.356.748.741.817 1.249.216l.26.434.135-.221-.166-.443 1.028.181.154-.077c.001-.352-.042-.723.347-.926.148-.077.306-.154.469-.183.307-.055.621-.076.932-.111l.063-.191.391.609c.041-.028.121-.054.146-.107.219-.455.383-.975 1.138-.624l.037.202.215-.006c.035-.23-.018-.585.405-.214.076-.697.569-.722 1.055-.759l-.017-.215-.336-.421.118-.064c.225.115.444.249.679.334.096.035.332-.033.334-.061.031-.702.686-.505 1.069-.752-.09-.395-.137-.779.512-.59.057.017.203-.271.336-.457.863.375 1.347-.38 2.007-.806a2.914 2.914 0 0 0 1.115-1.256c.047-.1.328-.068.431-.168.089-.086.078-.274.102-.375.316.111.633.225.953.33.047.016.12.011.16-.016.409-.275.793-.597 1.229-.818.223-.113.538-.048.811-.063-.246-.349.034-.444.272-.558l.278-.41.274-.164c.667-.405 1.4-.709 1.808-1.415.124.249.41.408.688.381-.299-.522.364-1.058.916-1.3l1.807-.791c.316-.138.638-.28.897-.508.361-.316.569-.767.841-1.162.764-1.107 1.7-1.192 2.807-1.698.887-.405 1.641-1.454 2.556-2.21 1.08-.892 2.167-1.791 3.058-2.871-.233.078-.268-.333-.139-.541a3.728 3.728 0 0 1 2.364-1.656c-.166.003-.151-.255-.075-.403.19-.365.38-.73.565-1.099a39.119 39.119 0 0 0 1.382-3.088c.311-.786.59-1.702.183-2.443.252-.087.475-.255.627-.473a3.687 3.687 0 0 1 .716-2.901c.114-.146-.19-2.017-.095-2.424.179-.77.648-1.334.689-2.115l.208-.344.622-.219c-.096-.141-.2-.258-.262-.394a.885.885 0 0 1-.079-.382c.012-.473.053-.945.059-1.418.003-.212-.145-.552-.06-.616.575-.43.3-1.205.735-1.672a.068.068 0 0 0 .03-.064l.942-.607a.06.06 0 0 0 .04-.055c.295-.144.849.097.815-.546-.002-.031.12-.061.173-.105.174-.147.343-.3.514-.451l.23-.273.089-.224.224-.037.219-.11c.192-.081.377-.203.576-.235a.703.703 0 0 0 .558-.911l.329-.239.53-.437.007-.332.507.097c.1-.771.107-.78.688-.881v-.416l.254-.556.079-.071.549-.706.034-.459.326-.523-.012-.228-.047-.208.215-.353c-.078-.717-.508-1.025-1.045-1.23l-.348-.623c.296.049.493-.019.444-.376l.234-.023.316-.25.982-.772.474-.306a.072.072 0 0 0 .067-.041l.313-.326.039-.207.423-.223.107-.235.159.098.04-.315.137-.316c.441-.034.441-.034.426-.224l.109-.247.389-.318.024-.502.318-.829c-.227-.2-.392-.362-.576-.496-.055-.04-.167-.003-.252-.001l-.22-.132-.253-.063-.08-.149-.125.018-.038-.007-.792.502-.14.469.14-.47.792-.501.038.007.125-.018.013-.435.319-.101c.47.256.582-.183.801-.412l.2-.031 1.092-.536.344-.243.316-.226-.825.117-.382.387-.537.051-.049.193.049-.193.537-.051.382-.387.825-.117.453-.209.544-.219 1.015-.247-.178-.325c.214-.245.416-.494.679-.82zM54.111 37.803c.031.013.068.044.09.035-.022.009-.06-.021-.09-.035zm-.573 6.861c-.016.004-.053-.065-.08-.101l.158-.119c.024.047.075.11.062.129a.25.25 0 0 1-.14.091zm.195.79l.557.555h.22-.22l-.557-.555zm.646 1.433l.011-.528-.213-.123.213.123-.011.528zm.016.192l.121-.187-.121.187zm-2.39 21.998a101.53 101.53 0 0 1-.159-.328l.159.328zm.923.303l-.048-.025c.015.007.032.018.048.025zm2.38-12.275l-.087-.305c.028.102.057.203.087.305zm-1.525.068l.841 1.095a524.3 524.3 0 0 1-.841-1.095zm.449 2.041c-.008.016-.019.033-.025.048.006-.015.017-.032.025-.048zm-.402 2.947l-.291.094-.134.248.102.42-.409-.238.307-.182.134-.248-.145-.29.436.196zm.993-1.009l-.35.028-.513-.01.513.01.35-.028zm.026-13.709zm.36 12.843l-.016-.433.016.433.181.004-.181-.004zm.192 8.248l.298-.55.462.278-.76.272zm.209-27.026l.597-.242-.597.242zm1.771-.96c-.008.072-.01.146-.02.217.009-.07.011-.145.02-.217zm6.57-11.581l.337-.617-.337.617-.399.059.399-.059zm-1.617-.494c.034-.024.066-.02.094.01l-.114.287.02-.297zm-2.042 10.712l-.382.36-.338-.233c-.174-.16.205-.558-.257-.594l-.18-.392c-.006-.005-.551-.228-.552-.231.28-.174.824-.497 1.104-.67l.265.003c.142-.131.312-.02.503-.195.133.048.623.074.816.144-.721.311-.957 1.098-.979 1.808zm1.238-10.649l.052-.37.224.367-.276.003zm1.382 13.914a.413.413 0 0 0 .035.019l-.035-.019zm.843 77.018c-.1-.024-.246-.015-.293-.078.047.063.193.054.293.078l.138-.726-.138.726zm.551.793c0 .001 0 .001 0 0l.098.334-.098-.334zm-.405-80.207l-.151.301c.05.054.107.104.16.156-.053-.052-.11-.102-.16-.156-.387-.112-.793-.363-1.093.151l-.528-.049-.277-.136c.332-.19.723-.321.984-.581.729-.726.616-1.556-.238-2.195l-.009-.023c.57.23 1.156.439 1.449 1.05.097.021.448.42.497.61l.093.255c-.211.29-.515.326-.727.617zm1.577-10.269c-.012-.031-.017-.079-.039-.088.022.01.027.057.039.088zm.29 6.301c-.001 0-.001 0 0 0l.025-.048c-.008.016-.019.033-.025.048zm1.845 3.556l-.003-.002.003.002zm-.912-9.022l-.322-.099c.11.035.216.067.322.099zm.259 8.218l.21.041a7.775 7.775 0 0 1-.21-.041c-.311.276-.422.07-.441-.209.019.28.13.486.441.209zm1.089 1.137l-.44-.005.003-.326-.003.326.44.005zm.483-3.931a2.5 2.5 0 0 1 .04-.091l-.04.091zm2.101 88.856c.048.026.081.079.12.121l-.143.074c-.031-.044-.082-.087-.076-.115.009-.035.083-.089.099-.08zm-.163 2.613l.085-.56.323.218-.408.342zm1.365-91.909l.04-.091-.04.091zm-.239-2.122l.04-.354-.04.354.419.117-.419-.117zm.997 93.374c-.142-.031-.285-.059-.424-.101-.006-.002.024-.122.038-.188l.426.092a9.775 9.775 0 0 1-.04.197zm-.012-92.386l-.021-.25.021.25zm2.036 33.1c-.006-.016-.01-.035-.016-.052.005.017.01.037.016.052zm.267-28.807l-.162-.443.021-.223-.129-.22.129.22-.021.223.162.443.431.332c-.155-.121-.293-.226-.431-.332zm.445 1.84l.112.106.196-.057-.196.057-.112-.106zm.209 54.928l.192-.025.293-.108-.293.108-.192.025zm.389 25.93l-.182-.106.201-.313.145.081-.164.338zm.627.731c-.03-.013-.078-.02-.086-.041-.009-.022.021-.059.034-.089l.091.039-.039.091zm.482-79.393l-.271-.35.271.35.156.228-.156-.228zm.503.903l-.021-.534.021.534.093.439c-.03-.147-.061-.293-.093-.439zm52.193 39.245c.111.018.207.134.409.281-.223.11-.358.233-.44.204-.099-.034-.182-.19-.212-.308-.01-.04.168-.189.243-.177zm-.581 1.271l-.13.792c-.399-.299-.396-.334.13-.792zm-5.182-4.492l.001.001.259-.823a.08.08 0 0 0 .057-.052l.223.005.321.069c.219.126.467.22.651.385.293.262.543.572.811.861l-.016.224.113-.003.267.111-.208.122.127.325c.143-.101.274-.242.433-.293.174-.056.385-.067.56-.021.069.018.155.287.107.363-.079.126-.258.193-.399.277-.056.033-.124.046-.209.184.148.049.304.082.442.151.109.055.195.155.292.235-.107.101-.213.286-.321.288-.306.005-.612-.066-.918-.107-.212.421-.416.848-.647 1.259-.036.064-.199.057-.303.083l-.319.032c-.016.448-.322.506-.676.499l-.122.316-.428-.324c-.68-.467-.872-.907-.621-1.575.056-.149.295-.229.45-.341.028 0 .051-.01.068-.032l.226-.331a.148.148 0 0 0 .086-.041l.138-.594.004-.289-.449-.964zm3.71 5.975l-.06.113c-.034-.031-.077-.057-.096-.096-.009-.018.027-.06.042-.091l.114.074zm-1.734 3.244l-.444.239-.11.548.365.366-.09.203-.882-.159-.162.083-.114.275.728.782c-.429.107-.74.463-1.061-.009l-.148.012-.17.159-.672-.065c-.037.079-.056.178-.116.234-.16.15-.32.34-.514.396-.104.03-.298-.164-.417-.29-.295-.312-.344-.664-.102-1.037l-.184-.585.476-.141.069-.804-.277-.573.526.042a.461.461 0 0 1-.017.09l.148-.02.141-.034.04-.137-.427-.283.628-.045c-.062-.193-.121-.387-.187-.579-.112-.324-.228-.646-.343-.97l-.627-.537h1.074l.32.083.252.062.198-.054.171-.325-.124-.246.275.124.159.021.037.017.409.206.671.393-.154.782-.003.027.516.284v.001l.224.71-.174.243-.136.026-.343.039-.125.238.696.208zm-3.917 6.828c.004.03-.05.068-.085.11l-.134-.084c.042-.039.078-.089.128-.112.015-.007.087.053.091.086zm-1.301-13.485c.411.033.635-.159.807-.497.051-.1.192-.164.303-.221.508-.259.51-.255.258-.844.223-.129.446-.28.688-.387a.414.414 0 0 1 .349.031c.227.16.42.368.639.539.274.214.247.432-.068.591-.361.182-.711.356-.58.897.081.335-.272.485-.635.325-.275-.121-.571-.193-.857-.286l-.094.177.386.451c-.412-.052-.82-.085-1.219-.166-.103-.021-.256-.203-.242-.288.021-.124.179-.329.265-.322zm-.54 6.716l.091.039-.039.091c-.03-.013-.078-.02-.087-.041-.008-.022.022-.059.035-.089zm-.002 9.887c.031.013.078.02.087.042.009.022-.022.059-.035.089-.03-.013-.078-.02-.087-.042-.009-.021.021-.058.035-.089zm-4.043-17.751l.072-.081.037-.114-.018-.137c-.008-.358.06-.63.518-.646.103-.004.22-.236.29-.382.125-.263.22-.541.327-.813l-.059-.201-.176-.025.19-.208-.009-.029-.03.005-.044-.186.142-.042c.022-.251-.595-.45-.165-.652l-.198-.746-.157-.035.148-.06.001-.208.061-.476c.62.429 1.233.333 1.948.201l.199.373.167.066-.167-.066-.215.094.01.349.057.347.229.046c-.009.033-.02.094-.026.094-.078-.006-.156-.021-.234-.034l-.262-.151-.207.028-.015.429c.291.45.565.902.365 1.478-.011.033.115.114.178.172l.187.745c.145.005.312-.033.429.026.148.074.255.228.379.348-.145.093-.279.234-.437.269-.217.048-.452.017-.679.02l-.311.23-.127.522-.02.221c-.14.088-.276.184-.422.259-.096.05-.207.07-.311.104l-.057-.113-.846.377-.618-.496-.238-.109c-.128-.289-.244-.574.114-.793zm3.108-1.95l-.025.056.025-.056c-.001 0-.001 0 0 0zm.611 16.394c.026.017-.052.196-.082.299a.213.213 0 0 1-.016.1c-.318.3-.524.649-.502 1.107.001.031-.103.066-.158.099l-.001.001-.146.75c.072.08.185.15.207.241.038.162.02.337.025.506l-.451-.258-.287.171-.354.123-.675.363-.292.038c-.107.033-.251.127-.314.089a4.817 4.817 0 0 1-.723-.539c-.109-.098-.16-.259-.238-.392l-.71-.282.035-.194.419-.059.002-.427c.125-.317.206-.662.392-.938.105-.155.382-.194.582-.286l.339-.111.221-.65c.444-.163.341-.525.315-.859l-.007-.007-.179-.126c-.036-.004-.081.005-.107-.013-.377-.268-.34-.96-1.16-.777l.173-.223.957-.052c-.011-.07.002-.179-.037-.204-.594-.377-.311-.63.114-.867a3.906 3.906 0 0 0-.022-.115c.088-.536.536-.389.856-.402.113-.005.233.249.358.377.044.045.112.067.169.099l.291-.355.165.139-.307.308-.04.111.458.641.282.284-.024.025.014.031c.596-.224.386.242.425.494l.016.025-.213.383-.165-.014.081.329a5.3 5.3 0 0 0 .126-.004l.302.142-.196.19c-.179.254-.236.486.082.689zm-2.621 5.336c.085.091.154.133.165.188.008.037-.066.091-.103.138-.05-.039-.123-.07-.141-.121-.015-.042.038-.107.079-.205zm-1.274-10.727c-.009-.022.022-.059.035-.089.031.013.078.02.087.042.009.021-.022.059-.035.089-.031-.013-.078-.02-.087-.042zm3.199-8.809c.004.03-.05.068-.085.11l-.134-.084c.042-.039.078-.089.128-.112.016-.007.087.053.091.086zm-3.303 6.288l.183-.135.705-.633c-.141-.288-.395-.502-.604-.746.209.245.463.459.605.747.317-.609.177-1.178-.303-1.629-.132-.124-.16-.474-.089-.667.097-.262 1.3-.589 1.561-.455.226.116.418.298.626.452.09-.158.182-.236.288-.248-.106.012-.199.09-.289.248l.338.624.212.261c.576.56.333 1.162.124 1.786-.144.43-.218.886-.296 1.335-.018.104.079.228.153.421l-1.408.781-.146.343-.279-.22c-.515.155-1.172-.127-1.433-.583-.054-.094-.22-.124-.334-.183.037.156.139.335.094.463-.056.161-.331.408-.344.398-.368-.279-.897-.528-1.016-.903-.127-.399-.283-.545-.621-.685-.165-.069-.264-.297-.393-.453.196-.012.394-.045.587-.029.176.015.364.054.518.137.154.083.372.223.388.357.045.398.29.408.58.399.173-.224.352-.443.517-.673.097-.135.173-.285.258-.428l-.182-.082zm-5.9-8.159l.645-.447.178-.223a.115.115 0 0 1 .103.017l.298-.319c.178-.535-.138-1.318-.719-1.784l.284-.406.284-.055.154-.357.44-.042a.098.098 0 0 1 .029-.094l-.014-.31.418.202.226-.012.361.046.004.164.405.428.246.204.011.112.289.078-.219.793.116.255.111.019a1.124 1.124 0 0 1 0 .001l-.031.639-.21.407-.202 1.018c.575.312 1.264.197 1.65-.276.22.258.466.5.644.785.053.086-.051.393-.141.422-.493.16-.999.295-1.509.383-.682.117-.744.035-.645-.655h-.661a5.138 5.138 0 0 0-.124-.005l-.053.007-.052-.012-.211.121c-.102.115-.204.231-.311.355l-.029.188-.019.498-.316-.195c-.287.058-.636.233-.601-.317l-.035.013-.63-.053c-.055-.464-.107-.905-.171-1.359l-.154-.121c.053-.039.107-.076.161-.113zm-.575 7.895l.108.004c.049-.19.533-.198.225-.536l-.174-.192.407-.149.008-.009c.04-.202.045-.42.129-.601.081-.173-.247-.59.282-.511l.132-.602a23.433 23.433 0 0 1-.197-.245l.266-.28-.992-.617.425-.724a.085.085 0 0 0 .074-.034l.22-.128.321-.017.234-.186.091-.162.13.174.022.147.299.079c.788.036.812.641.897 1.201l.17-.003.261.116-.018.411c.041.232.123.466.11.696-.01.188-.132.369-.205.554l-.232.094.112.438.32.135-.164.176-.299-.173-.034.036.065 1.258c.02.515-.383.272-.613.341l-.028.324-.211.566-1.886-.135-.109-.665.109-.212-.243-.328-.287-.215c.093-.01.184-.018.275-.026zm1.75 2.19c-.013.03-.02.078-.041.086-.022.009-.059-.021-.09-.034l.04-.091.091.039zm-.291.212l-.081.144-.338-.163.106-.182.313.201zm-2.773 2.825l.091.039c-.013.03-.02.078-.041.086-.022.009-.059-.021-.09-.034a6.42 6.42 0 0 0 .04-.091zm-4.992-17.274l1.503.321.386-.235.147-.382c.033.103.065.205.105.307.48-.189.677-.059.751.502l.313.038.277-.018-.114.221.203.331.128-.011c.215.519.141 1.177.732 1.516l-.281.248-.115.38.308.508-.676.209-.037.115.492.709-.397.168-.318.207-.359.013-.334.211c-.08.148-.138.403-.244.425-.363.075-.708-.001-.859-.415l-.099-.111-.672-.239c.015-.167.034-.377.064-.581a58.72 58.72 0 0 0-.262-.245l.531-.026.253-.32c-.273-.298-.156-.476.182-.586l.115-.506c-.039-.527-.176-1.053-.001-1.58L104.16 76c-.168-.024-.352-.013-.501-.08-.219-.097-.414-.25-.619-.379.012-.061.027-.121.041-.18zm-.92 10.077c.022-.378.283-.404.573-.388l.195.01a.092.092 0 0 1-.012-.099l.119-.17.054-.313.012-.238.048-.227a61.03 61.03 0 0 0-.292-.05l.162-.49-.276-.22.029-.33.333-.21c.607-.396 1.316-.124 1.483.557.046.186.144.359.219.537l.065.347.525-.119.051.116-.548.424-.051.012-.049-.017.005.764.197.183-.337.149c-.032.004-.045.022-.039.053l.106.278.156.212-.289.047-.148-.04.023.22-.081.184.087.363-.239.325.001-.001.011.131c.095.01.206.057.283.025.314-.133.311-.142.583.211-.359.349-.534.698-.171 1.212.213.302.128.738-.217 1.044-.545-.187-.617-.643-.625-1.031h-.669c-.315-.001-.608-.004-.628.446-.009.198-.131.392-.212.615-.645-.268-.536-.772-.548-1.227l-.222.007h-.107l-.768.1c.079.448-.1.731-.546.83-.462.103-.884.577-1.401.171-.1-.079-.148-.224-.221-.338.128-.003.259-.021.384-.003.077.011.147.076.299.161 0-.207.004-.337-.001-.467-.008-.234-.122-.543-.014-.689.384-.516.309-1.091.229-1.623-.108-.728.463-.731.885-.957l-.059.399.113.002a1.18 1.18 0 0 1 .103.001l.112-.007.329.34.01-.01c.02-.49.307-.671.763-.655l.345-.298a10.266 10.266 0 0 1-.122-.259zm2.957 12.815l-.34.502-.248-.146c.098-.171.19-.346.306-.504.01-.012.184.096.282.148zm-1.684-4.221l-.183.314-.232.497.192.274-.5.045-.297.251.135.195-.42.165-.546.482c.006.261.042.527.005.782-.019.133-.167.349-.256.348-.136-.001-.271-.156-.407-.246l-.278-.049-.446-.031-.984-.408-.571-.38.326-.278c.136-.429.128-.96.744-1.051l.285-.566.365.137c.214.107.051-.651.414-.157.095-.176.23-.342.278-.53.099-.387.168-.783.214-1.179.018-.16-.058-.331-.091-.497l-.208-.123.161-.228-.091-.476-.353-.571.146-.091.149.248.465-.254-.107-.194c.046-.014.126-.047.132-.037.046.08.078.167.114.253l.919.705.274.314.338.552.076.156a23.67 23.67 0 0 0-.266.013l.079.396c.233-.003.465-.044.488.321.009.147.175.285.307.485l-.374.309.004.104zm-7.955-14.716c-.045-.09-.144-.193-.127-.269.068-.305 1.056-.889 1.377-.821.073.016.128.114.191.175l.168-.056.14-.151-.089-.764-.015-.332-.398-.583-.2-.069c-.126.001-.253.016-.377.001-.226-.027-.513-.004-.654-.133-.101-.093-.085-.481.024-.587.118-.114.406-.054.621-.065.071-.004.143.008.215.013l.096-.169c-.077-.363.143-.404.419-.385l.467-.271-.056.45.222.092.475.061.108.122.521.537c.198.02.397.055.595.053-.198.002-.397-.033-.595-.053l-.098.351c.488.127.192.432.155.679l.626.399.326-.199-.378-.535c.065-.296.255-.446.649-.3.305.113.483-.002.513-.348.039-.436.28-.452.608-.261.709.414.833 1.103.332 1.755-.125.163-.176.382-.281.621-.35.049-.713.138-1.003-.312-.097-.151-.449-.139-.684-.201l-.264.165c-.003.207-.04.42-.003.62.061.327-.094.289-.298.216-.1.345.078.836-.492.935l-.145.873-.701.289-.598.101-.375.859-.18-.027-.216-.394-.378-.144c-.445-.057-.334-.434-.407-.705-.039-.2-.131-.407-.102-.597.035-.22.173-.425.266-.636zm-.178 4.571l.01-.011.526-.474.833.957.081.349.111.416.399-.046-.079.271.119.953-.073.102-.018.014.163.01.169.005.712.003c.649.002.921.225.895.738-.015.294-.63.68-1.033.644-.18-.016-.359-.041-.538-.063l-.16.329 1.102.379c-.386.45-.626.452-1.038.063l-.375.112-.045.28.03.154c.319.54-.216.422-.428.553l-.25.051a75.405 75.405 0 0 1-.452.389l.012.107c.11 0 .235-.033.326.008.156.07.376.164.41.29.035.132-.119.313-.19.473l-.086-.181c-.309-.026-.62-.035-.925-.084-.143-.023-.274-.122-.411-.186l-.206.007c-.34.39-.471.374-.881-.104-.175-.007-.351-.007-.525-.023-.068-.006-.133-.048-.199-.073l-.157-.244-.084-.1-.147-.141c-.05-.055-.141-.11-.141-.166-.001-.133.041-.267.066-.4l.192-.395.098-.126.296-.52c-.106-.016-.27.005-.309-.055-.189-.285-.422-.449-.776-.445-.031 0-.108-.266-.091-.276.346-.191.704-.362 1.059-.537l.168-.03.108-.159.097.214c.137.176.137.176.567-.075.086-.029.184-.1.255-.079.176.051.34.145.509.221l.164-.644c-.212-.043-.369-.103-.151-.344.092-.102.155-.23.23-.347l.006-.001-.551-.196.248-.466-.251-.625.03-.216c-.367-.008-.736.006-1.098-.038a.509.509 0 0 1-.343-.275c-.03-.076.116-.24.211-.339.136-.141.297-.258.495-.426.459.057.757.404.954.87l.36-.052zm-1.265-14.698l.44.219-.44-.219c-.224.013-.449.034-.673.048.224-.014.449-.034.673-.048zm-7.737-2.925l-.019.035a.413.413 0 0 0 .019-.035zm-.783.038l-.048-.026.048.026zm-.633-3.155l.132.202-.132-.202c-.155-.012-.323.011-.482-.023.159.034.327.012.482.023zm-1.217 16.151l.325-.654.16-.224.171-.158.283-.149c.021-.758.675-.857 1.172-1.12l-.006-.332-.124-.618-.361-.171c.391-.127-.022-.749.569-.728l.303-.199.153.003.109-.214.104.167.359.619.018.013.261.57-.002.24-.016.301.136.386.112.368-.061.351c-.153.256-.043.704-.534.727-.028.001-.046.222-.068.34l-.274.374c-.139.468-.555.583-.942.735l-.2.019-.137.273-.192.596-.552-.623-.862-.667-.183-.135c.092-.031.185-.06.279-.09zm-4.811-33.732l-.389.338.389-.338zm.576 32.889c-.371-.129-.56-.434-.501-.806l-.036-.245-.083-.189c-.276-.102-.274-.222-.024-.359.544.021.898-.209 1.013-.76.011-.051.037-.118.077-.141 1.239-.706.672-1.806.634-2.799-.008-.208.082-.446.2-.62.046-.068.299-.015.452.013.246.046.487.117.774.188l.05.515.133.12c.048.319.099.637.142.956.026.191.037.384.055.576l.988.413c-.065.344-.419.35-.771.36l-.044.687-.124.11c-.243.417.093.977-.333 1.349l.161.276-.41-.012-.325.512-.095.217-.275-.255c-.412.511-.914.478-1.658-.106zm.928 8.322c.068-.611.423-.851 1.004-1.046.601-.202.86-.904.847-1.472-.015-.661.443-.656.79-.843.098-.053.25-.008.415-.008l.192 2.565c-.323.185-.902.318-1.05.645-.294.651-.938.717-1.363 1.11l-.487-.398.102-.438-.45-.115zm1.528 4.47c-.378-.299-.558-.682-.497-1.167-.223-.079-.546-.088-.336-.473l-.14-.748.215-.006.249-.061.36.249-.004.289-.005.145.192.224.233.064h.422c.099.296.235.529.238.764.002.223-.073.53-.229.648-.16.119-.46.055-.698.072zm.447 1.365a.849.849 0 0 1 .226.248c.013.022-.092.11-.184.216-.091-.138-.167-.226-.205-.328-.009-.024.149-.147.163-.136zm1.051 21.833l-.115-.509-.09.132c-.15-.07-.373-.101-.434-.218-.128-.246-.728-.297-.419-.677.308-.379.484.148.724.261.251.119.499.241.801.387l-.467.624zm.322-7.191c.436-.516-.058-1.306.732-1.63.307.865.029 1.616-.732 1.63zm3.143 29.566c-.042.025-.404-.354-.383-.384.171-.248.375-.494.623-.657.073-.048.322.172.628.349-.363.304-.596.531-.868.692zm.445-13.079c.014.098-.108.215-.169.327-.374-.33-.381-.808-.031-1.278.483.223.154.631.2.951zm-.203-.955l-.457-.708.457.708zm-.369-3.212l-.091-.04.091.04zm1.42-17.303c-.236.283-.555.637-.838 1.016-.171.228-.258.233-.341-.04l-.221-.013c-.654.258-1.007.135-1.619-.56l.57-1.184 1.259.179.232-.413c-.101-.088-.225-.159-.299-.266.074.106.198.178.299.266l.882-.105c.106-.335.261-.23.401-.034a1.7 1.7 0 0 1 .216.411c.087.243.15.494.223.742l-.764.001zm-3.057-7.37c.072-.146.141-.294.226-.432.004-.007.211.084.207.1-.038.155-.102.303-.158.453l-.275-.121zm3.55-2.29l.479.522-1.806.276-.386.372-.29-.4a16.423 16.423 0 0 1-.218-.034l-.084.871-.147.018-.211-.613c-.175.159-.329.275-.45.418-.166.195-.277.246-.337-.062-.251-.065-.412-.074-.634.191-.154.184-.623.107-.951.147l-.656.32c-.355-.346-.623-.725-.351-1.287.04-.083-.019-.209-.001-.31.068-.382.197-.649.683-.693.497-.045.981-.243 1.468-.382.04-.011.063-.081.116-.153-.439-.459-1.573-.61-.689-1.658-.244-.056-.426-.05-.538-.135-.124-.095-.184-.272-.272-.414.161-.054.343-.184.478-.146.372.104.731.266 1.079.436.025.012.042.047.062.074.035-.075.08-.154.148-.241l.21.77c-.091-.016-.149-.045-.209-.072a.774.774 0 0 0 .456.553c.138.064.131.439.189.672.257-.39.465-.828.788-1.153.223-.225.607-.286.912-.437.083-.041.136-.141.202-.214-.141-.099-.284-.194-.423-.296-.285-.21-.113-.296.103-.368l.163-.191.099-.246c.053-.13.122-.257.157-.392.073-.282.262-.576-.149-.797-.087-.047-.123-.33-.073-.464.16-.431.653-.532 1.014-.25.239.187.495.352.74.531.056.041.129.093.142.151.086.383.188.766.227 1.155.045.453.007.914.052 1.368.025.252.147.495.254.831-.394.495-.412 1.421-1.346 1.732zm1.64-7.986c-.092-.018-.154-.183-.23-.28l-.138.225.105.263-.295-.118c-.235-.454-.676-.113-.992-.256l-.948-.545.252-.419-.328-.432.113-.157.461.201c.037 0 .072.007.106.021l.548-.554.123-.632.191-.121c-.216-.271-.21-.487.104-.571l-.162-1.154 1.191.056c-.112-.61-.015-1.294-.674-1.719l.932-.697c-.382-.228-.659-.366-.904-.548-.209-.156-.381-.362-.57-.546l-.366-.13-.83.528-.195-.114c.624-.515.138-.778-.083-1.176-.315-.568-.807-.962-1.174-1.468-.239-.33-.578-.397-.969-.377-.18.009-.365-.091-.55-.141.407-1.301 1.555-2.283 2.364-2.068l.209.209-.555.282c.144.368.342.407 1.161.192.361-.059.676.414 1.108-.008.292-.286.595-.502.681-.928.014-.071.201-.16.296-.148.145.017.346.077.409.186.437.749.435.756 1.201.369.012-.006.035.008.053.012.094.545-.505 1.273-1.077 1.283-.321.005-.553.023-.6.444-.036.324-.273.291-.627-.127.19-.135.41-.241.553-.411.113-.135.162-.347.176-.53.006-.074-.198-.244-.24-.225a1.358 1.358 0 0 0-.39.305c-.32.336-.641.671-.936 1.028-.117.142-.165.34-.244.513.158.072.316.145.475.214.158.069.313.146.476.197.275.084.61.081.816.244.176.14.195.468.311.699.026.051.165.046.253.067.172-.62-.081-1.06-.59-1.393.364-.382 1.23-.544 1.662-.289.095.056.139.201.2.31.152.271.234.626.671.546v.001c-.126.137-.384.321-.354.403.093.26.068.693.555.622.365-.027.874-.361 1.263-.709.146-.131.429-.11.649-.158.023.227.147.524.047.667-.183.265-.497.44-.799.688l.168.541c-1.273-.089-1.273-.089-1.342-.739l-.31.055c.013.267.136.692.019.774-.535.374-.496.951-.698 1.451-.114.282-.311.697-.8.69-.102-.001-.207.203-.398.406.628.136 1.134.227 1.629.362.259.071.551.197.459.56a.95.95 0 0 1-.267.438c-.207.189-.451.337-.675.5l-.519-.113.004.19c.566.558.591.993.071 1.228l-.066.423.488.481-.122.127-.422-.258-.119.01-.026.177.012.224.3.15h.74l.069.248-.752.396c-.083.064-.17.185-.25.181a7.67 7.67 0 0 1-1.088-.128zm.366 50.03l-.092-.246.576-.634.43.961-.914-.081zm.794-13.263a.56.56 0 0 1 .041.022c-.014-.008-.028-.017-.041-.022zm.456 13.752c-.071-.127-.159-.213-.148-.283.011-.071.121-.126.188-.187.065.071.181.143.18.213-.001.071-.116.142-.22.257zm-.048-12.479c.158-.095.319-.187.475-.285-.156.098-.316.19-.475.285zm3.29-24.894l-.123.099-.456.781.547.154c-.189.38-.432.447-.76.273l.333.68c-.029.286-.301.408-.672.301-.276.207-.46.672-.949.307-.042-.031-.327.261-.612.497l-.517-.892-.238-.019c-.542-.254-.638-.804-.707-1.28-.034-.233.323-.518.494-.785.089-.138.16-.288.236-.434.116-.222.233-.424.44-.069l.11.138.461.405.182-.176c-.213-.441.262-.393.412-.576l.188-.496c.196-.823-.251-1.443-.76-2.186.52-.141.98-.339 1.444-.348.144-.003.3.502.45.774a.28.28 0 0 1 .058.066c.439.448.685.973.605 1.624l.343-.016c.07.122-.345 1.059-.509 1.178zm1.657 35.125c.031-.1.077-.202.114-.302-.037.1-.083.202-.114.302zm-.247-5.093c-.122-.031-.239-.206-.287-.344-.02-.057.169-.267.221-.253.152.041.282.16.502.299-.2.146-.343.322-.436.298zm-.743-22.693l.556-1.209c.156.294.21.535.361.641.154.109.428.156.598.093.097-.036.112-.344.129-.532.029-.321-.059-.688.068-.957.168-.358.115-.477-.235-.595-.185-.062-.335-.227-.5-.346.167-.107.322-.246.504-.314.455-.169.563-.385.366-.833-.059-.134-.177-.266-.174-.396.003-.125.129-.348.202-.348.134-.001.337.097.393.211.252.518.503 1.044.671 1.593.071.233-.063.529-.104.796a.146.146 0 0 1 0 .105c.226-.032.527.06.543-.323-.001-.091-.027-.19.001-.27.077-.218.177-.428.267-.641l-.029-.224-.002-.63.158-.727.112-.291.271.14.122-.004 1.011.408.282.161.605-.15.023.202-.447.076-.072.194.168.438c.397-.125.788-.274 1.192-.368.519-.12 1.048-.196 1.573-.291l.632-.011.192-.097.222-.223.442-.106c.262.026.606-.112.662.328-.305.109-.614.208-.913.333-.08.033-.127.143-.19.217l-.201.006-.348.05c-.264.08-.525.17-.793.237-.248.062-.516.065-.749.158-.285.115-.515.474-.868.117-.013-.013-.156.1-.236.157-.138.099-.274.2-.411.301.142.214.358.43-.017.63l-.222.113-.212.224-.048.348c.04.271.089.548-.339.509l-.195.216.018.119.412.117-.017.185h-.568l-.167.325-.258.343-.183-.432-.446-.055-.308.143-.28.322-.172-.418-.045-.02c-.476.087-.95.207-1.431.251s-.965.004-1.576.004zm6.463 8.597l.17-.273-.17.273-.819.233-.263.156-.874.075-.065.028.065-.028.874-.075.263-.156.819-.233zm-.631-.368l.309-.128.029-.194-.029.194-.309.128zm1.05 1.325l.552.942c-.382.043-.763.088-1.145.127.382-.039.764-.083 1.145-.127l-.552-.942zm-2.482-.446l-.227-.05-.204-.283.204.283.227.05zm-.445.213l-.239-.017a.213.213 0 0 1 .001 0l.238.017zm-.481-.094l-.171-.015-.224.016.224-.016.171.015zm-.937.451l-.021-.035.217-.321-.217.322.021.034zm-.743 17.751c-.01.006-.084-.088-.128-.136l.344-.258.105.155c-.105.082-.208.168-.321.239zm.873 8.36l-.114-.089.163-.206.104.068-.153.227zm8.942-8.15c.064-.312.108-.63.207-.931.021-.063.242-.06.371-.086a.55.55 0 0 1 .005.07l-.322 1.002a17.05 17.05 0 0 1-.261-.055zm1.247-12.648l1.62-.433c.01.016.014.027.022.042l-.104.017.003.006c-.57.111-1.059.239-1.541.368zm.532 6.014c-.006-.015-.01-.035-.016-.052.006.017.01.037.016.052zm.048-2.349l.637.07.361.24-.361-.24-.637-.07zm1.315-.078zm.135-21.797l.5.146-.248.368-.109.227c.103.201.194.399-.11.513l.027 1.087-.528.253-.085-.109-.124.437-.106-.126c-.325.245-.758.426-.95.749-.309.521-.641.478-1.073.274-.275-.142-.772.229-.851-.367l.04-.253.061-.193-.118-.159c.02-.016.024-.035.013-.057-.73-.223-.252-.843-.468-1.235l.098-.098.51.279.098-.242c-.099-.426.344-.444.508-.671-.032-.307.018-.534.341-.714.172-.096.221-.41.325-.626l-.241-.753-.019-.258a.363.363 0 0 1 .037-.083l-.1-.439.22-.093a.776.776 0 0 1 .084-.034l.425-.038.037-.122c.137-.537.21-.59.786-.506l-.419.503a.081.081 0 0 0 .047.067l.143.171.41-.02.498.071-.153.329.018.42.051.23.368.361c.201-.238.453-.452.585-.723-.132.272-.385.485-.585.724l.057.71zm.77 11.404l.014-.032a.309.309 0 0 0-.014.032zm.039-.092l-.091-.039.091.039zm1.678 27.989l-.12-.158c.047-.024.11-.075.129-.062.044.03.077.088.092.14.005.017-.065.053-.101.08zm.132-26.084l-.385.257.385-.257-.321-.014.321.014c.008-.1.08-.181.152-.263-.072.082-.144.163-.152.263zm.111-24.619c.155 1.135-.775.923-1.382 1.104-.1.03-.218.005-.327.005l.181.769c-.108.358-.282.716.027 1.067.026.029.016.113-.005.157-.225.468-.456.934-.681 1.39l.296.376c-.187.131-.359.303-.566.376-.107.037-.276-.103-.449-.176l-.293.238-.416.716-.163.027.014.133.262.859-.761-.113c-.259.307-.447.169-.622-.094-.082-.123-.173-.24-.261-.36-.107-.01-.215-.032-.322-.026-.194.01-.388.037-.582.057l.289-.888c.033-.253.049-.509.107-.756.019-.081.145-.138.223-.205l.275-.97-.696-.447.005-.182 1.768-.183c-.023-.241-.062-.482-.063-.724 0-.095.083-.19.128-.285l.088-.168c-.071-.335-.126-.675-.219-1.005-.095-.335-.1-.634.287-.75.352-.106.743-.225.953.255l.441.162.193-.001.258.315.314.147c-.008-.108.005-.222-.027-.322-.245-.754-.188-.842.62-.934.051-.006.098-.041.139-.059.012-.027.024-.043.026-.06l.117-.723c.271.132.605.207.792.414.136.15.082.475.101.722.005.045-.075.098-.069.142zm1.208 32.198c.095-.013.189-.031.284-.045-.094.014-.189.033-.284.045zm1.442 19.815a.264.264 0 0 1-.092-.14c-.005-.016.065-.052.101-.08l.12.158c-.048.024-.11.075-.129.062zm1.31-24.381l.221.052-.221-.052zm.251 23.301c-.071-.043-.207-.113-.202-.126.053-.133.129-.257.198-.384l.214.111-.21.399zm1.495-23.573c.001 0 .001 0 0 0l.54.537-.54-.537zm5.387-18.48l-.048.503-.116.074-.278-.537-.773.333c-.109.432-.161.856.133 1.247.042.055.092.168.068.198-.396.485-.171.95.029 1.418h.62c-.084.422-.332.515-.648.517l-.036.222.08.159-.388-.05-.049.231.198.704h-.666a.167.167 0 0 0-.091.014l-.272.697-.18-.443-.262.077-.181.254-1.102.432-.066.203.562.27c-.529.512-.859 1.074-1.552 1.16l-.859.341-.567.409-.271.031-.326.137a9.82 9.82 0 0 1-.118.095c-.414.391-1.219.276-1.407-.202l-.97.333c-.339-.192-.339-.192-1.466.067v-1.192c.614.647 1.153.703 1.688.165l-.42-.266a77.514 77.514 0 0 1-.174-.455l.421-1.545c.3-.165.425-.567.297-1.071-.08.031-.165.054-.247.082.082-.028.167-.051.247-.082v-1.113l.826-.236.169-.192-.017-.002.101-.294.159.263.084.482.241.514.272.996.145.117-.178.126-.039.223c.357.078.358.238.106.457-.158.119-.356.211-.463.366-.094.137-.087.344-.124.52l2.217-.781c-.095-.155-.186-.262-.233-.385-.148-.394-.477-.86-.093-1.192.287-.248.478-.479.623-.819.103-.243.358-.422.544-.628.601.53.601.53 1.781.491l.308.006c.103-.071.199-.156.31-.211.279-.138.6-.762.417-.914-.165-.137-.473-.103-.717-.144l-.026.127-.438-.288c-.067.055-.109.088-.15.124l-.448.395c-.051-.178-.104-.356-.153-.534-.048-.172-.092-.345-.158-.596l-.496 1.169-.249.022-.757-1.171-.322.035-.187.397-.254-.275-.164-.435-.634-.181c.442-.317.742-.562 1.076-.749.078-.043.269.115.408.181l.182-.009.465-.14c.019-.021.021-.044.005-.068l.085-.208.118.185c.153.043.304.093.459.126.255.054.486.162.709-.159.116-.168.455-.182.693-.266l.296-.274.833-.656.266-.584a.192.192 0 0 1-.074-.073l-.187-.195.515-.138.374-.593.108-.518-.039-.424c-.143-.04-.435.28-.408-.168a97.958 97.958 0 0 1-.161-.504c.067-.207.103-.432.211-.614.082-.139.256-.223.389-.332l.24-.042.369.002.141-.076.043-.073.073.084c.208.294.402.599.631.877.073.088.235.103.356.151-.002-.034-.009-.073-.016-.113.007.04.014.079.016.113.265.152.301.313.019.487a.219.219 0 0 0-.011.098c.251.253.392.482.189.881-.115.225.021.578.044.873-.006.389-.066.739-.557.784a.743.743 0 0 0-.049.075l.183.233.168.174-.23.155c-.25.175-.497.352-.745.528zm3.248 4.123l-.071-.298-.345.106c-.025.166.005.426-.086.478-.226.129-.506.163-.832.254l-.29.483-.238-.501-.399.067c-.389.28-.486.054-.512-.294l-.11-.23c-.073-.156-.177-.306-.206-.47-.015-.085.102-.194.159-.292l.152-.41-.01-.187.212-.379a.152.152 0 0 1 .105.004l-.021-.217-.138-.146.197.004.148.091.453-.026.287-.484.165.578.036.406-.025.294.742.556.4-.168.502-.597c.522-.446.977-.998 1.756-1.165-.531 1.031-.748 2.197-2.031 2.543zm5.802 21.197l-.327-.364.106-.244-.106.244.327.364zm3.228 8.149c-.062-.022-.177-.045-.177-.066.001-.097.034-.194.056-.291l.182.039-.061.318zm3.01-47.004s0-.001 0 0l-.206.041c-.413.181-.779.036-1.137-.165l-.026.034-.307.267-.619.177-.216.257-.214.187-.021-.187-.087-.052-.333-.185-.35-.125c0 .217.085.495-.309.429-.061.154-.146.445-.18.439a3.105 3.105 0 0 1-.858-.263c-.054-.027.023-.315.039-.483l-.336-.088-.207.098-1.015-.352-.641-.09-.688-.004-.232-.013-.189-.001-.224.455c.036.411-.313.432-.567.522-.031.011-.202-.208-.206-.325-.006-.148.091-.3.144-.45l.002-.183c-.198.107-.399.209-.594.322-.116.067-.224.221-.331.216-.592-.026-.563.292-.422.692l.211-.01.331-.014c.213.02.454-.013.627.081.103.056.1.31.144.474l.129.204.7.456.147.189-.313.139.005.442.091.248c0 .034.014.059.042.077-.156.552-.321 1.103-.456 1.66-.019.077.106.27.174.274.677.044.478.316.181.627-.003.003.04.051.062.078.099.016.197.037.296.056-.099-.018-.197-.04-.296-.056l-.324.224-.206.108c-.166.113-.349.209-.491.348-.055.053-.016.202-.019.307l-.014.23-.654.137-.376.073c.05.505-.434.103-.551.323-.046.112-.085.229-.128.343.043-.114.082-.232.128-.344-.56.275-.844-.228-1.188-.468-.229-.159-.039-.299.194-.298.318-.232.73-.394.648-.917-.008-.051.108-.121.166-.183l.029-.186-.095-.69-.634.112.634-.112.139-.539-.698-1.432.698 1.432.228-.091.205-.248.121-.502-.16-.07.484-.415a.407.407 0 0 0 .043-.086l-.273-.349h-.743l.421-.662.002-.33c-.517-.219-.159-.63-.204-.951-.018-.134.087-.325.025-.408-.357-.48-.003-.578.339-.726.275-.119.531-.284.82-.442-.308-.479-.596-.92-.329-1.405l1.224.658.232-.327c-.275-.281-.183-.503.113-.691l-.02-.21c-.141-.094-.273-.206-.424-.278-.173-.082-.363-.129-.546-.191.095-.128.185-.262.289-.383.057-.066.139-.11.209-.163l.007-.215c-.704.234-.822-.489-1.219-.755-.031-.02-.014-.185.032-.225.049-.044.169-.049.24-.023.336.123.667.263 1 .396l.004.006.001-.004.003.001-.003-.003.127-.641.306.124.526.159c.082-.18.118-.461.254-.523.554-.25.997-.58 1.136-1.062.469-.057.855-.122 1.245-.14.103-.005.285.118.307.211.083.353-.606.915-.952.8-.732-.243-.727-.242-.9.534-.046.207-.137.403-.208.604l-.093.242.088.651.616.802a4.654 4.654 0 0 0-.118-.005l-.055.737-.014.143-.293.529a.095.095 0 0 0-.045.07l-.001.461c.211-.065.45-.087.625-.205.263-.178.397-.097.516.141l.671.359.624-.264-.326-.512c.162-.304.336-.682.562-1.026.078-.119.303-.236.432-.211.504.098.814.83.605 1.324-.041.096-.033.212-.047.318l.523.066.243-.86.019-.274.022-.159-.278-.604c-.52-.095-.52-.095-.427-.369l.138-.138c.031-.753.317-.979.889-.7l.516.036a7.715 7.715 0 0 0-.025-.149l-.054-.324.142-.021.047.414.465.175.275.409.252.166.113.117c.326-.027.365.13.25.386l.126.582-.007.019a2.092 2.092 0 0 0-.001 0l-.453.095.091.229.537.367-.646.225v.825l.003.003.835-.218c.391.307-.158.402-.307.611zm4.369 41.892c.188-.053.279-.192.298-.43-.019.238-.11.377-.298.43zm3.056-8.874l-.049.335.049-.335c.069-.088.148-.171.222-.257-.074.086-.154.169-.222.257zm1.374-4.182l-.006.205.006-.205.255-.34-.255.34zm2.226 7.332c-.06.026-.16.058-.205.081.045-.023.145-.055.205-.081l.113-.032-.113.032zm.998-1.099l-.026.12.026-.12.351-.527-.351.527zm.644-46.505l-.337.371-.101.204-.016.187-.386-.054.081.112c-.19.154-.359.376-.576.443-.218.067-.557.13-.608-.283a.098.098 0 0 1-.016-.089c-.264.098-.522.218-.793.288-.301.077-.551.026-.499-.383l.171-.145a.066.066 0 0 1 .024-.074l.163-.366.004-.043.424-.51.119-.087.26-.372.219-.344.112-.198.201-.607.374-.603c.12-.074.254-.134.357-.227.077-.069.116-.181.172-.273l-.251-.14.356-.188.5-.189c-.14-.58.203-.916.618-1.215.115-.499.292-.958.784-1.216l.142-.278v-.001l.189-.113.217-.403.092-.202.003-.199.121-.068.21-.401.007-.007.848-.749c.012-.293.077-.547.434-.584l.007-.006.375-.52.108-.02a.127.127 0 0 1 .004-.086l.198.009c.293-.137.234-.694.72-.601l.207-.287.189-.019.027-.197.693-.289.145-.036.254-.209.607-.026.224.163c.059-.002.118-.007.177-.01-.059.003-.118.009-.177.01l-.091.388c-.111.205-.55.241-.321.621l-.002.003c-.176.319-.357.635-.527.957.17-.322.351-.639.527-.957l-.212.188-.002.003-.199.192-.494.618-.115.198-.003.002-.071.818-.179.145h-.002l-.498.641.015.034.015.162-.378.046-.003.383-.306.301-.103.205-.199.011-.092.091-.052.315-.36.288-.086.41-.019.194-.199.213c-.002.104.029.228.038.339-.009-.111-.041-.234-.038-.339l-.22.289-.146.343-.152-.013-.245.363-.445.726-.396.453-.094.058-.125.192.06.205-.081.168-.474.036-.521.912a6.5 6.5 0 0 1-.137.022c-.034.162-.04.339-.111.482-.083.157-.221.284-.334.424zm1.922 43.151l-.167-.086.167.086c.011 0 .022-.005.032-.007-.01.002-.02.007-.032.007zm.098-.02l-.266-.301.266.301zm.948-4.323l-.048-.025.048.025zm.609 1.449zm2.36-38.068l-.599.01-.105.196.105-.196-.304.05-.08-.35-.131-.391-.249-.101-.154.024-.315.636.315-.636-.403-.081-.1.034c-.316.176-.553.618-1.016.303l.196-.486.164-.174.141-.082-.213-.557.213.557.111.037.091-.107.397-.444.332-.359.28-.411.144-.163.723-.7.252-.162.409-.385.518-.189.196-.193.235-.283.008-.005.164-.025.288.017.311-.029c-.177-.378-.023-.668.318-.794.361-.133.522-.634 1.001-.52l.114-.095-.015-.124.098-.093.591-.215c.158-.096.317-.269.474-.267.28.004.459-.041.598-.307.032-.062.303 0 .464.005l.209-.008.809-.481.193-.133.303-.286a.101.101 0 0 1 .011.083l.299-.003.21-.288c.115-.009.234-.005.345-.031.447-.104.541-.02.47.432l-.003.004-.213.082-.21.306-.187.021-.183.11-.04.178-.389.207-.209.083-.194.123.027.104a.082.082 0 0 0-.055.055l-.196.029-.199.298a.387.387 0 0 0-.088.02c-.368-.439-.38.205-.606.198l-.134.193c-.306.251-.615.498-.915.755-.086.073-.147.175-.219.263l-.011.195-.949.408-.024.181-.081.116-.205-.009-.303.272-.153.061-.449.385-.146.024-.865.385-.106.198-.003.199a.152.152 0 0 0-.082.043l-.364.122-.346.274-1.142.959 1.142-.959c-.354.191-.719.363-1.057.578-.228.145-.419.349-.626.526l.249.1.131.391.08.35.304-.05c.203-.001.403-.004.603-.008l.408-.302-.408.302zm2.24.047c.35.106.501-.056.647-.302l.148-.157.79-.247c.085-.054.363-.335.471-.281.49.249.683-.225 1.016-.331l-1.366.046-.807.419c-.184.057-.367.122-.553.171.186-.049.369-.114.553-.171l.807-.419 1.366-.046.154-.01.493-.118.155.176.016-.136c.223-.036.455-.043.667-.113.38-.126.742-.304 1.121-.433.339-.115.61-.585 1.052-.222.406-.499 1.139.078 1.531-.464l.005.003.529.112.7.149c-.178.239-.252.446-.377.484-.366.111-.669.288-.999.486-.729.438-1.43.978-2.317 1.13-.284.049-.536.255-.815.357-.37.135-.764.211-1.125.364-.364.154-.864-.031-1.11.438-.019.036-.188-.01-.288-.012-.07-.001-.18-.017-.204.018-.336.506-.717.317-1.128.11-.396-.199-.815-.352-1.223-.528-.144-.062-.285-.132-.427-.199.176-.1.386-.314.518-.274zm5.91 13.147c.105.015.14.597.185.921.007.053-.143.117-.152.185-.103.817-.747 1.296-1.174 1.911-.138.199-.216.44-.322.662-.363.241-.744.458-1.083.729-.327.26-.822.313-.914.894-.033.21-.514.348-.788.522-.194.124-.391.244-.574.382-.443.335-.879.679-1.311 1.015-.585-.3-.684-.573-.443-1.177.043-.108.164-.251.13-.312-.3-.534-.02-1.048.034-1.566a.717.717 0 0 1 .195-.426c.432-.396.894-.758 1.331-1.149.167-.149.278-.361.445-.51.228-.203.486-.372.764-.49.136-.198.235-.446.418-.584.351-.266.758-.458 1.124-.706.181-.123.3-.343.486-.454.565-.338 1.105.078 1.649.153zm2.744-6.622c.372-.066.643.211.701.711l-.171.27-.168.237-.108.11c-.58.398-1.291.693-1.709 1.22-.566.714-1.376 1.041-2.017 1.611-.079.07-.176.125-.239.207-.257.338-.529.617-1.062.321.154.492-.11.664-.441.799-.492.2-.992.386-1.466.623-.229.114-.575.157-.56.554.003.068-.116.151-.193.209-.317.243-.631.493-.965.709-.109.07-.31.104-.411.048-.083-.046-.128-.258-.104-.378.088-.43.24-.849.313-1.281.043-.255-.007-.529-.034-.793a61.866 61.866 0 0 0-.189-1.665c-.032-.25-.093-.497-.167-.882l1.444-.781.41-.018c.114-.094.25-.285.339-.265.59.13.937-.361 1.413-.506l.327-.005c.235.375.391-.029.574-.07.942-.212 1.874-.464 2.816-.678.552-.127 1.112-.208 1.667-.307zm4.738-4.758c-.044.115-.226.248-.35.252-.88.028-1.541.605-2.32.88-.817.289-1.659.511-2.467.822-.326.126-.592.409-.885.62l-.171.004c-.267-.057-.522-.085-.64.245l-.001.001c-.629.184-1.263.353-1.887.555-.742.24-1.477.505-2.213.765-.355.125-.698.33-1.061.373-.218.026-.591-.136-.667-.312-.098-.227.014-.555.067-.833.034-.182.128-.353.186-.531.031-.095.014-.249.073-.285.77-.466.921-1.584 2.033-1.75.719-.107 1.384-.563 2.082-.84.163-.065.363-.036.546-.054.486-.047.971-.106 1.458-.138.186-.012.376.036.701.071.458-.462 1.152-.567 1.9-.46.017.002.04.015.049.008.61-.514 1.388.051 2.02-.314l.18-.017c.358.028.719.033 1.07.095.122.021.28.164.313.281a.93.93 0 0 1-.016.562z" data-color="3"></path>
        <path fill="#80A09F" d="M136.507 139.995c.091-.777.565-1.541.076-2.339-.034-.055-.036-.149-.017-.214.178-.608-.296-.844-.589-1.183l-.059.194h-1.614c.015.643-.669 1.432-1.456 1.684.023.148.118.352.055.434-1.889 2.457-3.272 6.467-3.135 9.595.028.626.125 1.25.193 1.874l-.041.208c.089.321.163.647.271.961.071.206.143.359.11.581-.752.454-1.036.84-1.863 1.275-.252.133-.388.408-.527.656a5.645 5.645 0 0 1-2.462 2.311c-.807.52-2.721 1.315-2.121 2.375.061-.014.109-.038.161-.06-.065.033-.129.069-.194.104-.083-.273-.439-.52-.078-.834-.296.145-.59.295-.888.434-.265.124-.537.236-.804.356-.083.037-.162.086-.233.124l.749.47-.079.185-1.062-.086.167.288c.866.083 1.713.126 2.594-.044.483-.093 1.054.228 1.576.393.347.109.629.38 1.062.136.168-.094.503.106.761.173.089-.389-.19-.401-.445-.422-.404-.032-.89.306-1.17-.305-.039-.086-.381-.028-.581-.047-.217-.021-.439-.031-.647-.089-.169-.048-.319-.16-.478-.244.15-.195.326-.572.444-.554.571.083.789-.409 1.176-.607.858-.44 1.719-.875 2.574-1.323a.488.488 0 0 0 .194-.24c.244-.613.651-1.031 1.264-1.327.343-.166.675-.528.822-.881.178-.428.436-.663.835-.818.106-.042.235-.116.279-.211.156-.335.279-.684.443-1.1l.403.423 1.009-.51c.033-.115.084-.229.096-.347.017-.165.004-.332.004-.499.148-.504.289-1.01.448-1.511.036-.113.113-.26.208-.299.923-.373.478-1.335.849-1.942.022-.036-.068-.128-.072-.195a1.166 1.166 0 0 1 .028-.328c.055-.239.129-.473.184-.712.056-.241.074-.492.15-.726.205-.632.432-1.257.649-1.884.015-.255.01-.514.052-.765.05-.303.14-.599.213-.898l.144-.179c.02-.306.046-.612.06-.918-.014.306-.039.612-.06.918.324-.182.658-.327.347-.818-.102-.162-.002-.46.025-.693z" data-color="2"></path>
        <path fill="#80A09F" d="M119.392 160.381l.081-.499-.068-.066.101-.083.036-.385.021-.458c-.132.2-.24.279-.523.149-.285-.131-.653-.135-.978-.109-.485.039-.96.187-1.445.229a83.15 83.15 0 0 1-3.154.202c-.261.012-.525-.078-.79-.093-.148-.008-.355-.011-.438.077-.324.338-.685.283-1.068.179-.119-.032-.244-.079-.362-.07-.86.061-1.719.133-2.699.212.492-.336.848-.594 1.219-.827.47-.295.955-.564 1.429-.853.44-.268.84-.651 1.316-.798.6-.185.877-.58 1.14-1.072.106-.198.303-.431.502-.484.977-.256 1.969-.455 2.954-.681.08-.018.201-.085.211-.145.07-.409.413-.447.708-.584.635-.294 1.253-.624 1.877-.94l-.125-.305-.005-3.855.026-.533.008-1.659-.001-.169.035-.253.022-.56.004-.174-.059-.599c-.089 1.148-.908 1.649-1.817 2.109-.432.218-.8.562-1.197.849l-.529.341c-.509.386-1.023.766-1.525 1.162-.276.218-.53.463-.794.696l-.006.008c-.42.439-.859.862-1.253 1.323-.195.228-.305.528-.454.796a.138.138 0 0 0-.046.072c-.169.32-.481.641-.478.959.005.737.162 1.473.256 2.198-.662.323-1.407.66-2.127 1.045-.631.338-1.242.716-1.845 1.103-.275.177-.507.42-.758.633l-.001.001c-.806.576-1.412 1.49-2.552 1.507-.022 0-.042.055-.063.084l-.429.023c-.069.051-.138.148-.206.147.068.001.137-.096.206-.147-.258-.066-.515-.184-.774-.188a39.525 39.525 0 0 0-2.41.044c-.33.016-.657.169-.983.16-.719-.02-1.446-.203-2.15-.127-.521.056-.883-.015-1.21-.388l-.086.185.047.147.16 1.779.094.739.022.235-.119.636c.792.229 1.623.32 2.33.822.832.591 1.701 1.13 2.562 1.68.132.084.303.12.462.146.59.098 1.215.094 1.767.294.901.326 1.734.779 2.733.873 1.341.127 2.65.586 4.023.377.752-.114 1.54.234 2.27-.188.073-.042.21.036.318.042.122.007.259.031.365-.012.365-.147.719-.319.913-.407l.409-.956c-.208-.344-.356-.795-.666-1.05-.385-.315-.729-.786-1.337-.755-.057.003-.111-.166-.187-.232-.085-.073-.187-.154-.292-.171a73.408 73.408 0 0 0-2.087-.313 44.624 44.624 0 0 0-1.589-.18c-.339-.033-.687-.012-1.019-.075-.683-.128-1.357-.3-2.038-.44-.065-.013-.15.076-.226.117l-.219-.007c-.053-.047-.117-.143-.156-.133-.599.143-1.05-.398-1.706-.295-.5.079-1.087-.179-1.647-.02-.369-.045-.659-.417-1.094-.228-.278.121-.586.172-.88.256-.537.153-1.042-.094-1.285-.668.531 0 1.042.014 1.55-.009.134-.006.263-.127.394-.196a.142.142 0 0 0 .076-.047c.334.074.679.24.998.199.459-.059 1.029.197 1.361-.359a.125.125 0 0 0 .068-.044l.017-.063-.017.063c.155.05.306.117.464.147.304.057.679.223.904.108.443-.226.794-.141 1.195.027.085.036.231-.075.348-.118a.12.12 0 0 0 .07-.039c.175-.042.349-.118.524-.122.806-.018 1.612.004 2.417-.025.997-.036 1.983.097 2.974.148.094.005.194-.118.292-.182l.392-.052c.178.033.356.096.533.091.376-.01.752-.056 1.128-.088l.165.086c.314.314.336.039.382-.188l.556-.005.355.269.077-.276.443.014c.19.176.226.589.691.315.167-.099.522.125.793.189.027.007.074-.069.112-.106l.189-.044c.096.04.219.054.282.124.172.188.288.438.483.593.384.306.807.564 1.213.841.016-.38.039-.76.046-1.14.005-.251-.102-.549 0-.743.171-.333.047-.539-.147-.77z" data-color="2"></path>
        <path fill="#80A09F" d="M120.941 151.931l.014.696.417-.704.548-.539 1.428-.775.112-.245c.142-.071.327-.108.416-.22.177-.225.302-.492.448-.742l.332-.124.369-.523.105-.104c.066-.031.138-.053.196-.095.792-.584 1.237-1.429 1.733-2.244.181-.298.464-.496.247-.905-.14-.264-.193-.574-.291-.879a3.72 3.72 0 0 1-2.571.54c-.223.094-.477.149-.664.292.186-.143.44-.197.664-.292-.151-.066-.314-.205-.451-.184a7.747 7.747 0 0 0-1.198.3c-.117.038-.198.191-.295.292a.122.122 0 0 0-.073.028c-.239-.069-.497-.256-.661.113l-.004.001-.909.185.028.357c0 .597-.008 1.195-.001 1.792.016 1.324.04 2.652.061 3.979z" data-color="2"></path>
        <path fill="#80A09F" d="M93.643 160.346l.164-.07.019-.16-.226-.065-.31.047c-.341-.084-.678-.19-1.023-.241-.169-.025-.374.119-.528.073-1.475-.446-3.88-.286-5.475-.442-.41-.04-.842-.077-1.22.093-.419.19-.402.72-.771.899-.393.191-.997-.242-1.489-.001-.108.053-.268.101-.367.06-.94-.391-1.965.091-2.903-.289-.029-.011-.072.006-.106.017-.378.128-.752.255-1.138.009-.025-.016-.142.11-.217.171-.109.008-.218.028-.327.024-.822-.032-2 .229-2.274-.512a.47.47 0 0 0 .21.081l.001-.002 1.087-1.141.577-.382c.197-.148.401-.287.59-.445.696-.58 1.349-1.221 2.094-1.729.387-.264.949-.257 1.402-.444.426-.175.952-.141 1.217-.697.185-.39.566-.688.866-1.022.594-.66 1.192-1.316 1.788-1.974a.064.064 0 0 0 .02-.052c-.091-.531.22-.777.662-.929a.205.205 0 0 0 .051-.072c.308-.602.601-1.212.93-1.802.253-.453.574-.87.82-1.327.091-.169.052-.407.079-.671.781-.323 1.068-1.106 1.334-1.869.28-.803.462-1.639.701-2.456.06-.206.173-.397.261-.595-.508-.31.072-3.303-.424-3.629-.097-.064-1.975 2.155-1.802 2.361-.098.038-.382.056-.48.2-.478.701-1.367.826-1.911 1.404-.463.491-1.238.508-1.578 1.231-.154.328-.366.628-.589.923h-.001v.001c-.241.318-.497.631-.715.963-.209.319-.303.712-.506 1.035-.306.485-.757.898-.977 1.414-.374.877-1.047 1.592-1.294 2.534-.189.721-.449 1.425-.677 2.136a.134.134 0 0 0-.044.07c-.28.395-.496.775-.377 1.32.086.392.079.886-.093 1.233-.217.437-.584.86-.992 1.131-.904.6-1.489 1.458-2.117 2.293l-.159.183c.079.099.03.238-.009.374-.001-.099-.01-.189.01-.311-.488.641-1.353.844-2.151.963a24.574 24.574 0 0 1-5.812.171c-1.306-.117-2.6-.339-3.892-.561-3.272-.561-6.303-.641-9.6-.641-.103-.402.351-.397.587-.53 1.007-.571 2.072-1.051 2.846-1.957l.193-.153c1.204-.213 2.097-.889 2.803-1.856 1.953-2.675 1.74-5.672 4.751-7.441.447-.263.848-.605 1.3-.856.335-.186.785-.47 1.072-.375.548.181.909.082 1.319-.254.164-.134.437-.138.662-.193.139-.034.319-.005.416-.084.663-.541 1.262-1.176 1.978-1.63.39-.248.846-.398 1.184-.747.042-.043.177-.03.255-.002.713.209 2.917-3.827 3.328-4.305.437-.509 1.126-.861 1.013-1.714-.02-.154.181-.334.273-.506.088-.165.188-.329.245-.505.133-.407.244-.821.33-1.118l.915.271v-.542h-1.238l-1.842-1.142c.256-.69-.203-1.498-.92-1.676l.874 1.334-.66.627-.306.243c-2.532 2.018-4.091 4.32-6.161 6.636-.558.625-.833 1.36-.982 2.155-.065.346.028.743-.108 1.047-.132.294-.458.507-.715.737-.078.07-.211.077-.32.112-.014-.112-.056-.228-.038-.334.047-.274.15-.54.174-.815.032-.361-.025-.731.02-1.089.06-.476.199-.941.274-1.415.077-.49.112-.987.176-1.479.083-.639.516-1.215.379-1.89-.072-.356-.277-.691-.316-1.047-.095-.857.334-1.752-.191-2.583-.029-.046.017-.139.028-.21.047-.299.128-.597.133-.897a7.032 7.032 0 0 0-.089-1.083c-.02-.145-.176-.287-.161-.418.092-.79-.478-1.328-.75-1.973-.146-.348-.527-.425-.937-.495-.333-.057-.538-.095-.75.162-.183.222-.456.419-.528.673-.162.573-.23 1.173-.327 1.763-.54 3.292.081 6.551-.181 9.81-.045.562-.028 1.065.123 1.59.606 2.103-2.997 5.827-3.36 7.975-.085.503-.102 1.023-.276 1.503-.292.801-.982 1.382-1.661 1.899-2.13 1.618-4.473 2.918-6.833 4.159-.51.268-1.016.629-1.562.718-.596.098-1.103.315-1.616.583-.081.042-.198.009-.295.028-.259.051-.663.032-.746.186-.559 1.026-2.456.908-3.422 1.001-.361.035-1.845-.149-2.077.169-.403.553.083 1.422.837 1.455.552.024 1.11.04 1.651.138.423.076.944.033 1.124-.194.637-.8 1.671-.114 2.317-.722.02-.019.099.034.152.038.617.045 1.233.093 1.851.126.268.014.547-.047.807.003.864.165 9.117-.14 8.743.811.091-.232.113-.317.155-.389.069-.117.153-.225.23-.337.031.131.042.271.097.39.057.125.14.308.241.33.315.068.644.07.967.102.229.023.458.053.773.09-.13.279-.254.437-.264.602-.008.122.131.253.204.38.097-.076.24-.133.282-.232a.623.623 0 0 1 .889-.314c.403.218.785.479 1.199.67.51.236 1.045.42 1.569.626.284.62.812.998 1.459 1.34.468-.101.798.16 1.038.735 1.012 2.461 2.886 4.58 4.833 6.562.348.354.806.732 1.285.599l-.181.48c.922.63 1.869 1.134 2.805 1.695.247.142.457.346.698.5.128.082.284.127.434.168.363.099.727.197 1.096.273.173.035.405.084.521.002.099-.07.107-.323.09-.489-.042-.412-.122-.821-.187-1.231a.16.16 0 0 0-.053-.078c-.066-.067-.156-.131-.231-.196.076.066.165.129.231.196-.501-2.162-.824-3.607-2.096-5.433-.441-.633-1.095-1.349-1.838-1.138-.285.081-2.623-1.423-2.858-1.624-.071-.06-.228-.123-.279-.088-.357.243-.589-.009-.871-.161-.45-.242-.925-.439-1.389-.655a.155.155 0 0 0-.078-.05c-.272-.27-.521-.732-.822-.769-.565-.069-.843-.357-.995-.619-.874-.39-1.661-.645-2.33-1.081-.337-.219-.563-.404-.946-.235l-.327-.135c.104-.157.18-.346.317-.464.231-.2.46-.147.46-.5 1.489 1.525 5.058-1.073 5.971-.123.322.335.649.06.874.153.498.206.829-.071 1.233-.16.132-.029.31.154.518.267.35-.341.788-.499 1.299-.23.019.01.078-.057.125-.087.721-.476 3.358.062 4.3.052 2.438-.026 4.981-.442 7.266-.432l.215.001c.383.119.764.327 1.151.34.974.032 1.952-.019 2.928-.05.106-.003.21-.093.315-.143l.35.02.456.173.207.033.566-.025.23-.537.044-.314-.052-.977-.198-.088zm-8.295-16.918l-.021.021-.04-.062.061.041zm-3.244 9.451c.432-.429.852-.871 1.305-1.277.464-.416.67-1.055 1.25-1.384.118-.067.067-.428.095-.657.528-.018.838-.342 1.042-.995.104-.331.197-.726.659-.827.208.462.019.8-.242 1.119-.704.864-1.462 1.689-2.099 2.6a8.95 8.95 0 0 1-1.774 1.895c-.086.068-.104.222-.223.496-.174-.237-.383-.397-.378-.55.004-.143.229-.285.365-.42zm-5.471-15.317l.06.069c-.028.015-.054.033-.083.043-.005.002-.033-.031-.03-.038.013-.026.035-.049.053-.074zm-10.459 6.043c-.018.024-.039.046-.052.072.013-.026.034-.048.052-.072zm-1.679 1.528zm-15.598 16.489c-.075-.04-.119-.137-.176-.211.069-.044.136-.12.207-.124.079-.004.161.058.308.119-.21.138-.305.234-.339.216zm.282-.544c.551-.108.478.211.484.48l-.484-.48zm4.444-1.615c-.062-.071-.131-.138-.178-.218-.007-.013.085-.084.161-.156.064.099.129.163.141.236.007.037-.08.091-.124.138zm38.87.675c-.071.066-.163.173-.227.226.064-.053.156-.16.227-.226z" data-color="2"></path>
        <path fill="#80A09F" d="M51.222 75.448l.187.144-.187-.144-.023-.325.023.325z" data-color="2"></path>
        <path fill="#80A09F" d="M51.337 76.766l-.001-.327.001.327.185.36-.185-.36z" data-color="2"></path>
        <path fill="#80A09F" d="M51.212 76.216l.002-.438a63.95 63.95 0 0 0-.002.438l.533-.344-.533.344z" data-color="2"></path>
        <path fill="#80A09F" d="M82.583 116.506c.489-.756 1.283-.835 2.107-.724.144.019.285.058.428.088a.27.27 0 0 0 .094.007l.238.209.549.662c.293.886.103 1.683-.445 2.414l-.107.106-.245.213-.192.018c-1.245.312-1.919.014-2.465-.774-.501-.718-.417-1.517.038-2.219z" data-color="2"></path>
        <path fill="#80A09F" d="M75.7 115.652c-.106-.087-.225-.159-.397-.28-.072.348-.094.635-.192.893-.383 1.015-1.115 1.496-2.216 1.373.027.033.05.075.076.111-.025-.036-.049-.078-.076-.111l-.219-.012-.981-.571a.213.213 0 0 0-.011-.087l-.21-.241a.202.202 0 0 0-.007-.088c-.035-.122-.073-.243-.104-.366-.237-.924.042-1.693.841-2.285.417-.31 1.51-.428 2.21.11.11.084.24.143.429.255.067-1.059.552-1.789 1.466-2.216l.219-.016c.088-.093.162-.244.266-.268-.104.023-.178.174-.266.268l1.433.233.001.001.542.456a.331.331 0 0 0 .011.094l.335.765.007.222c-.053 1.16-.476 1.792-1.414 2.096-.638.205-1.221.09-1.743-.336z" data-color="2"></path>
        <path fill="#80A09F" d="M76.1 102.915c.967-.178 1.7.241 2.146 1.042.295.529.403 1.163.565 1.758.012.044-.21.17-.336.23-.163.078-.381.084-.504.198-1.2 1.11-2.596.919-3.417-.48-.027-.045-.071-.08-.108-.119l-.016-.218c-.025-.01-.057-.017-.084-.025.028.009.06.015.084.025-.006-.671-.01-1.339.572-1.833.103-.087.156-.233.232-.352a.189.189 0 0 0 .085-.008c.26-.075.516-.169.781-.218z" data-color="2"></path>
        <path fill="#80A09F" d="M75.169 95.233l.316.574.037.292-.037-.292-.316-.574z" data-color="2"></path>
        <path fill="#80A09F" d="M72.893 96.917c.462-.06.955.109 1.434.174.028.01.056.012.085.007l.241.219.437.539.106.225.024.214.088.225.008.215-.002.439-.014.399-.212.362.003-.002-.223.226-.76.548-.225.102-.435.024-.331-.001-.328-.015a43.549 43.549 0 0 1-.332-.115l-.53-.329-.232-.233-.115-.199-.216-.439-.02-.218c-.068-.127-.153-.251-.227-.377.074.126.159.25.227.377.004-.164.009-.327.01-.491.006-.999.565-1.748 1.539-1.876z" data-color="2"></path>
        <path fill="#80A09F" d="M69.201 91.145c.846-.343 1.919.036 2.384.828.37.631.405 1.269.092 1.927l-.115.301-.686.856-.186-.189-.546.124c-1.256-.029-1.974-.546-2.228-1.603-.228-.948.282-1.837 1.285-2.244z" data-color="2"></path>
        <path fill="#80A09F" d="M71.074 100.402c-.053-.151-.096-.311-.155-.457l-.003-.442.003.442c.058.146.102.305.155.457z" data-color="2"></path>
        <path fill="#80A09F" d="M69.789 97.967l.132.553.012.033-.013-.033-.131-.553-.193-.258-.472.583.472-.583.109-.292-.109.292.193.258z" data-color="2"></path>
        <path fill="#80A09F" d="M69.815 96.982l-.109.215.109-.215z" data-color="2"></path>
        <path fill="#80A09F" d="M67.715 102.379c.054 1.321-.847 1.903-1.938 1.933-1.053.029-2.032-.939-1.987-1.994.04-.942.803-1.98 2.046-1.937 1.08.039 1.882.862 1.879 1.998z" data-color="2"></path>
        <path fill="#80A09F" d="M67.052 96.26c-.065.811-.537 1.363-1.236 1.671-.674.298-1.38.202-1.957-.279-.601-.501-.857-1.164-.712-1.956.179-.978 1.005-1.674 2.151-1.575l.328.015c.262-.061.453-.154.587-.308-.134.154-.325.247-.587.308.972.377 1.512 1.041 1.426 2.124z" data-color="2"></path>
        <path fill="#80A09F" d="M62.108 83.027l-.068-.549-.145-.221.145.221.068.549z" data-color="2"></path>
        <path fill="#80A09F" d="M61.875 76.983l-.098-.334c-.068-.214-.146-.425-.201-.642.054.217.133.428.201.642l.098.334z" data-color="2"></path>
        <path fill="#80A09F" d="M61.782 84.787c.009-.125.023-.25.025-.375.004-.23.001-.46.001-.69l.125-.027.307.399.785-.301h.384c.38-.028.762-.086 1.141-.078 1.163.026 2.167 1.552 1.759 2.652-.436 1.177-1.315 1.589-2.787 1.283.088.638.53 1.273-.006 1.955-.111-.181-.276-.327-.28-.478-.017-.681-.231-1.306-.482-1.924l-.312-.662-.034-.324c-.218-.036-.437-.069-.574-.174.137.104.356.138.574.174l.16-1.843c-.402.053-.226.824-.796.633l.01-.22-.466-.169.466.169z" data-color="2"></path>
        <path fill="#80A09F" d="M60.847 94.611c-.358.328-.835.542-1.286.746-.17.077-.417-.028-.629-.034-.302-.009-.604-.003-.906-.003l.021.216.035.265a24.024 24.024 0 0 1-.035-.265l-.021-.216-.389-2.576-.283-.35c.088-.057.205-.094.261-.174.569-.811 1.352-1.044 2.304-.853-.082-.307-.17-.597-.232-.892-.016-.078.045-.172.07-.258.08.046.215.078.23.139.071.299.117.605.157.91.047.357.308.424.694.214l.255.812.224.624c.104.638.007 1.258-.47 1.695z" data-color="2"></path>
        <path fill="#80A09F" d="M60.777 76.592l.229.065.219.108-.219-.108-.229-.065z" data-color="2"></path>
        <path fill="#80A09F" d="M55.567 73.201l-.414-1.701.414 1.701z" data-color="2"></path>
        <path fill="#80A09F" d="M54.631 100.821c-.115-.164-.102-.275-.029-.364-.072.089-.086.2.029.364l.209.441-.209-.441z" data-color="2"></path>
        <path fill="#80A09F" d="M54.841 81.392l-.113-.224.113.224z" data-color="2"></path>
        <path fill="#80A09F" d="M55.047 81.247l-.209-2.309c-.221.013-.307.103-.337.22.03-.117.116-.206.337-.22.12-.669 1.098-1.154 1.907-.945 1.009.26 1.832 1.322 1.556 2.284-.146.51-.649 1.083-1.136 1.292-.675.29-1.517.447-2.118-.322z" data-color="2"></path>
        <path fill="#80A09F" d="M56.616 87.084l-.182-.359-.069.359c-.52-.046-.337-.466-.403-.753l-.03-.225-.004-.337-.092-.228-.024-.205c-.044-.051-.112-.116-.166-.173.054.057.122.122.166.173l.107-.658.899-.78 2.174-.3c.187.298.345.536.488.782.666 1.142.298 2.085-.574 2.929a.447.447 0 0 0-.103.013l-.245.199-.192.002-.78-.002-.293-.005-.253-.202-.424-.23z" data-color="2"></path>
        <path fill="#80A09F" d="M57.357 95.673l-.464-.921-.079-.843-.015-.244.015.244.079.843.464.921z" data-color="2"></path>
        <path fill="#80A09F" d="M60.643 105.113c-.169.021-.326.144-.488.22l-.33-.672.088-.067-.611-1.16c-.261.474-.658.745-.715 1.216l-.086.181c-.118-.295-.399-.334-.653-.419-.029-.01-.065-.052-.068-.082-.062-.697-.23-1.406-.153-2.088.111-.982.866-1.579 1.681-2.018.672-.362 2.205.107 2.734.727 1.295 1.515.49 3.93-1.399 4.162z" data-color="2"></path>
        <path fill="#80A09F" d="M62.01 109.107c-.176-.916.012-1.72.724-2.382.23-.214.385-.51.516-.689.262.026.489.088.705.062 1.241-.148 2.405.373 2.796 1.45.04.109.262.142.378.237.092.075.151.19.225.287l-.291.195c.153.11.216.23.232.355-.016-.125-.079-.245-.232-.355l-.441 1.562-.45.643-1.138.57.362.459.031.194-.43.209c-.116.088-.247.162-.343.268.096-.106.227-.18.343-.268-.074-.8-.125-.85-.876-.871-.94-.028-1.916-.909-2.111-1.926z" data-color="2"></path>
        <path fill="#80A09F" d="M66.028 111.556c-.031-.013-.068-.044-.09-.035.022-.009.059.022.09.035z" data-color="2"></path>
        <path fill="#80A09F" d="M65.415 113.021a7.38 7.38 0 0 1-.151-.086c.05.029.1.059.151.086z" data-color="2"></path>
        <path fill="#80A09F" d="M68.064 117.188l-.02.214.02-.214c-.153-.146-.305-.292-.459-.436-.13-.121-.262-.24-.393-.359l-.21.204.608.804-.329.123-.442-.003-.879-.226-.187-.014h-.001l-.912-.974h.001l-.425-1.131v-.433l-.473-.167.296-.477.147.022c.088-.133.17-.27.256-.404-.086.134-.169.271-.256.404l.158.255.851-1.356.001-.002h-.001l.103-.556c.07-.023.157-.085.208-.063.158.069.302.17.452.258l1.649-.074.224.097c.162.24.318.358.455-.018l.433.118.317.776.116.444c.038.434.09.867.11 1.301.029.622-.693 1.777-1.418 1.887z" data-color="2"></path>
        <path fill="#80A09F" d="M69.261 108.428l-.213-.029-.447-.43-.241-.335-.373-.227.374.227a61.302 61.302 0 0 0-.215-.328l-.121-.552a.819.819 0 0 1 .001 0l.101-1.209.017-.226.118-.213.778-.887.874-.341.239-.509.43.091.008-.008.213-.104-.213.104-.008.008 1.542.889.101.102.544.685.015.191c.019.444.138.913.032 1.325-.138.534-.454 1.022-.694 1.53l-.437.244c-.191.34-.482.412-.797.418.315-.006.605-.078.797-.418l-1.117.41h-.191c-.372-.138-.744-.273-1.117-.408z" data-color="2"></path>
        <path fill="#80A09F" d="M70.542 109.799c-.031-.013-.068-.044-.089-.035.021-.009.058.022.089.035z" data-color="2"></path>
        <path fill="#80A09F" d="M72.738 123.64c-1.144-.272-1.746-1.223-1.516-2.391.021-.106.016-.218.024-.326a.189.189 0 0 0 .009-.088l.208-.242a.26.26 0 0 0 .01-.092l.572-.544.191-.02c.881-.305 1.666-.213 2.337.503.628.67.722 1.535.219 2.409-.374.649-1.243.983-2.054.791z" data-color="2"></path>
        <path fill="#80A09F" d="M76.198 129.723c-1 .061-2.088-1.03-2.007-2.009.095-1.164.836-1.963 2.028-1.957 1.083.006 1.859.806 1.858 1.916-.002 1.173-.799 1.984-1.879 2.05z" data-color="2"></path>
        <path fill="#80A09F" d="M78.746 125.498c-.417-.171-.772-.522-1.099-.847-.055-.054.18-.398.345-.582-.136-.828.033-1.613.596-2.276.714-.841 2.013-1.073 2.998-.585a2.408 2.408 0 0 1 1.294 2.71c-.101.463.099.732.25 1.072l.001.001.235.213.11.759.394.006-.087.227.483 1.071c.119.014.239.022.355.047.041.009.073.06.109.092l-.163.106-.023.219c.321.213.646.42.956.647.042.031.046.2.003.247-.209.227-.439.433-.589.578l-.679-1.257c-.415-.211-.778-.464-.863-.972a.862.862 0 0 0-.15-.341c-.315-.447-.64-.886-.962-1.328-1.124.887-2.33.68-3.514.193z" data-color="2"></path>
        <path fill="#80A09F" d="M84.896 134.046c-.69.179-1.679-.24-2.041-.863-.477-.823-.362-1.797.314-2.456.141-.137.347-.206.523-.307l-.207-.117-.695-.964c1.049.015 1.37.212 1.448.782l.315.05c.696-.265 1.083.313 1.574.589.212.119.378.321.542.465-.04.282-.113.577-.118.873-.018 1.018-.556 1.664-1.655 1.948z" data-color="2"></path>
    </g>
</svg>