<svg preserveAspectRatio="xMidYMid meet" data-bbox="34.069 53.611 137.035 93.765" xmlns="http://www.w3.org/2000/svg" width="200" height="200" viewBox="34.069 53.611 137.035 93.765" data-type="color" role="img" aria-labelledby="svgcid-be8p7p-yon94c"><defs><style>#comp-jy5l31nb svg [data-color="1"] {fill: #A8B8AE;}
#comp-jy5l31nb svg [data-color="2"] {fill: #FFB84D;}
#comp-jy5l31nb svg [data-color="3"] {fill: #285A5B;}</style></defs><title id="svgcid-be8p7p-yon94c">Home</title>
    <g>
        <path fill="#80A09F" d="M151.996 141.937c-.354.028-.766.022-.989-.254-.014-.017-.014-.041-.025-.059-.384.161-.793.221-1.191.275a3.41 3.41 0 0 1-1.834 1.107c-1.227.276-2.502-.004-3.728-.283-.122.808-1.27 1.232-1.888.696.845-2.497.737-5.203.618-7.837l-1.014-22.556c-9.493.84-19.049.955-28.559.345 1.12.449.917 2.465-.269 2.682l1.734-.518c-.915 1.307-.746 3.055-.573 4.641a113 113 0 0 1 .313 21.225c.34-.308.674-.624 1.001-.946l.11 2.267c-.534-.156-1.129.413-.997.953-.449.213-.949.432-1.428.297-.479-.134-.796-.817-.421-1.145l-.938 1.139c-11.628.041-23.256-.096-34.88-.411.725-.604 1.694-.807 2.62-.991l-4.307.32-2.215.164-22.969-1.617.002.036-.002-.036-1.305-.092c.03-.24.041-.482.064-.722l-.292.062-.022 1.24-14.54-.014c-.113 1.881 2.537 2.38 4.417 2.254 5.618-.376 11.257-.163 16.883.05l35.078 1.328c4.697.178 9.466.368 13.93 1.839a5.513 5.513 0 0 1 4.293-.822c.489.111.968.291 1.469.306.495.015.979-.132 1.458-.258 4.646-1.219 9.544-.528 14.344-.362 6.258.217 12.507-.473 18.731-1.162l3.924-.434a34.512 34.512 0 0 1 12.147-2.105c-2.448-1.722-5.765-.84-8.75-.602zm-37.17-22.347c-.013.024-.189-.039-.245-.052l.141-.828.089-.06c.079.131.227.264.222.391-.008.187-.114.376-.207.549zm.106-1.021l-.146-.475.506-.242c.304.443-.224.464-.36.717zm-43.34 24.617l.003-.023.022.015-.025.008zm2.175.009c-.025-.013-.038-.056-.048-.089-.002-.006.044-.038.058-.033.03.01.054.038.1.075-.053.025-.093.057-.11.047zm3.052.079l-.023-.015.026-.009-.003.024zm26.673 3.525a.128.128 0 0 1-.072-.082c-.004-.019.054-.074.062-.07.044.022.082.058.147.109-.069.024-.109.051-.137.043zm13.847-30.758c.302.005.515-.355.936-.356.291-.001.487.043.719.21.169.122.423.164.641.172.655.024 1.311.02 1.967.011.15-.002.298-.083.448-.092.126-.007.255.038.383.06l-.07.391c.477-.157.933-.706 1.489-.337l.3.384c.097-.094.19-.262.293-.269.456-.029.916-.012 1.374 0 .003 0 0 .177 0 .338l.801-.181c-.097.588.391 1.19-.147 1.803-.131.149-.06.473-.088.716-.03.264-.067.528-.103.803-.305.009-.43-.005-.334.414.107.461-.091 1.003-.502 1.372-.071.064-.152.116-.233.176.394.331.393.563.047 1.024-.185.247-.329.524-.512.773-.089.121-.223.208-.377.347.357.794-.472 1.152-.704 1.764.025.357.094.702-.34.977-.164.104-.183.435-.306.762l-.674-.423c.407-.395.338-.514-.369-.853-.206-.448-.048-1.051-.67-1.266-.061-.021-.062-.182-.117-.26-.074-.107-.154-.238-.263-.286-.523-.23-.707-.685-.836-1.184-.013-.05-.011-.132.02-.159.286-.252.084-.37-.119-.509-.084-.058-.137-.161-.203-.243-.336-.128-.345-.421-.359-.711l.117-.568c-.09-.066-.299-.163-.422-.325-.126-.166-.169-.395-.273-.661l-.472-.098.082-.056c-.082-.107-.181-.204-.241-.322-.07-.138-.106-.294-.155-.443-.041-.125-.038-.308-.122-.367-.384-.266-.413-.643-.341-1.032.059-.316 0-.527-.264-.599l-.001-.897zm5.832 11.3c0 .009.003.022-.002.027-.006.007-.018.009-.028.013l.003-.056a.382.382 0 0 0 .027.016zm-1.422 8.599l.341-.9c.292.301.186.601-.341.9zm-4.572-20.254c.043 0 .086.03.151.056-.048.057-.082.115-.094.11a.282.282 0 0 1-.115-.084c-.007-.007.037-.082.058-.082zm.959 23.663c-.088-.027-.2-.169-.197-.257.005-.107.119-.21.204-.344-.398-.175-.526-.465-.358-.883.036-.09.019-.252-.041-.321-.267-.307-.102-.599-.025-.91.057-.234.085-.486.068-.725-.02-.285-.138-.551.013-.848.113-.222.117-.454-.098-.691-.107-.117-.062-.4-.037-.602.057-.463.341-1.013.177-1.361-.288-.613-.234-1.225-.304-1.835-.037-.329.062-.673.102-1.01.01-.08.064-.213.038-.229-.321-.21-.156-.553-.246-.798-.157-.425-.084-.819-.085-1.227 0-.208.026-.416.046-.701l-.345-.324c.496-.005.617-.147.388-.571-.07-.129.163-.422.257-.639l.139-.011-.557-.796v-1.015c-.015.006.026-.019.033-.011.316.338.757.633.903 1.034.126.345.164.749.326 1.104.034.075.091.209.124.205.441-.055.451.448.756.583.111.049.114.317.189.474.301.628.613 1.251.917 1.877.043.088.121.207.093.274-.31.745.355 1.009.682 1.445.092.123.121.304.143.464a.97.97 0 0 1-.03.408c-.035.116-.107.281-.198.308-.336.1-.307.319-.178.525.18.289.142.465-.138.666a.634.634 0 0 0-.22.491c.054.496-.298.719-.573 1.009a.992.992 0 0 0-.251.405c-.04.157.017.336.004.503-.037.486-.087.971-.139 1.533l-.548-.275v.644l-.319.297.058.08-.119-.016c-.384.248-.342.615.17.903-.488.189-.666.525-.571 1.007.009.039-.187.181-.253.161zm8.605 4.929c-.146.18-.268.134-.482-.032-.068-.052-.235-.054-.309-.006-.395.256-.602.092-.708-.302-.247.103-.465.251-.694.274-.231.023-.474-.077-.758-.132l-.012-.26c-.559.121-1.127.6-1.714.038-.297.358-.548.122-.788-.154-.154.344-.715.572-1.254.54-.22-.013-.447.044-.661.008-.217-.037-.46-.103-.623-.239-.216-.181-.108-.424.063-.598.228-.232.481-.441.718-.665.06-.056.131-.127.144-.201.066-.392.115-.786.171-1.179.006-.041.006-.091.029-.119.226-.276.457-.549.683-.818-.129-.722.166-1.173.736-1.222.119-.55.238-1.078.346-1.609.026-.129.016-.265.019-.398.006-.331.14-.398.542-.161-.284-.618-.164-1.079.316-1.397l-.087-.853c.517-.086.923-.076 1.175.366.06.104.103.218.148.33.078.195.157.39.227.589.051.145.076.301.135.442.101.239.221.471.356.755l-.182.427c.22.191.464.344.62.561.083.116.015.341.015.476.108.248.279.486.305.738.051.508.39.862.663 1.205.329.414-.063.48-.134.808l.53.418c.104.368.172.66.269.941.103.296.233.583.456.872-.083.189-.135.403-.26.557zm1.582-5.334l-.209.04-.195-.576c-.204-.102-.534-.182-.495-.605.007-.072-.17-.146-.22-.24a1.04 1.04 0 0 1-.102-.374c-.016-.164-.003-.331-.003-.497h-.535c-.016-.16-.047-.361-.053-.561-.008-.274.081-.548-.182-.785-.086-.078-.082-.344-.017-.473.045-.091.263-.095.466-.156l-1.439-1.22c.114-.431.09-.849-.306-1.201-.114-.101-.092-.343-.164-.507-.122-.28-.284-.543-.396-.826-.039-.097.025-.233.035-.352.016-.187.027-.373.041-.56-.576-.281-.548-.91-.093-1.592l.1 1.422c.069-.158.187-.312.199-.474.034-.483.254-.863.556-1.219.061-.072.068-.192.098-.29.076-.254.073-.623.243-.741.414-.285.322-.526.148-.724.194-.477.349-.894.532-1.298.153-.339.345-.661.506-.997.047-.098.098-.24.061-.323-.233-.515.071-.925.241-1.359.029-.075.165-.14.155-.192-.059-.323-.076-.608.176-.886.127-.14.141-.383.205-.579l.18.02c.028.267.089.535.075.8-.018.34-.106.676-.142 1.016-.009.086.063.181.069.196.038.355.047.631.102.897.051.246.149.454-.064.701-.096.112-.027.373-.018.566.012.253.024.507.06.757.048.331.118.658.188 1.036l-.295.312.122.175c0 .277-.021.466.004.649.054.385.138.766.194 1.151.01.07-.037.162-.084.225-.165.221-.301.437-.116.717.03.046.032.154-.001.192-.181.211-.043.35.072.524.268.405.219.644-.129.903.105.611.297 1.213.286 1.81-.011.583-.039 1.155.018 1.742.038.387-.193.794-.198 1.193-.005.407-.063.808.194 1.237.209.344.099.877.13 1.326zm1.02-21.032a14.26 14.26 0 0 1-.392-1.462c-.012-.06.224-.197.363-.255.173-.073.366-.101.585-.157.308.353.468.34 1.152-.159.269.108.566.364.773-.119.28.221.534.449.909.225l.103.509.493-.798.484.456c.127-.797.748-.542 1.201-.637.147-.031.316.07.476.071.129.001.299-.017.379-.098.17-.172.298-.213.503-.053.091.071.292.122.366.071.326-.227.623-.275.997-.087.122.061.353-.094.558-.158.135.195.24.485.626.263.09-.052.413.135.496.285.084.153.023.399-.008.599-.022.143-.101.277-.149.417-.058.172-.057.432-.174.506-.441.278-.436.713-.481 1.168h-.418l.058.582c-.295-.014-.277.267-.292.481-.016.243-.009.44-.339.479-.101.012-.218.22-.257.358-.115.41-.195.829-.289 1.245-.003.014.002.031-.005.042-.261.431-.525.859-.782 1.292-.033.056-.066.144-.046.196.209.537-.206.8-.491 1.107-.157.169-.338.896-.208 1.098-.085.069-.166.149-.261.207-.094.056-.201.089-.344.149l.295.455c-.704.333-.53 1.164-1.078 1.695-.081-.147-.163-.296-.247-.444-.127-.225-.246-.455-.385-.672-.325-.506-.662-1.004-.99-1.508-.017-.027.003-.08.009-.12.073-.511.073-.511-.283-.58-.196-.241-.337-.416-.48-.589-.034-.042-.099-.076-.106-.12a14.63 14.63 0 0 1-.107-.885c-.022-.253-.057-.267-.445-.138-.128-.38.327-.988-.466-1.123-.017-.216-.003-.445-.064-.652-.037-.126-.186-.223-.292-.325-.075-.072-.22-.12-.235-.198-.047-.247-.049-.504-.068-.757-.004-.055.012-.143-.015-.16-.425-.268-.256-.709-.34-1.08-.049-.216-.22-.405-.289-.622zm.769 16.265c.027-.135-.03-.301-.089-.436-.174-.399.059-1.047.466-1.235-.09-.158-.165-.327-.274-.471-.168-.224-.198-.394.082-.557.058-.034.076-.277.056-.285-.633-.258-.394-.767-.229-1.117.164-.35.102-.628-.085-.838-.293-.329-.157-.696-.202-1.042-.075-.574-.104-1.155-.142-1.733-.016-.247-.003-.496-.003-.803.092.065.147.108.206.144.202.124.393.279.611.36.281.104.543.451.455.739-.126.411.014.663.374.87.123.071.186.273.24.429.067.194.094.4.147.639l-.147.082c.149.095.302.164.418.273.243.229.512.451.687.728.293.463.255.918-.163 1.335-.07.07-.319.283-.083.485l-.376.312-.063-.076-.056.517.03.087-.083-.032-.409.476-.194-.052.274 1.143c-.214.167-.379.316-.29.727.09.414-.298.763-.702.99-.339-.501-.587-1.02-.456-1.659zm8.781 9.52c-.364.04-.728.141-1.076.262-.607.211-1.175.145-1.73-.151-.036-.019-.08-.022-.12-.033l.028.12c-.5.117-.996.263-1.502.343-.367.058-.748.031-1.123.032-.082 0-.185-.016-.242-.065-.301-.261-.501-.117-.682.192-.397-.382-.825-.134-1.243-.113-.162.008-.447-.003-.466-.068-.054-.184-.001-.399.014-.669l-.08-.739c.437.058.488-.117.519-.433.056-.573.203-1.137.323-1.702.037-.172.114-.334.182-.529l.478.135c-.061-.213-.081-.397-.165-.544-.115-.2-.105-.848.095-.951.653-.337.769-.901.725-1.552-.001-.02.034-.042.079-.095l.295.325c.378-.473.373-.556-.042-.82.122-.388.24-.781.372-1.169.025-.074.099-.173.165-.186.522-.104.617-.528.749-.94.05-.156.161-.292.263-.469l.57.633c-.214.258-.154.382.321.53l-.195.623c.178.068.479.099.642.266.22.225.346.548.488.84.239.493.452.998.69 1.491.105.217.057.623-.135.717.241.196.457.406.706.567.431.279.537.767.797 1.155.062.092.155.162.217.253.076.11.136.232.172.296.527.761 1.212 1.351 1.127 2.438-.394 0-.809-.035-1.216.01zm1.791-6.408c-.289.456-.333.92-.139 1.438.079.21.005.476.003.717-.002.179 0 .357 0 .536-.354.019-.769-.602-.634-.948.133-.342-.08-.695-.369-.922-.246-.194-.472-.506-.548-.807-.215-.84-.532-1.606-1.058-2.307-.207-.275-.532-.557-.456-.995.006-.033-.148-.093-.256-.157-.023-.388.095-.856-.317-1.223-.207-.183-.101-.384.226-.427-.263-.327-.524-.628-.756-.951-.127-.177-.248-.38-.294-.588-.064-.292.119-.461.513-.49.02-.388-.014-.799.074-1.183.103-.448.271-.894.496-1.292.076-.134.416-.118.669-.178-.106-.215-.267-.461-.336-.73-.024-.095.155-.282.281-.367.369-.247.562-.574.4-.937-.094-.21-.051-.32.041-.487.184-.334.352-.646.681-.897.231-.176.072-.482-.171-.584.167-.204.37-.39.491-.618.117-.221.196-.445.053-.751-.081-.173.168-.502.27-.76l.422-1.067c.382.29.282.522.138.799-.086.164-.068.386-.079.583-.008.151.014.303.016.468-.014.932.362 1.862-.226 2.768l.286.189v1.769l-.09-.004c.008.026.008.062.026.077.357.307.352.634.097 1.01a.53.53 0 0 0-.06.416c.258.712.264 1.445.236 2.186-.005.131.059.266.116.506l-.301.888.45.217c-.094.286-.216.622-.308.965-.03.113.019.247.031.371.038.395.314.808-.107 1.171-.04.034.02.2.052.298.049.152.117.298.173.448.104.28.225.541-.014.843-.064.081.054.422.181.513.231.164.222.298.097.494z" data-color="1"></path>
        <path fill="#80A09F" d="M150.124 109.463c.015 0 .031.006.046.006-.016 0-.031-.006-.046-.006l.04.038c.108.109.192.269.322.322.517.209.547.67.633 1.113.022.115.084.223.17.443l.597-.955c.168.043.369.113.576.145.339.054.742-.211.725-.494-.039-.623.159-1.316-.52-1.771-.124-.083-.142-.327-.208-.497-.173-.444-.585-.506-.969-.575-.037-.419-.076-.461-.62-.672.144-.243.13-.382-.218-.347-.186.019-.382-.07-.575-.096-.305-.041-.479-.151-.368-.507.024-.079-.069-.211-.136-.297-.074-.095-.181-.163-.272-.245-.496-.448-.8-1.124-1.541-1.289-.092-.021-.182-.161-.225-.266-.06-.147-.059-.318-.114-.468-.113-.31-.396-.645-.337-.91.093-.419-.136-.697-.221-1.031-.064-.252-.224-.479-.342-.72.393-.171.301-.356.083-.553-.252-.227-.394-.478-.179-.743l-.509-.962c.157-.077.406-.174.398-.2-.056-.205-.162-.396-.252-.591l-.15.051c.207-.49.271-.941-.33-1.234.067-.169.15-.329.192-.499a2.42 2.42 0 0 0 .08-.579c.002-.409-.835-1.262-1.028-1.888-.277-.896-.428-1.846-.617-2.764l-.377-1.834-.294-1.44c-.292-1.454-.483-2.926-.797-4.372-.146-.674-.305-1.345-.458-2.017-.352-.185-.633-.615-.56-.857l-.306-.322-.06-.075-.161-.133-.13-.131c-4.681-4.95-9.182-10.13-13.678-15.296-.703-.808-1.441-1.641-2.425-2.062-.903-.386-1.918-.384-2.901-.375l-51.902.469c-.828.008-1.704.002-2.412-.425-.392-.237-.764-.608-1.22-.565-.415.039-.709.41-.951.75l-7.61 10.699c-.885 1.244-1.773 2.493-2.49 3.841-1.548 2.91-2.251 6.182-2.936 9.406l-1.845 8.677c-.557 2.617-1.115 5.245-1.305 7.914-.106 1.491-.107 3.034-.701 4.406-.652 1.504-1.973 2.686-2.408 4.267-.435 1.581.906 3.755 2.416 3.116l.265 1.99c.551-.819.125-2.109-.806-2.44 9.469.138 18.934.482 28.388 1.033 3.042-.061 6.09.143 9.097.607.272.503 1.227.217 1.178-.352.645.937 2.207 1.029 2.956.173-.111-.199.284-.315.443-.152s.207.427.402.543c.132.079.296.068.449.056a51.019 51.019 0 0 1 10.045.204c.483.058 1.005.115 1.428-.125.236-.134.415-.348.589-.558l2.796-3.381c.798-.965 1.604-1.942 2.158-3.066.66-1.339.935-2.83 1.204-4.299l3.139-17.197c.292-1.597.587-3.207 1.192-4.713.766-1.906 2.002-3.58 3.224-5.231l8.936-12.067a665.481 665.481 0 0 1 7.143 8.146c1.162 1.352 2.375 2.663 3.419 4.13a1.688 1.688 0 0 1-.716-.26c-.266-.174-.513-.222-.789-.037.196.307.294.672.789.552.29-.071.612-.013.92-.013l.035-.146c.525.566 1.054 1.129 1.57 1.703.086.096.116.243.172.367.1.06.227.104.305.191.585.659 1.181 1.309 1.728 1.999.23.29.419.652.507 1.01.338 1.364.625 2.74.937 4.11.519 2.284 1.069 4.561 1.558 6.851.636 2.982 1.219 5.976 1.84 8.962.14.672.387 1.324.5 1.999.066.393.272.6.538.847 1.089 1.01 2.227 1.981 3.021 3.265.051.082.08.268.035.306-.037.031-.051.064-.074.096.09.056.18.107.276.148.269-.161.454-.025.629.149zm-44.796.038c-.205.07-.41.142-.698.243-.153.368-.295.88-.824 1.167-.161.088-.201.376-.339.535-.242.279-.521.525-.776.793-.176.185-.322.401-.511.571-.124.112-.293.183-.454.242-.24.088-.46.135-.322.497.096.253-.133.39-.445.358-.427-.044-.861-.024-1.287-.074-.149-.017-.284-.158-.45-.258-.538.291-1.091.252-1.672-.08-.162-.092-.459.054-.694.087-.359.05-.704.089-1.033-.164-.131-.1-.375-.037-.551-.097-.199-.068-.379-.191-.568-.29-.073-.038-.189-.124-.215-.102-.389.324-.842.027-1.262.139-.367.098-.774.082-1.159.058-.109-.007-.205-.221-.307-.34l.059-.147c-.228.047-.478.051-.68.15-.532.262-1.068.265-1.638.178-.194-.03-.417.178-.626.176-.238-.002-.475-.114-.711-.186-.21-.064-.447-.24-.619-.189-.702.208-1.371.004-2.055-.056a2.691 2.691 0 0 0-.949.116c-.422.121-.792-.018-1.176-.131-.065-.019-.162-.055-.2-.025-.342.268-.71-.048-1.057.056-.085.026-.189.005-.265.042-.261.129-.404.054-.454-.243-.299.02-.666.546-.889-.145-.471.246-.936.344-1.337-.109l-.001.002c-.15.067-.31.119-.448.205-.247.153-1.367.226-1.496.032-.208-.313-.401-.205-.62-.061-.274-.283-.676-.317-1.021-.104-.233.144-.438.178-.685-.046-.099-.09-.377.002-.57.036-.09.016-.207.155-.248.13-.423-.253-.86-.027-1.274-.008-.468.021-.903-.213-1.384-.069a2.49 2.49 0 0 1-1.072.07c-.336-.053-.649-.251-.972-.386l.002-.134-.422.317c-.379-.067-.741-.17-1.107-.184-.253-.009-.507.132-.765.154-.224.019-.454-.058-.681-.055-.261.003-.522.07-.782.067-.191-.002-.382-.07-.582-.111l.066-.418c-.04-.021-.069-.048-.085-.042-.285.109-.568.224-.853.333-.051.02-.135.047-.162.023-.468-.408-.956-.182-1.441-.056-.068.018-.157.066-.202.04-.664-.374-1.309-.213-1.997-.036-.256.066-.704.445-.977-.112-.033-.067-.369-.066-.499.012-.396.238-.738.103-1.124-.022-.244-.079-.552-.064-.804.005-.342.093-.621.161-1.001.026-.381-.135-.847-.03-1.307-.03l-.125-.266c-.199.085-.382.463-.592.002-.029-.063-.263-.07-.388-.043-.41.09-.814.211-1.221.314-.067.017-.15.03-.21.006-.484-.194-.967-.119-1.455-.021-.063.013-.143-.059-.215-.091l.163-.323c-.258.042-.596-.138-.638.328-.071-.008-.113-.001-.124-.016-.298-.435-.296-.433-.713-.093a.327.327 0 0 1-.219.066c-.268-.03-.534-.079-.88-.133.251-.184.486-.357.723-.528.022-.016.075-.017.076-.027.027-.535.505-.505.826-.683.101-.056.139-.225.21-.339.173-.282.408-.296.711-.154l-.139.347.102.035c.032-.135.058-.272.099-.405.071-.229.178-.449.221-.682.037-.203.008-.419.008-.724l.259-.109c-.011-.106-.036-.216-.031-.326.011-.238.143-.363.364-.241.379.208.748.329 1.199.264.184-.026.395.25.608.277.259.033.51.097.815-.042.344-.157.765-.136 1.195-.006.403.121.892-.081 1.312.171.011.007.056-.053.09-.072.344-.186.392-.162.504.259.424-.144.836-.43 1.306-.193.076.038.097.183.156.302l.718-.52.16.398c.152-.07.285-.166.431-.19.229-.037.466-.029.7-.032.128-.001.287.069.377.015.395-.236.722.004 1.079.094a.59.59 0 0 0 .448-.082c.345-.268.995-.324 1.387-.13.234.116.509.15.796.23.088-.525.368-.473.718-.268.081.047.212.003.319.015.163.017.4-.013.472.08.287.37.541.276.828-.026.22.318.391.144.656.054.295-.101.686-.454 1.041-.031.023.027.158-.039.264-.068v.322c.317-.045.624-.109.933-.129.387-.025.776-.014 1.164-.021.144-.003.319.037.425-.03.25-.158.454-.25.59.093.76-.277.76-.277.77.052.121-.051.24-.086.342-.148.293-.18.557-.372.659.191.037.203.669.17.879-.03.3-.287.933-.334 1.279-.116.092.058.245.099.337.063.583-.228 1.182-.233 1.79-.174.398.039.795.112 1.194.116.305.003.627-.033.911-.137.343-.126.568-.13.641.443l.242-.548c.269.088.545.183.825.265.086.026.238.057.266.019.247-.342.488-.166.795-.084.265.071.589-.079.791-.114.282.049.485.085.688.118.124.02.257.015.372.059.306.118.529.25.923.028.49-.276 1.116-.4 1.692-.029.07.045.226-.043.352-.071.261.572.61-.187.962.137.021.023.149.221.196.204.147-.054.264-.192.494-.474l.194.469.427-.204-.02.407c.091-.03.188-.033.239-.084.291-.291.663-.378.991-.194.444.249.816-.092 1.224-.038.281.037.566.046.925.074.138-.204.384-.195.656-.003a.497.497 0 0 0 .234.081c.674.058 1.349.118 2.024.156.164.009.332-.063.445-.086.231.027.42.055.611.07.408.032.817.071 1.226.079.301.006.605-.065.904-.045.611.04 1.218.169 1.833-.001.076-.021.189.093.211.104.214-.05.383-.122.55-.12.188.002.375.071.657.132l.056.204c.574-.504 1.249-.24 1.865-.327.121-.017.25.01.368-.016.211-.048.334-.029.411.22.087.273-.076.312-.256.374zm1.391-4.81c-.734.687-.382 1.38-.285 2.319.04.393-6.373.454-6.846.404-.113-.172-.346-.206-.551-.224-1.679-.148-3.159.21-4.821.102-1.51-.099-2.986-.529-4.496-.602a223.801 223.801 0 0 0-5.18-.174l.03.053-.065.028c-.013-.022-.036-.045-.033-.064.001-.007.01-.012.015-.019-.666-.017-1.332-.035-1.998-.05l-16.559-.383c-.595-.014-1.222-.036-1.732-.343-.076-.046-1.619.248-1.941.248-1.004.001-2.007-.113-3.013-.1a24.828 24.828 0 0 0-3.106.234.356.356 0 0 0 .058-.088c.165-.4-1.645.012-1.754-.027-.271-.095-.464-.184-.773.01-.236.148-.648-.014-.937.089-.31.111-.445.035-.496-.135-.249-.015-.436.011-.598-.042-.49-.159-.357-.584-.387-.979.338.05.463-.121.485-.421.006-.076.126-.137.154-.219.031-.09.045-.272.017-.282-.574-.216.271-3.558.593-3.964-.025-.151-.099-.206-.197-.306-.046-.047-.009-.247.041-.349.071-.146.25-.255.281-.402.116-.548.551-.618.956-.59.44.03.882-.109 1.334.116.328.163.751.177 1.132.182 5.325.061 10.596.949 16.002.913 5.524-.037 11.053-.275 16.573.053 3.062.182 6.117.464 9.178.65 1.575.096 3.152.167 4.729.182.931.009 2.849-.374 3.658.214.05.036.152-.002.229-.002.185-.001.371 0 .553.083l.554-.33c.033.171.087.281.066.376-.179.843-.27 3.278-.87 3.839zm2.489-12.157c-.082.312-.173.656-.121.962.085.502.003.955-.171 1.41-.009.023-.062.05-.06.054.322.565-.276.902-.341 1.375-.067.491-.198.974-.298 1.46a.315.315 0 0 0 .002.126c.196.854-.379.943-1.071.832-.421-.067-.862-.378-1.347.002-.191.15-.596.023-.904.028-.093.002-.19.047-.278.031-.262-.046-.581.117-.774-.204-.021-.036-.103-.055-.154-.05-.669.063-1.337.131-2.005.2-.056.006-.117.046-.166.034-2.494-.63-5.576-.484-8.16-.67a180.918 180.918 0 0 0-17.791-.4c-1.129.03-2.247.245-3.34.309-.306.018-1.876-.418-2.016-.315-.621.452-1.253.57-1.921.13-.056-.037-.159-.088-.187-.065-.422.338-.813.154-1.207-.051-.047-.025-.112-.046-.16-.035-.318.078-.634.165-.989.259v-.329c-1.266.714-4.223.159-5.8.084-.992-.047-2.819-1.064-3.647-.654-.217.107-.367.105-.545-.047-.044-.037-.146-.008-.221-.008-.207 0-.415 0-.629-.037-.661.159-1.315.352-1.862-.367.153-.354.398-.741.476-1.158.056-.301-.333-.67.135-.929-.328-.555.167-.893.342-1.317.043-.104.063-.217.101-.35l-.433-.359c.23-.33.474-.634.666-.968.133-.232.226-.515-.112-.521l.189-1.19c.461-.021.964-.051 1.467-.061.142-.003.315.015.424.093.575.41 1.244.162 1.862.274 3.076.56 6.626.118 9.749.148 3.774.037 7.548.08 11.321.147 6.963.122 13.926.321 20.88.703.569.031 1.138.064 1.707.098.418.025.831.145 1.314.237.104-.179.292-.147.6-.044.366.122.843.181 1.183.045.616-.247 1.223-.053 1.826-.139.18-.025.394-.054.546.018.397.188.751-.065 1.125-.051.13.005.27-.013.388.029.194.068.382.163.556.273.08.051.186.187.166.245-.086.245-.25.465-.315.713zm1.223-6.732c-.02.562-.034 2.219-.405 2.625-.107.118-.015.411-.031.623a3.127 3.127 0 0 1-.146.778c-.311-.323-.562-.34-.834-.055-.047.05-.179.081-.235.051-.573-.3-1.21-.145-1.806-.268-.109-.023-.258-.034-.314-.107-.231-.304-.396-.163-.66-.016-.211.118-.529.044-.799.057-.159.008-.317.021-.476.029-.082.004-.223.032-.238.002-.262-.55-9.175-.173-10.337-.208-3.775-.114-7.566-.342-11.342-.342l-10.376-.313c-4.83-.146-9.628.092-14.458.019-.413-.006-.719-.178-1.075-.283-.406-.12-.842-.138-1.263-.21-.258-.044-.518-.088-.766-.167-.078-.025-.186-.183-.168-.249.117-.416 1.08-3.057.443-3.214.548.135.172-.702.074-.822a.49.49 0 0 1 .298-.221c.04-.014.07-.125.07-.189-.007-.471-.037-.942-.027-1.413.003-.155.084-.32.169-.455.023-.037.205-.007.29.039.07.037.104.142.154.217l.295-.242-.01.072c.247-.029.496-.096.739-.079.334.023.663.122.997.161.14.017.318.009.428-.063.533-.349 1.068.167 1.659-.065.218-.086.516-.014.594.207.039-.241.39-.216.627-.154a2.94 2.94 0 0 0 1.97-.178l.143.381 1.282-.401c.175-.055.358-.11.538-.076.159.03.297.126.45.18.228.08.477.061.718.044 3.875-.272 7.866-.205 11.753-.167 1.788.018 3.573.244 5.36.359.947.061 1.898.072 2.845.126.482.028.966.17 1.439.134 1.388-.108 3.186.357 4.505-.01.198-.055.394-.143.598-.126.204.017.416.196.37.396.532-.159 1.097-.142 1.652-.125 1.715.054 3.429.11 5.143.173.742.027 1.654.23 2.348.203.14-.005.879-.188.992-.145.704.397 1.416-.001 2.115.068.282.028.553-.019.635.404l.476-.343.109-.134c-.473.473 1.646.207 1.615.213.111-.022.233-.042.332.012s.139.218.043.278c.529-.404 1.332.107 1.959.008a.779.779 0 0 0 .334-.133 7.6 7.6 0 0 0-.795 3.114zm7.158-12.221c-.133.181-.221.408-.386.548-.48.407-1.712 1.712-1.995 2.346-.008.018-.016.036-.022.054a.7.7 0 0 1-.619.438c-.148.004-.311-.037-.434.045-.221.147-.089.482-.062.746.154 1.505-2.49 2.203-3.209 2.767-.508.398-2.703-.114-3.339-.127l-4.147-.087-8.294-.174-16.588-.349c-1.757-.037-3.531-.076-5.237-.501-2.177.019-4.488.051-6.631-.207-.122-.015-.262.121-.417.2l-.199-.441c-.677.583-1.379.102-2.124.151-.367.344-.898.078-1.368.173-.611.124-1.271-.195-1.865.162-.294.177-.502-.03-.742-.117-.107-.039-.229-.1-.331-.08-.311.063-.614.161-.921.244-.115.031-.231.077-.346.078-.177 0-.354-.029-.53-.054-.14-.02-.284-.091-.414-.069a.541.541 0 0 1-.394.134c-.609-.977.657-1.224.944-1.996a9.037 9.037 0 0 1 1.765-2.915c.496-.549 1.272-.831 1.324-1.692.009-.143.256-.278.405-.402.074-.062.217-.068.258-.14.346-.606.482-.676 1.104-.47.738.245 1.51.381 2.269.343 1.712-.085 3.544.259 5.462.207a799.84 799.84 0 0 1 8.342-.179c5.331-.087 10.661-.101 15.993-.101.369.001.785.023 1.03.298 4.833-.374 9.855.228 14.636-.319l.29.406.176-.399c.487.092.937.2 1.393.251.175.019.363-.124.548-.136.183-.012.37.05.621.09.302-.289.707-.168 1.111-.051.027.008.058.039.076.032.628-.24 1.294.177 1.92-.119.384-.182.836-.116 1.002.212.174.339.23.811-.055 1.2zm-37.291-1.455c.023-.011.047-.033.067-.03.021.003.039.031.06.049-.021.017-.049.052-.058.047-.028-.014-.047-.043-.069-.066zm42.816-6.985c-.334.474-.537 1.025-.773 1.555-.439.989-1.001 1.917-1.56 2.843-.109.18-.224.367-.404.477-.284.174-3.191.396-3.373.129-.362.036-.659.079-.957.084-.052.001-.107-.161-.195-.304-.05.011-.19.005-.283.069-.328.225-.632.262-1.018.095-.471-.203-.974-.149-1.468.015-.171.057-.373.033-.559.024-.203-.009-.361-.005-.534.17-.095.097-.375.032-.568.007a2.318 2.318 0 0 1-.529-.139c-.548-.21-1.057-.117-1.607.062-1.143.374-3.113-.005-4.306-.032a63.9 63.9 0 0 1-4.993-.309c-1.031.21-2.094.174-3.146.144-8.304-.24-16.565.088-24.858.387-.486.018-.973.02-1.458.057-.067.005-.121.172-.194.283-.492-.08-1.006-.149-1.512-.253-.253-.052-.488-.192-.742-.246-.112-.024-.248.068-.351.173-1.688-.088-3.17-.28-4.875-.172l.969-1.579.884-1.441c.134-.218 1.815-2.923 1.991-2.779-.452-.37-.017-.531.09-.724.519.064.906.488 1.461.413l.367.292c.261-.577 5.04-.209 5.912-.371.32-.059.657-.024.986-.022 1.3.009 2.622-.226 3.899.114l.504-.028c7.799-.117 15.601-.185 23.396-.447.863-.029 1.727-.014 2.59-.025 1.051-.013 2.103-.035 3.154-.049.849-.012 1.698-.037 2.547-.019.39.008.776.135 1.166.159.59.036 1.183.031 1.774.038a.205.205 0 0 0 .148-.065c.46-.611 1.079-.318 1.556-.149.417.148.536-.1.827-.2.096.084.232.294.4.325.152.028.339-.14.5-.254.14-.03.132.325.458.092.233-.166.729.043 1.109.072.168.013.354.035.503-.022.251-.096.448-.233.757-.09.508.235 1.453-.088 2.074.032.408.079.849-.031 1.172-.291.148.713-.51 1.302-.931 1.899zm25.42 39.568l-.098.041.005-.128.195-.131a8.639 8.639 0 0 1-.102.218z" data-color="1"></path>
        <path fill="#F9A82D" d="M143.6 87.157l-.076-.515-.313-1.627c-.156-.746-.307-1.492-.469-2.237-.147-.674-.305-1.345-.457-2.016l-.56-.858-.306-.321-.061-.075-.161-.132-.131-.132c-.555-.587-1.108-1.178-1.667-1.762-1.257-1.312-2.513-2.625-3.78-3.927-.15-.154-.376-.23-.547-.367a6.667 6.667 0 0 1-.63-.57c-.154-.159-.334-.327-.404-.526-.131-.371-.19-.767-.278-1.152l.294-1.622c.002-.013.009-.031.019-.037 1.257-.711 1.719-1.986 3.263-2.505 1.628-.547 3.454-.455 5.131-.233 2.581.342 5.156.943 7.479 2.117 3.39 1.713 6.463 5.026 6.654 9.01.197 4.098.189 7.806-2.184 11.377a14.358 14.358 0 0 1-4.333 4.2c-.795.497-4.394 2.598-4.952.841-.1-.315-.345-.582-.465-.893-.089-.23-.09-.496-.11-.748-.024-.308.008-.623-.044-.925-.164-.956-.354-1.908-.539-2.86-.051-.262-.116-.521-.174-.782l-.199-.723zm7.165-12.218c.663 3.71.673 7.378.19 11.03.181-.214.444-.41.546-.668.306-.782.676-1.571.785-2.389.166-1.248.43-2.51.192-3.786-.118-.632-.184-1.279-.361-1.894-.127-.437-.38-.845-.616-1.242-.218-.367-.488-.702-.736-1.051zm-11-4.106c.118.136.152.212.206.231.638.219 1.279.432 1.92.642.414.135.831.265 1.248.392.348.106.694.237 1.05.298.281.048.492-.065.599-.394.125-.385-.176-.386-.352-.436-.593-.169-1.191-.338-1.798-.431-.713-.109-1.439-.135-2.158-.202-.205-.019-.407-.056-.715-.1z" data-color="2"></path>
        <path fill="#F9A82D" d="M160.5 83.84c.427.117.802.193 1.16.321 1.449.519 2.952.791 4.466 1.04 1.484.245 2.957.551 4.431.852.426.087.595.4.535.882a.624.624 0 0 1-.682.573c-.618-.053-1.227-.211-1.838-.335-.567-.114-1.128-.26-1.697-.355-.811-.135-1.638-.186-2.439-.361-1.087-.238-2.157-.559-3.232-.849-.288-.078-.579-.155-.854-.268-.495-.203-.677-.885-.328-1.285.107-.125.328-.152.478-.215z" data-color="2"></path>
        <path fill="#F9A82D" d="M169.24 71.16c.114 0 .228-.007.342.001.458.032.657.224.681.651.03.534-.126.767-.59.857-.608.118-1.224.198-1.824.346-.959.237-1.924.466-2.855.789-1.174.407-2.317.905-3.472 1.366-.382.153-.772.037-.953-.291-.211-.381-.126-.884.257-1.061a60.613 60.613 0 0 1 2.805-1.191 16.537 16.537 0 0 1 1.607-.55c.694-.198 1.4-.357 2.102-.531.626-.155 1.254-.307 1.881-.461.005.026.012.05.019.075z" data-color="2"></path>
        <path fill="#F9A82D" d="M155.953 92.76c-.062-.565.293-.799 1.001-.636 1.518.35 2.9 1.025 4.194 1.898 1.185.8 2.398 1.559 3.603 2.329.373.239.481.74.22 1.122-.203.296-.863.36-1.242.103-.564-.381-1.1-.805-1.681-1.156-1.5-.907-2.891-2.013-4.592-2.559-.347-.111-.704-.197-1.04-.335-.331-.136-.514-.398-.463-.766z" data-color="2"></path>
        <path fill="#F9A82D" d="M135.966 63.587c-.064.657-.19.859-.613.952-.373.082-.633-.067-.727-.403-.141-.502-.19-1.03-.332-1.532a342.696 342.696 0 0 0-1.365-4.645c-.284-.949-.604-1.887-.872-2.84-.125-.444.034-.731.337-.795.641-.136.82-.024 1.002.508.346 1.015.746 2.011 1.079 3.03.306.937.574 1.888.822 2.843.246.955.447 1.921.669 2.882z" data-color="2"></path>
        <path fill="#F9A82D" d="M150.443 96.699c.207.137.481.228.609.418.718 1.07 1.446 2.138 2.077 3.26.312.555.407 1.229.632 1.838.234.635.501 1.258.767 1.881.041.097.141.178.23.244.331.247.539.703.4 1.022-.156.356-.429.622-.853.574-.186-.021-.418-.111-.526-.25a4.069 4.069 0 0 1-.583-.982c-.378-.959-.653-1.962-1.084-2.895-.396-.857-.936-1.647-1.422-2.462-.269-.451-.562-.887-.83-1.338a1.076 1.076 0 0 1-.13-.4c-.076-.567.085-.763.713-.91z" data-color="2"></path>
        <path fill="#F9A82D" d="M145.204 61.889c.08-1.675.163-3.35.239-5.026.037-.806.054-1.614.093-2.42.028-.579.278-.819.824-.832.386-.009.655.288.635.672-.044.848-.07 1.696-.116 2.544-.054 1.005-.126 2.009-.182 3.014-.043.777-.054 1.556-.116 2.331-.041.508-.343.719-.844.667-.358-.036-.557-.377-.533-.95z" data-color="2"></path>
        <path fill="#F9A82D" d="M154.841 65.672c.001-.665.501-.996.757-1.433a88.148 88.148 0 0 1 1.99-3.206c.25-.387.579-.722.858-1.092.085-.112.112-.266.182-.391.098-.174.176-.428.327-.489.258-.104.57-.188.831.077.204.206.241.752.04 1.023-.042.056-.143.102-.142.152.006.918-.805 1.384-1.167 2.102-.445.883-1.024 1.7-1.559 2.537-.251.392-.49.812-.823 1.125-.192.18-.584.276-.841.216-.189-.045-.305-.402-.453-.621z" data-color="2"></path>
        <path fill="#80A09F" d="M125.752 146.377l-.078.158-.059-.045.142-.108-.005-.005z" data-color="1"></path>
        <path fill="#80A09F" d="M111.501 146.309c.008.001.019-.001.024.003.006.006.007.017.01.026l-.049-.006.015-.023z" data-color="1"></path>
        <path fill="#285A5B" d="M150.739 138.175a2.023 2.023 0 0 1-.1-2.005c-.204-.721-.631-1.794-.028-2.306-.304-.965-.298-2.137-.301-3.16a16.61 16.61 0 0 0-.031-.973c-.04-.644-.117-1.285-.157-1.929-.046-.752-.04-1.506-.034-2.26l.033-3.997c.002-.209.003-.42-.032-.627-.028-.164-.079-.324-.116-.487-.079-.345-.094-.7-.109-1.053l-.055-1.303c-.037-.875.028-1.461-.202-2.3-.037-.154-.084-.314-.055-.452.044-.209.123-.35-.11-.547-.133-.112-.058-.465-.086-.708-.023-.207-.059-.413-.075-.621-.018-.24-.063-.482-.047-.719.015-.217.086-.433.151-.644.071-.228.132-.44-.099-.539l.25-.68-.366-.081c-.007-.138-.025-.274-.017-.408.01-.192.083-.39.05-.572-.046-.261-.18-.503.089-.732.045-.038.016-.224-.035-.306-.794-1.284-1.931-2.255-3.021-3.265-.266-.247-.472-.454-.538-.847-.113-.675-.36-1.327-.5-1.999-.621-2.986-1.204-5.979-1.84-8.962-.489-2.29-1.038-4.567-1.558-6.851-.312-1.37-.598-2.747-.937-4.11a2.757 2.757 0 0 0-.507-1.01c-.547-.69-1.143-1.34-1.728-1.999-.077-.087-.202-.13-.306-.193l.001.002-.003-.001c.067.183.174.363.188.55.019.247-.037.499-.06.748l-.042.24c.187.177.419.327.548.54.136.224.174.507.177.85l-.708-.465c-.016.308-.033.521-.037.735-.003.13.012.26.019.391l.036.413.065.612.026.242.054.87.021.501.049.441.038.242c.211.36.138.745-.197 1.043l-.265.249c-.184.287-.446.357-.764.277l-.241.029-.888-.007a8.597 8.597 0 0 1-.156-.031l-.187-.053-.472-.236-.342-.341a.13.13 0 0 0-.039-.054l-.122-.209-.066-.212-.054-.185-.042-.325.005-.888.034-.327.064-.438.029-.245.117-.873.036-.239.065-.441.036-.413c-.181-.455-.014-.868.156-1.28a8.423 8.423 0 0 1-.032-.154c-.178-.399-.183-.784.094-1.146l.787-.727.19-.04.565-.027c.345.085.69.166 1.033.257.099.026.19.083.284.126l-.001-.002.003.002c-.055-.123-.085-.269-.171-.365-.516-.574-1.046-1.137-1.57-1.703l-.035.146c-.308 0-.629-.058-.92.013-.494.12-.592-.244-.789-.552.276-.185.523-.137.789.037.203.133.435.222.716.26-1.044-1.468-2.258-2.778-3.419-4.13-1.175-1.368-2.361-2.728-3.544-4.09l-3.587-4.125c-.534.684-1.043 1.291-1.502 1.932-.809 1.13-1.573 2.293-2.385 3.421-.845 1.174-1.735 2.314-2.585 3.484-1.26 1.734-2.497 3.484-3.753 5.221-.374.517-.757 1.03-1.172 1.514-.744.868-1.147 1.854-1.295 2.992-.15 1.152-.448 2.283-.631 3.431-.461 2.884-1.094 5.736-1.593 8.613-.402 2.32-.881 4.626-1.314 6.94-.308 1.645-.627 3.289-.885 4.942-.16 1.028-.82 1.719-1.437 2.459a540.895 540.895 0 0 0-2.901 3.516c-.408.498-.87 1.725-1.378 2.042-.289.179-.641.213-.979.225a10.492 10.492 0 0 1-3.125-.36c-.385-.007-4.681.11-4.463.523a3.3 3.3 0 0 1-.157-.342.74.74 0 0 1-.653-.142 2.09 2.09 0 0 0-2.102-.216c.205.156.401.279.569.474-1.112.684-1.099-.505-1.537-.647a2.002 2.002 0 0 0-1.17-.02c.274.044.451.39.325.638l-1.798.063c-.252.009-.545-.001-.698-.202s.094-.583.295-.43l-.699-.221c-.096.598-.75 1.042-1.342.912l.047-.815a34.895 34.895 0 0 0-8.947-.191c-.134-.194-.405-.222-.64-.232-5.499-.229-10.997-.458-16.498-.642-1.79-.06-3.58-.116-5.371-.173l-5.371-.171c-.1-.003-.211-.026-.296.01-.082.035-.137.134-.204.205.078.058.154.163.234.166.741.03 1.008.405.751 1.078-.019.05-.053.132-.032.155.313.341-.051.625-.071.936-.121.315.206.311.324.455l-.031.025.025.031-.126.267c-.019.081-.048.162-.056.244-.021.209-.024.421-.053.629-.017.122-.114.244-.101.358.069.62.013 1.234-.008 1.852-.009.266-.262.692.225.864l.138-.241c.007.14.005.261-.005.361-.031-.017-.058-.033-.105-.055-.26.09-.191.256-.099.428.081-.058.135-.099.183-.137-.012.105-.019.211-.03.317l-.167.009c-.284.261-.108.53-.014.797.035-.04.078-.077.114-.117-.011.117-.024.234-.034.351a1.287 1.287 0 0 0-.095-.223c-.29.05-.241.22-.191.438.037.164-.003.354-.041.525-.067.305-.159.605-.24.907.017.104-.109.219-.089.293.165.597-.016 1.272.404 1.81l.074-.004c-.001.098.002.195.001.293a1.725 1.725 0 0 1-.073-.169c-.39.425-.415.617-.136.992-.275.217-.367.446-.138.769.067.095.025.274.017.413-.005.091-.089.221-.053.264.409.495.112 1.053.159 1.578l.036.016c-.052.032-.096.076-.161.091a1.8 1.8 0 0 1 .137.385c-.048-.142-.116-.278-.176-.417-.254.018-.366.152-.234.322.2.257.214.487.14.806-.051.22-.261.555.097.759.072-.214.152-.426.218-.641a1.928 1.928 0 0 1-.17.566c.031.048.052.102.079.152a1.084 1.084 0 0 1-.09-.022c.018.349.045.698.052 1.048.004.189-.025.38-.038.569.085-.02.18-.034.256-.06a.522.522 0 0 0-.146.261 1.235 1.235 0 0 0-.026.298c-.013-.089-.019-.178-.033-.267l-.114 6.377.292-.062c.03-.317.044-.636.062-.954.1.32.144.622.019.937.619-.127 1.121-.142 1.156.772.209.025.419.044.627.071 1.889.245 3.775.518 5.667.73.601.067 1.219-.037 1.829-.04 1.467-.008 2.937-.061 4.4.012 3.371.167 6.728.648 10.091 1.064.151.019.322.032.438-.067.116-.099.077-.346-.076-.34l1.576-.114-.203.406c.412.208.858.423 1.315.357.457-.065.879-.55.698-.975 3.1-.063 6.2-.121 9.299-.176-1.261 1.364-4.726 1.412-6.19.358-.135.452-.951.392-1.019-.075-.267.478-.924.692-1.422.463-.222.102.092.392.336.407 3.143.191 6.285.365 9.433.454 1.077.031 9.01.808 9.423.06.122-.222.165-.433.277-.479.505-.209 1.024-.15 1.58-.026l-.203.448c.403 0 .75.001 1.097 0l4.869-.021c1.221-.006 2.442-.015 3.663-.026.081-.001.184-.015.24-.064.208-.184.368-.098.564.032.133.088.312.127.476.147.73.09 1.461.177 2.194.24.347.03.699.005.967.005.107-.486.16-.878.292-1.242.047-.13.263-.303.453-.032.113.161.284.283.428.422l.027.09c.131.063.292.096.386.194.301.316.692.37 1.02.202.143-.073.114-.484.161-.742.02-.111.036-.223.053-.334l-.031-.164.011-.172.058-.385-.336-.279.234-.301-.291-.051-.211.238-.402-.45c.65.003.93-.265.93-.802.003-3.804.038-7.608-.015-11.411-.029-2.086-.205-4.171-.329-6.256a86.973 86.973 0 0 0-.254-3.225c-.015-.154-.186-.293-.319-.489.511-.893.133-1.975.246-3.01.006-.056 0-.114-.001-.17a.155.155 0 0 0-.066-.018l-.462-.121-.402.725-.11.008c-.044-.19-.171-.413-.112-.562.085-.215.195-.446.558-.459.592-.022.654-.136.678-.747.015-.357.003-.716.003-1.074l-.112-.016-.201.295c-.133-.298-.671.023-.637-.497l-.175.068-.051.348c-.375-.167-.636-.071-.893.194-.074.077-.329-.021-.502-.038-.161-.048-.317-.266-.488-.015l-.147-.121-.428.264c-.055-.182-.128-.379-.173-.583-.071-.323.032-.613.204-.883.216-.531-.066-1.022.265-.999.462.032 1.352.347 1.814.384.104.008.715-.302.733-.314.601-.082.954.184 1.535.105.141-.012.423.015.628 0 .163-.012.179.332.343.328.105-.002.237-.031.311.019.166.113.294.252.415-.045.018-.045.427-.474.466-.442.374.307.392.153.698 0 .14-.07.808-.309 1.047 0 .079-.295.332.494.497.224.128-.208.272-.445.319-.041l.358.253.445-.243.035.067-.168.218.046.056.667-.302.231-.136.73-.054c.013-.042.015-.074.017-.105a.408.408 0 0 1 .029.142c.076-.046.166-.076.246-.117-.031.029-.062.06-.094.086.181-.023.366-.032.542-.076.077-.02.135-.113.202-.173-.09-.003-.183-.014-.273-.015.196-.079.58-.177.562-.158 2.378.373 3.721-.053 4.175-.038.403.013.81-.066 1.215-.105-.101-.077-.193-.176-.306-.227-.019-.009-.042-.014-.062-.022.355.008.7.014 1.017.014.154 0 .307.007.46.01a.624.624 0 0 0-.158.155c.118.041.265.149.351.112.366-.154.719-.198 1.108-.083.119.035.28-.074.422-.117-.029-.006-.059-.016-.089-.024l1.251.04c-.074.043-.155.106-.228.145l.343.181-.006.01.015-.006-.007-.006c.145.021.324.107.428.052.431-.23.831-.076 1.248.022.235.055.41-.031.383-.322-.163.119-.295.032-.419-.041l.475.009c-.018.013-.038.016-.056.032l.458.109c0 .086-.029.212.005.232.098.058.229.116.332.096.145-.028.276-.181.414-.182.422-.005.845.064 1.267.053.399-.011.797-.088 1.195-.136.096.455.312-.037.485.056v.37c.155-.084.329-.119.379-.216.203-.399.426-.25.703-.096.096.053.272-.04.411-.066-.07-.052-.139-.118-.209-.171l.642.007c-.065.038-.133.07-.19.135.072.036.147.108.215.102.288-.024.573-.071.871-.111l-.022.336c.536-.065 1.045-.094 1.539-.197.329-.069.513.03.684.458l.229-.582.42-.399a.787.787 0 0 0-.04-.101.586.586 0 0 1 .333.171 18.28 18.28 0 0 0-.148-.015c.018.207.041.414.053.621.022.35-.277.701.068 1.059.204.212.314.513.467.775a7.992 7.992 0 0 1-.026-.223c.107.245.259.471.452.656a1.858 1.858 0 0 1-.611.806c-.192-.643-.814-2.727-1.301-1.012-.018.062-.044.121-.066.182l.014.215.045.146.059 1.195.051.174c.198.112.168.194-.033.254l-.006.084c-.09 1.209.526 2.67-.231 3.797.419-.623-.579-1.747-.652-2.26-.029-.206.189-.442.367-.337-.988-.814.221-1.995.084-2.889l-.194-.261c-.252-.07-.507-.13-.754-.214-.095-.033-.172-.121-.257-.185l-.355-.073c.063.706.166 1.412.177 2.12.009.583-.155 1.171-.133 1.752.079 2.086.206 4.17.313 6.255.033.653.062 1.306.09 1.958.063 1.491.12 2.982.187 4.472.111 2.455.223 4.909.344 7.364.044.892.113 1.783.17 2.675.058.175.205.381.157.52-.13.376.042.636.222.913.382.019.359.215.206.469l.371.77c.34.384.752.257 1.16.166.072-.233.154-.463.212-.699.037-.149.039-.307.103-.448l-.142-2.224c.496.327.791.78.756 1.376-.031.517.391 1.059.007 1.466l.113.448c.62-.01 1.241-.006 1.861-.036.367-.018.731-.088 1.096-.136 1.399-.182.783-3.242 1.045-4.236.117-.068.241-.137.365-.206zM49.037 127.69c.001.075-.001.149.001.224-.024.081-.027.163-.032.245-.224-.189-.136-.338.031-.469zm-.124.868l.097-.14c.005.044.008.088.016.132a4.005 4.005 0 0 1-.113.008zm.074 5.055c-.021-.029.035-.105.033-.159-.007-.15-.024-.298-.034-.448.062.237.085.482.073.726a.8.8 0 0 0-.072-.119zm.031-3.302a.343.343 0 0 1 .154-.313.925.925 0 0 1-.154.313zm.081-1.418c.038.149.076.299.104.447.007.036.003.076.007.113l-.111-.56zm9.683-14.406c.131.095.246.211.466.404-.203.058-.304.119-.396.108-.282-.034-.552-.258-.848-.045-.045-.096-.152-.221-.123-.283.134-.287.628-.38.901-.184zm-3.108.015l1.04-.059.023.16c-.161.082-.32.225-.484.231-.198.007-.401-.102-.602-.161l.023-.171zm-2.164 25.771l-.528-.256.106.499-.331.18c.172-.246-.138-.681.323-.805.126-.034.333-.156.354-.127.095.129.137.297.199.451l-.123.058zm.716-17.674c-.058.275-.218.433-.508.439l-.262-.355.106-.093.099.038-.006-.139c.284-.444.377.097.571.11zm.183-.081l-.075-.021.087-.018-.012.039zm4.754 2.65c.365.321.435.931.262 1.361-.09.224-.053.5-.069.753-.012.199-.004.401-.03.598-.032.243-.141.486-.125.723.021.32.13.634.201.95.01.022.024.043.04.061l-.03.695-.087.264.011.335.008.421v1.501c-.668-.191-1.203-.061-1.639.399l-.249-.01-.429-.112-.083-.267c-.393.554-.89.365-1.47.338l.324-.36-.44-.502.029-.114.401-.864c-.226-.336-.189-.594.39-1.138l-.572-.284.173-.206c-.107-.487-.215-.975-.32-1.462-.014-.065-.019-.131-.03-.208l.395-.12a62.919 62.919 0 0 0-.355-.295.072.072 0 0 0-.033-.029l-.037-.279h.479l-.221-.681-.208.216-.052-.134.259-.086-.184-.674-.125-.294-.035-.231a.116.116 0 0 0 .037-.053c.133-.268.267-.536.399-.805.059-.119.087-.268.176-.354.115-.111.277-.173.419-.257l.159.075c.099.088.193.244.297.25.37.024.743-.003 1.114-.011l.137.006.342.117.172.016.188.39.453-.506a.13.13 0 0 0 .064-.044l.291-.015c-.303.297.274.802-.397.926zm.78.873c.036.026.021.015 0 0zm3.293-10.93c-.025 0-.054-.162-.081-.249l.648-.06.022.244c-.195.026-.392.061-.589.065zm5.76 16.481l.004-.004c.052.239.055.505.167.71.145.266.014.365-.177.438-.189.072-.395.098-.594.144l-.255.083-.265-.078-.095-.085c-.146-.287-.172.034-.258.051l-.152.015-.234-.494c-.102.048-.168.07-.223.108-.053.037-.094.092-.141.137-.381.363-.875.303-1.155-.125-.064-.097-.186-.157-.281-.234a1.78 1.78 0 0 1-.017-.07c.011-.144.008-.291.038-.432.034-.162.056-.424.151-.459.421-.155.251-.377.125-.616-.163-.31-.075-.647.182-.826-.134-.164-.389-.337-.382-.498.016-.362.175-.716.247-1.079.017-.086-.081-.194-.125-.292l-.072-.24-.08-1.211c.021-.035.12-.155.169-.292a.924.924 0 0 0 .025-.368c-.006-.088-.089-.182-.071-.257.06-.245.15-.483.229-.724l.161.025.036.343c.379-.104.611-.541 1.019-.249.249-.302.598.002.873-.143l.112.039c.346.145.632.521 1.068.26l.201.267.062.155-.353.13c.377.271-.11.679.274 1.034.18.167.031.69.031 1.108-.027.048-.17.235-.141.268.344.389.077.779.037 1.168-.018.178-.075.405.007.53.318.484.092.948.01 1.417-.021.118-.099.226-.153.339l-.017-.008c-.002.003.013.015.013.015zm.168-6.534l.162-.123.017.161-.179-.038zm4.593-9.859c-.028-.23-.068-.387-.044-.397.115-.05.246-.06.372-.085l.1.146-.428.336zm4.167.38l-.049-.048c-.372.011-.58-.176-.681-.591l.95-.145-.24.707.02.077zm1.489.003l-.601-.245.644-.469-.043.714zm1.245-.129c-.263-.02-.524-.078-.867-.136.288-.345.594-.35.898-.293.073.014.154.163.165.257.005.053-.131.177-.196.172zm1.298.109c-.066.064-.22.085-.316.057-.176-.05-.338-.15-.534-.243.121-.462.553-.319.873-.392.041-.009.177.146.166.206a.736.736 0 0 1-.189.372zm3.296-.412l-.227.463c-.26-.029-.475-.032-.677-.084-.145-.037-.274-.139-.424-.22.437-.372.857-.25 1.328-.159zm.093 19.836zm2.851-9.316c-.266.272.012.526.026.789l-.001.089c-.281.576-.588 1.142-.286 1.819.041.091-.096.25-.114.383-.012.088.043.184.068.277l.103.504-.365.205c-.052.246-.103.459-.139.675-.028.166-.105.373-.038.496.177.327.132.602-.028.909-.024.046.135.187.209.284l.155.06-.261.297.105-.029.128 1.405-.653.172-.148.016c-.029-.031-.054-.083-.087-.089-.519-.091-1.037-.184-1.558-.258-.163-.023-.335 0-.502.017-.138.014-.273.051-.409.077l-.197-.027c-.035-.042-.104-.088-.1-.127.036-.351.099-.7.121-1.051.006-.093-.102-.192-.158-.289l.011-.17.237-.564-.061-.002.101-.599-.09-.093.123.052c.044-.041.132-.093.125-.123-.113-.508.041-1.074-.335-1.529a.39.39 0 0 1-.065-.321c.181-.524.049-1.146.502-1.591.048-.047-.01-.23-.055-.333-.047-.108-.139-.196-.211-.294l.031-.158c.122-.16-.051-.483.291-.54.013-.002-.01-.288-.036-.439-.019-.112-.07-.219-.104-.322l.384.063.244-.12.654.073c.309-.361.905-.27 1.379-.19.353.06.687-.019 1.059.054l-.048.538-.007.004zm2.198 11.563l-.289.291-.212.044c-.279-.104-.539-.583-.853.023l-.068-.102.223-.392.004-.008c.119-.049.236-.104.358-.145.107-.036.237-.104.327-.073.171.06.322.181.481.276l.029.086.398.188-.398-.188zm8.309-8.061l.157.107-.018.116h-.604l.384.426.01.007.182 1.324-.094.076-.166.178.15.233.14.121.018.172-.158.537a.142.142 0 0 0 .047.056l.11.278-.02.148c.029.264.028.508-.395.486.324.583.104 1.034-.175 1.45l-1.232-.286-.262.053-.036-.075-.156-.429-.407.433c-.303-.029-.728.1-.586-.435l-.641.167-.081-.233c-.132-.508.008-1.011.096-1.497.059-.326.175-.608.026-.9a63.878 63.878 0 0 1-.032-.436l-.02-.157c.04-.089.123-.183.114-.267-.055-.523-.131-1.043-.202-1.581l.46-.066c-.258-.593-.787-1.144-.191-1.711-.098-.567-.202-1.087-.27-1.611-.02-.152.065-.318.106-.5.257.076.691-.259.711.334l.623-.324c.134.054.436.104.638.274.286.239.476-.123.727-.032.372.134.757.231 1.106.335-.021.232-.053.377-.044.518.017.277.16.596.065.818-.169.396.071.615.211.892l.022.174-.193.424-.18.162-.013.204a.15.15 0 0 0 .073.037zm4.671-2.495c-.115.178-.019.492-.019.744a5.274 5.274 0 0 1-.109.05c-.031-.291-.08-.582-.09-.875-.012-.355.006-.712.019-1.068.003-.07.04-.138.062-.208.061.045.167.083.176.137.069.406.233.796-.039 1.22zm4.73-9.345l.024.03-.028.026c-.008-.01-.023-.02-.022-.029.001-.01.017-.019.026-.027zm-3.279 3.665l-.548-.728.343-.319c.122.285.252.568.357.859.014.04-.099.125-.152.188zm-.658-4.168c.386-.569.621-.684 1.057-.477-.355.221-.516.763-1.057.477zm3.292 2.281c.008-.018.018-.035.023-.054.002-.009-.004-.02-.006-.03a79.774 79.774 0 0 0-.021-.17l.009-.428-.054-.2-.075-.361c.026-.159-.001-.366.09-.465.142-.155.31-.085.448.095.056.073.222.062.376.185l-.283.154c-.437.464.195.229.138.359l-.154.724.101.209-.262-.03a.169.169 0 0 0-.044.058c.02.052.061.107.056.156-.052.471-.112.941-.17 1.412-.386-.078-.483-.324-.281-.82.104-.257.184-.485-.316-.652l.425-.142zm-.143 2.518c.489.2.517 1.434.007 2.051-.059-.747-.223-1.391-.007-2.051zm.989 21.269c-.033.133-.123.252-.186.377-.098-.12-.224-.226-.284-.362-.047-.107-.03-.253-.009-.377.039-.227.19-.47-.149-.605-.02-.008-.026-.081-.019-.12.051-.286.106-.571.16-.857.163.148.279.245.383.352.046.047.114.138.097.171-.249.478.124.951.007 1.421zm1.069-.466c-.198 0-.406.034-.588-.02-.055-.016-.04-.273-.057-.42l.12-.057.551.376-.026.121zm12.997-72.096c.15.115.291.241.504.427l-.492.214c-.059-.169-.128-.317-.154-.472-.008-.049.138-.173.142-.169zm-2.015 2.554c.324-.203.617-.455.957-.567.14-.046.379.212.573.331-.075.112-.149.225-.225.336-.024.035-.06.062-.079.099-.264.511-.711.623-1.308.566l.427-.465-.345-.3zm-.056 25.367l-.133.679-.113-.003c-.093-.244-.373-.47-.099-.76a1.12 1.12 0 0 1 .533-.287c.071-.018.192.165.29.257-.109.045-.214.1-.327.13-.06.015-.132-.014-.151-.016zm-1.728-10.306a4.33 4.33 0 0 1-1.258-.19c-.758-.231-1.021-.724-.927-1.507.181-1.497.335-2.997.518-4.493.06-.493.151-.985.265-1.47.282-1.209 1.004-1.482 2.052-.756.315-.331.671-.493 1.084-.265.422.233.477.647.437 1.078-.021.226-.029.472-.126.668-.298.605-.253 1.238-.247 1.878a112.79 112.79 0 0 1-.023 3.29c-.025 1.185-.593 1.762-1.775 1.767zm10.099-9.696l-.437.765-.056.184-.033.158-.132.357-.795.771-.18.062-.684.009-.181-.067c-.439-.211-.674-.575-.781-1.036l-.061-.352-.033-.414c-.04-.127-.11-.252-.114-.38-.015-.484-.005-.968-.014-1.452-.003-.139-.039-.278-.075-.519-.427.548-.891.333-1.33.295-.375.446-.591.448-1.193-.001l-.367.527-.246-.346-.42.036-.06-.143c.281-.134.55-.314.846-.385.215-.052.464.054.699.065.083.004.23-.048.245-.102.092-.334.445-.302.55-.221.259.199.604-.1.825.215.076.108.507-.216.539-.399.032-.184.081-.365.122-.547l.023-.759.054-2.407.034-.157.163-.344.346-.342c.355-.399.926-.437 1.284-.085a.125.125 0 0 0 .055.034l.174.16.005.007.218-.002.473-.315.2.001.438.449.061.439.002 5.729c-.055.167-.109.34-.164.512zm4.417 32.757c.25.008.499.008.749.014a2.446 2.446 0 0 1-.749-.014zm2.34-20.12l.155.027.039.874-.093.062c-.089-.111-.252-.222-.251-.332.001-.211.095-.421.15-.631zm.208 20.385a.734.734 0 0 0-.212-.22l.746.014a1.712 1.712 0 0 0-.534.206zm2.972-.045c-.005.004-.011.005-.018.007l.023-.03c-.002.008 0 .02-.005.023zm-.718-.046c-.149.023-.324.092-.447.041a2.925 2.925 0 0 0-.428-.14c.429.005.858.017 1.286.021-.137.026-.274.056-.411.078zm2.938-13.052c-.138-.008-.278.03-.46.053l-.133-1.312c.292.283.52.489.727.714.057.062.033.192.078.273.151.273.01.285-.212.272zm1.9 13.063c-.264.011-.48.17-.813-.022-.019-.011-.048-.02-.071-.031.413.005.827.007 1.24.013l.509.008-.046.039c-.281-.062-.549-.019-.819-.007zm1.176.12v-.148l.06.001.377-.252c-.119.122-.26.237-.437.399zm1.634 5.533c-.149.386-.115.842-.252 1.323-.07-.117-.175-.227-.202-.354a9.717 9.717 0 0 1-.177-1.138c-.01-.112.101-.234.156-.352-.138-.257-.232-.508.098-.699l.36-.229-.031.207-.006.337c.101.297.19.555.054.905zm.781-10l.295-.05c.051-.052.128-.157.148-.147.128.064.244.154.365.235l.181.081.143.276.002.002c.153.088.407.153.434.27.031.132.283.379-.053.497l-.088.155.224.055-.205.298.281 1.084c-.572.203-.384-.727-.904-.552l.277-.448-.068-.066-.233.114v-.556c.145-.312-.078-.467-.271-.635-.191-.166-.384-.33-.576-.495a2.92 2.92 0 0 1 .048-.118zm.751 3.406c-.004.01-.008.028-.012.029-.012.001-.025-.006-.037-.01.004-.01.008-.029.012-.029.012-.001.024.006.037.01zm-1.792 1.533c-.003.192-.008.384-.006.577-.051-.17-.097-.336-.152-.52l.158-.057zm.513-2.47c-.019.005-.078-.137-.118-.21-.161-.081-.229-.176-.043-.306l-.206-.188.805-.576c.302.163.462.646.308.973-.047.1.037.257.042.388a1.04 1.04 0 0 1-.073.43c-.233-.218-.275-.628-.715-.511zm.965 2.501c-.068-.004-.188.009-.196-.016-.075-.222-.253-.543-.166-.657.172-.227-.006-.73.501-.704.034.245.161.525.079.714-.125.289.179.171.202.309.053.324.145.643.249 1.083l-.629-.377-.04-.352zm1.203 29.043c-.402.01-.635-.254-.593-.691.038-.403.166-.811-.065-1.216-.062-.109.038-.311.074-.53l.709.506-.125 1.931z" data-color="3"></path>
    </g>
</svg>