<svg width="35" height="35" viewBox="0 0 23 23" fill="none" xmlns="http://www.w3.org/2000/svg">
<g id="alphaCoin">
<g id="Rectangle 733" filter="url(#filter0_i_151_1069)">
<path d="M20.1419 10.5192C20.1419 15.8547 15.8166 20.18 10.4811 20.18C5.14559 20.18 0.820312 15.8547 0.820312 10.5192C0.820312 5.18368 5.14559 0.858398 10.4811 0.858398C15.8166 0.858398 20.1419 5.18368 20.1419 10.5192Z" fill="#C4C4C4" fill-opacity="0.84"/>
</g>
<g id="Path 1" opacity="0.6" filter="url(#filter1_d_151_1069)">
<path fill-rule="evenodd" clip-rule="evenodd" d="M21 10.5C21 16.299 16.299 21 10.5 21C4.70101 21 0 16.299 0 10.5C0 4.70101 4.70101 0 10.5 0C16.299 0 21 4.70101 21 10.5ZM10.4415 20.2193C15.777 20.2193 20.1022 15.8941 20.1022 10.5585C20.1022 5.22305 15.777 0.89777 10.4415 0.89777C5.10595 0.89777 0.780669 5.22305 0.780669 10.5585C0.780669 15.8941 5.10595 20.2193 10.4415 20.2193Z" fill="#C4C4C4"/>
</g>
<g id="Path 2" opacity="0.6" filter="url(#filter2_i_151_1069)">
<path d="M9.60485 4.60101C9.21144 5.34654 8.43779 6.83364 7.88518 7.90567C7.82483 8.02303 7.76365 8.1415 7.7027 8.25952L7.70238 8.26014C7.2067 9.21997 6.72615 10.1505 6.82613 10.2222C6.91705 10.2874 7.75228 9.58449 8.71603 8.77338L8.71627 8.77317C8.94267 8.58263 9.17616 8.38613 9.40875 8.19221C10.6929 7.18495 11.7289 6.3134 11.7828 6.19443C11.8635 6.08892 11.9753 5.93507 11.9753 5.66276C11.9753 5.29793 11.7337 4.68032 11.3219 4.07226C11.0061 3.60565 10.7241 3.27832 10.5477 3.27832C10.3712 3.27832 10.0785 3.70214 9.60485 4.60101Z" fill="#FFFFFE"/>
<path d="M10.8525 10.0988C11.0522 10.2975 11.9769 10.6596 13.4992 11.2372C13.6378 11.29 13.7748 11.3422 13.909 11.3933L13.909 11.3933C15.0017 11.8099 15.9132 12.1573 16.0585 12.1832C16.2835 12.2229 16.3546 12.1713 16.3546 11.9704C16.3546 11.825 15.5445 10.5733 14.6221 9.15887C14.3383 8.72401 14.0803 8.31114 13.8531 7.94769C13.3422 7.13013 12.9875 6.56264 12.8468 6.55737C12.6795 6.5511 12.3543 6.95646 11.9121 7.50777C11.8171 7.62618 11.7167 7.75132 11.6113 7.88055C11.5293 7.98139 11.4509 8.07653 11.3766 8.16668C10.9005 8.74423 10.5936 9.11659 10.5798 9.46499C10.5648 9.83998 10.7937 10.0457 10.8444 10.0913C10.8481 10.0946 10.8509 10.0971 10.8525 10.0988Z" fill="#FFFFFE"/>
<path d="M6.39972 11.4324C6.24315 11.4906 6.03 11.6505 5.92737 11.788C5.82343 11.9241 5.49318 12.4978 5.19188 13.0609C4.89057 13.6241 4.64453 14.174 4.64453 14.2837C4.64453 14.3934 4.68472 14.4996 4.809 14.552C4.93327 14.6044 6.24578 14.355 7.80229 14.0285C9.35881 13.702 11.3416 13.279 12.21 13.0887C13.0784 12.8984 14.1726 12.6178 14.3173 12.5583C14.3494 12.5451 14.5098 12.4617 14.3173 12.4133C14.2702 12.3973 13.9083 12.3461 13.3637 12.269C12.6472 12.1675 11.6142 12.0212 10.5653 11.8514C8.72067 11.5527 7.0918 11.3121 6.94707 11.3174C6.80234 11.3227 6.55629 11.3742 6.39972 11.4324Z" fill="#FFFFFE"/>
</g>
</g>
<defs>
<filter id="filter0_i_151_1069" x="0.820312" y="0.858398" width="19.3223" height="19.3213" filterUnits="userSpaceOnUse" color-interpolation-filters="sRGB">
<feFlood flood-opacity="0" result="BackgroundImageFix"/>
<feBlend mode="normal" in="SourceGraphic" in2="BackgroundImageFix" result="shape"/>
<feColorMatrix in="SourceAlpha" type="matrix" values="0 0 0 0 0 0 0 0 0 0 0 0 0 0 0 0 0 0 127 0" result="hardAlpha"/>
<feOffset/>
<feGaussianBlur stdDeviation="0.5"/>
<feComposite in2="hardAlpha" operator="arithmetic" k2="-1" k3="1"/>
<feColorMatrix type="matrix" values="0 0 0 0 0 0 0 0 0 0 0 0 0 0 0 0 0 0 0.25 0"/>
<feBlend mode="normal" in2="shape" result="effect1_innerShadow_151_1069"/>
</filter>
<filter id="filter1_d_151_1069" x="0" y="0" width="23" height="23" filterUnits="userSpaceOnUse" color-interpolation-filters="sRGB">
<feFlood flood-opacity="0" result="BackgroundImageFix"/>
<feColorMatrix in="SourceAlpha" type="matrix" values="0 0 0 0 0 0 0 0 0 0 0 0 0 0 0 0 0 0 127 0" result="hardAlpha"/>
<feOffset dx="1" dy="1"/>
<feGaussianBlur stdDeviation="0.5"/>
<feComposite in2="hardAlpha" operator="out"/>
<feColorMatrix type="matrix" values="0 0 0 0 0.752941 0 0 0 0 0.752941 0 0 0 0 0.752941 0 0 0 0.31 0"/>
<feBlend mode="normal" in2="BackgroundImageFix" result="effect1_dropShadow_151_1069"/>
<feBlend mode="normal" in="SourceGraphic" in2="effect1_dropShadow_151_1069" result="shape"/>
</filter>
<filter id="filter2_i_151_1069" x="4.64453" y="3.27832" width="12.7109" height="11.2803" filterUnits="userSpaceOnUse" color-interpolation-filters="sRGB">
<feFlood flood-opacity="0" result="BackgroundImageFix"/>
<feBlend mode="normal" in="SourceGraphic" in2="BackgroundImageFix" result="shape"/>
<feColorMatrix in="SourceAlpha" type="matrix" values="0 0 0 0 0 0 0 0 0 0 0 0 0 0 0 0 0 0 127 0" result="hardAlpha"/>
<feOffset dx="1"/>
<feGaussianBlur stdDeviation="1"/>
<feComposite in2="hardAlpha" operator="arithmetic" k2="-1" k3="1"/>
<feColorMatrix type="matrix" values="0 0 0 0 0.752941 0 0 0 0 0.752941 0 0 0 0 0.752941 0 0 0 0.75 0"/>
<feBlend mode="normal" in2="shape" result="effect1_innerShadow_151_1069"/>
</filter>
</defs>
</svg>
