<svg width="26" height="26" viewBox="0 0 26 26" fill="none" xmlns="http://www.w3.org/2000/svg">
<g id="cart">
<g id="carrinho">
<mask id="path-1-inside-1_149_1212" fill="white">
<path fill-rule="evenodd" clip-rule="evenodd" d="M1.34179 0.0852852C0.864697 -0.131573 0.302143 0.0793849 0.0852852 0.556473C-0.131573 1.03356 0.0793849 1.59611 0.556473 1.81297L4.17538 3.45793V20.459C4.13699 21.0082 4.27645 21.7613 4.78693 22.4202C5.26494 23.0372 6.00707 23.4939 7.0369 23.6635C7.0272 23.7451 7.0222 23.8282 7.0222 23.9124C7.0222 25.0654 7.95684 26 9.10978 26C10.2627 26 11.1973 25.0654 11.1973 23.9124C11.1973 23.8485 11.1945 23.7852 11.1888 23.7227L20.3091 23.9124C20.3091 25.0654 21.2437 26 22.3967 26C23.5496 26 24.4842 25.0654 24.4842 23.9124C24.4842 23.8485 24.4814 23.7852 24.4757 23.7227C24.3799 22.6595 23.487 21.8261 22.3992 21.8249L22.3967 21.8249L22.3942 21.8249H9.11226L9.10978 21.8249L9.10729 21.8249H7.62708C6.81048 21.7599 6.45274 21.4717 6.28716 21.2579C6.09485 21.0097 6.05627 20.7253 6.06927 20.5823L6.07317 20.5394V18.4567C6.80146 18.8381 7.62139 18.9782 8.35052 18.9782H23.0161L23.0683 18.9724C24.2969 18.8359 25.0757 18.1181 25.5028 17.2311C25.9025 16.4008 26 15.426 26 14.6132V8.91986C26 8.44427 25.6479 8.04214 25.1765 7.97929L6.07317 5.43218V2.84692C6.07317 2.47482 5.85568 2.13706 5.51693 1.98308L1.34179 0.0852852ZM6.07317 15.1826C6.07317 15.9515 6.36253 16.3726 6.72406 16.6341C7.12985 16.9275 7.72029 17.0804 8.35052 17.0804H22.9051C23.3555 17.0176 23.6094 16.7888 23.7929 16.4078C24.0099 15.957 24.1022 15.3187 24.1022 14.6132V9.75064L6.07317 7.34676V15.1826Z"/>
</mask>
<path fill-rule="evenodd" clip-rule="evenodd" d="M1.34179 0.0852852C0.864697 -0.131573 0.302143 0.0793849 0.0852852 0.556473C-0.131573 1.03356 0.0793849 1.59611 0.556473 1.81297L4.17538 3.45793V20.459C4.13699 21.0082 4.27645 21.7613 4.78693 22.4202C5.26494 23.0372 6.00707 23.4939 7.0369 23.6635C7.0272 23.7451 7.0222 23.8282 7.0222 23.9124C7.0222 25.0654 7.95684 26 9.10978 26C10.2627 26 11.1973 25.0654 11.1973 23.9124C11.1973 23.8485 11.1945 23.7852 11.1888 23.7227L20.3091 23.9124C20.3091 25.0654 21.2437 26 22.3967 26C23.5496 26 24.4842 25.0654 24.4842 23.9124C24.4842 23.8485 24.4814 23.7852 24.4757 23.7227C24.3799 22.6595 23.487 21.8261 22.3992 21.8249L22.3967 21.8249L22.3942 21.8249H9.11226L9.10978 21.8249L9.10729 21.8249H7.62708C6.81048 21.7599 6.45274 21.4717 6.28716 21.2579C6.09485 21.0097 6.05627 20.7253 6.06927 20.5823L6.07317 20.5394V18.4567C6.80146 18.8381 7.62139 18.9782 8.35052 18.9782H23.0161L23.0683 18.9724C24.2969 18.8359 25.0757 18.1181 25.5028 17.2311C25.9025 16.4008 26 15.426 26 14.6132V8.91986C26 8.44427 25.6479 8.04214 25.1765 7.97929L6.07317 5.43218V2.84692C6.07317 2.47482 5.85568 2.13706 5.51693 1.98308L1.34179 0.0852852ZM6.07317 15.1826C6.07317 15.9515 6.36253 16.3726 6.72406 16.6341C7.12985 16.9275 7.72029 17.0804 8.35052 17.0804H22.9051C23.3555 17.0176 23.6094 16.7888 23.7929 16.4078C24.0099 15.957 24.1022 15.3187 24.1022 14.6132V9.75064L6.07317 7.34676V15.1826Z" stroke="#2B364A" stroke-width="6" mask="url(#path-1-inside-1_149_1212)"/>
</g>
</g>
</svg>
