<svg width="109" height="45" viewBox="0 0 122 50" fill="none" xmlns="http://www.w3.org/2000/svg">
<g id="Logo">
<g id="Path 3">
<path d="M90.839 35.7598H88.1363V49.8672H90.839V41.2164H92.5958C92.908 39.9268 93.0296 39.4184 93.0675 39.2533C93.135 38.9606 93.1094 38.9539 91.9877 38.9539H90.839V35.7598Z" fill="#F1F5F2"/>
<path d="M110.704 41.7488V39.3532C109.5 39.3598 108.841 39.465 108.462 39.5901C108.084 39.7165 107.424 40.0585 106.997 40.3513C106.569 40.6441 106.014 41.1831 105.762 41.5491C105.512 41.9151 105.203 42.4847 105.076 42.8135C104.884 43.3152 104.845 43.9447 104.837 46.6731L104.826 49.9337L107.191 50.0003L107.225 44.1458C107.23 43.4871 108.018 42.5636 108.494 42.2471C108.97 41.9307 109.499 41.8592 109.995 41.814L110.704 41.7488Z" fill="#F1F5F2"/>
<path d="M84.8592 39.6313C84.2835 39.5515 83.2187 39.4916 82.4943 39.4982C81.77 39.5049 80.9646 39.5701 80.7038 39.642C80.4429 39.7152 80.0213 39.9348 79.7659 40.1291C79.5091 40.3247 79.1605 40.7839 78.9902 41.1499C78.7794 41.6024 78.678 42.0708 78.674 42.6138C78.6699 43.23 78.7402 43.5188 78.9808 43.8782C79.1862 44.183 79.5943 44.4917 80.1673 44.7712C80.6483 45.0068 81.6497 45.3541 82.393 45.5431C83.1362 45.7334 83.92 45.961 84.1335 46.0475C84.3484 46.1354 84.5754 46.3124 84.6403 46.4401C84.7052 46.5679 84.7268 46.7928 84.6903 46.9392C84.6538 47.0856 84.4254 47.3039 84.1835 47.4237C83.8173 47.6073 83.4822 47.6286 82.1565 47.5568C81.2835 47.5102 80.4929 47.4383 80.3997 47.3984C80.3207 47.3984 80.0619 47.6832 79.7578 48.33C79.497 48.8823 79.3159 49.3641 79.3524 49.3987C79.3889 49.4346 79.9362 49.5238 80.5686 49.597C81.2011 49.6715 82.2186 49.7328 82.8322 49.7328C83.5889 49.7341 84.2079 49.6489 84.7579 49.4679C85.2038 49.3215 85.7538 49.0673 85.9809 48.9023C86.2079 48.7373 86.5417 48.3779 86.7241 48.1038C86.9066 47.8296 87.1228 47.3505 87.2052 47.039C87.3147 46.6238 87.3147 46.2951 87.2039 45.808C87.1025 45.3608 86.9093 45.0028 86.6147 44.7166C86.3741 44.4824 85.9038 44.1723 85.5687 44.0259C85.2336 43.8808 84.2768 43.5787 83.4403 43.3538C82.6038 43.1302 81.7519 42.9905 81.5289 42.88C81.2759 42.7937 81.1051 42.5181 81.1051 42.3144C81.1024 42.1866 81.2308 41.9617 81.3889 41.8153C81.6011 41.621 81.8646 41.5491 82.3727 41.5491C82.7551 41.5491 83.5849 41.597 84.2173 41.6543L85.366 41.7594C85.8903 40.3181 86.0106 39.8709 85.9741 39.8376C85.9376 39.803 85.4349 39.7098 84.8592 39.6313Z" fill="#F1F5F2"/>
<path fill-rule="evenodd" clip-rule="evenodd" d="M103.811 44.7166C103.811 47.6004 101.432 49.9382 98.497 49.9382C95.5623 49.9382 93.1833 47.6004 93.1833 44.7166C93.1833 41.8329 95.5623 39.4951 98.497 39.4951C101.432 39.4951 103.811 41.8329 103.811 44.7166ZM98.497 47.5647C100.074 47.5647 101.352 46.2896 101.352 44.7166C101.352 43.1437 100.074 41.8685 98.497 41.8685C96.9201 41.8685 95.6419 43.1437 95.6419 44.7166C95.6419 46.2896 96.9201 47.5647 98.497 47.5647Z" fill="#F1F5F2"/>
<path fill-rule="evenodd" clip-rule="evenodd" d="M116.921 39.4423C117.18 39.4729 117.729 39.5887 118.137 39.7019C118.545 39.8137 119.207 40.1251 119.608 40.3939C120.008 40.6641 120.544 41.1831 120.798 41.5491C121.052 41.9151 121.381 42.5433 121.53 42.9466C121.68 43.3498 121.808 44.0379 121.817 44.4771C121.825 44.9163 121.791 45.3502 121.741 45.442C121.676 45.5618 121.098 45.6137 119.657 45.6256C118.561 45.635 116.758 45.6802 113.641 45.808C114.652 47.2206 115.632 47.5776 116.425 47.611C117.155 47.6057 117.937 47.4859 118.815 46.6065L119.794 46.9911C120.331 47.2014 120.833 47.4263 120.907 47.4902C120.992 47.5634 120.818 47.8309 120.434 48.2142C120.099 48.5496 119.553 48.9808 119.218 49.1725C118.883 49.3654 118.337 49.6023 118.002 49.6995C117.667 49.798 116.968 49.8778 116.448 49.8765C115.916 49.8765 115.206 49.778 114.826 49.6516C114.454 49.5278 113.937 49.2949 113.677 49.1339C113.418 48.9715 112.934 48.5469 112.603 48.1889C112.272 47.8309 111.85 47.2094 111.665 46.8061C111.426 46.2858 111.312 45.7667 111.272 45.0094C111.231 44.2641 111.281 43.7251 111.437 43.2127C111.56 42.8095 111.803 42.2412 111.977 41.9484C112.152 41.6556 112.591 41.1499 112.952 40.8238C113.314 40.4977 113.945 40.0838 114.353 39.9042C114.761 39.7232 115.4 39.5342 115.772 39.4823C116.144 39.4304 116.661 39.4117 116.921 39.4423ZM116.425 41.6142C115.141 41.6142 114.044 42.4152 113.61 43.5436L119.227 43.5129C118.785 42.4007 117.697 41.6142 116.425 41.6142Z" fill="#F1F5F2"/>
</g>
<g id="Path 3_2">
<path d="M45.2921 0H39.0195V33.3474H45.2921V0Z" fill="#F1F5F2"/>
<path d="M78.2232 2.49326C74.5789 0.800961 73.3777 0.311658 73.2052 0.311658C73.0013 0.311658 72.8915 6.07732 72.8915 16.9853V33.659L78.0664 33.5032C78.3644 18.6496 78.4396 17.8206 79.0073 16.8544C79.3026 16.2833 80.0381 15.3502 80.8945 14.8734C82.1695 14.2878 82.9411 14.1906 84.5427 14.2405C86.1516 14.3215 87.0067 14.5198 88.0323 15.1899C88.7537 15.6605 89.448 16.6612 89.7491 17.2191C90.2227 18.0917 90.3074 19.2916 90.3764 25.9455L90.4548 33.659L95.6297 33.5032C95.6297 18.1416 95.5669 17.1349 95.0244 15.7387C94.6919 14.8817 93.7573 13.4792 92.9481 12.6221C92.0261 11.6466 90.7308 10.7179 89.4763 10.1382C87.9238 9.41829 86.9139 9.18455 84.9663 9.08794C83.2068 9.00067 81.9429 9.12222 80.7323 9.48686C79.782 9.77358 78.8317 10.0728 78.6153 10.1476C78.3142 10.2535 78.2232 9.37155 78.2232 6.38898V2.49326Z" fill="#F1F5F2"/>
<path fill-rule="evenodd" clip-rule="evenodd" d="M52.4411 31.1709C52.3533 31.1709 52.1575 33.2663 52.0352 39.4216L49.6139 40.6713C48.281 41.357 47.1143 41.8494 47.0171 41.7621C46.9199 41.6749 46.9441 27.0437 46.9504 21.0443C46.9504 14.3155 52.4896 8.86076 59.3226 8.86076C66.1555 8.86076 71.6947 14.3155 71.6947 21.0443C71.6947 27.7731 66.1555 33.2278 59.3226 33.2278C56.7757 33.2278 54.4086 32.47 52.4411 31.1709ZM59.3226 28.1646C63.177 28.1646 66.3017 25.0476 66.3017 21.2025C66.3017 17.3575 63.177 14.2405 59.3226 14.2405C55.4681 14.2405 52.3434 17.3575 52.3434 21.2025C52.3434 25.0476 55.4681 28.1646 59.3226 28.1646Z" fill="#F1F5F2"/>
<path fill-rule="evenodd" clip-rule="evenodd" d="M52.4411 31.1709C52.3533 31.1709 52.1575 33.2663 52.0352 39.4216L49.6139 40.6713C48.281 41.357 47.1143 41.8494 47.0171 41.7621C46.9199 41.6749 46.9441 27.0437 46.9504 21.0443C46.9504 14.3155 52.4896 8.86076 59.3226 8.86076C66.1555 8.86076 71.6947 14.3155 71.6947 21.0443C71.6947 27.7731 66.1555 33.2278 59.3226 33.2278C56.7757 33.2278 54.4086 32.47 52.4411 31.1709ZM59.3226 28.1646C63.177 28.1646 66.3017 25.0476 66.3017 21.2025C66.3017 17.3575 63.177 14.2405 59.3226 14.2405C55.4681 14.2405 52.3434 17.3575 52.3434 21.2025C52.3434 25.0476 55.4681 28.1646 59.3226 28.1646Z" fill="#F1F5F2"/>
<path fill-rule="evenodd" clip-rule="evenodd" d="M52.5078 31.1709C52.4199 31.1709 52.2242 33.2663 52.1018 39.4216L49.6806 40.6713C48.3477 41.357 47.181 41.8494 47.0838 41.7621C46.9865 41.6749 47.0108 27.0437 47.0171 21.0443C47.0171 14.3155 52.5563 8.86076 59.3892 8.86076C66.2222 8.86076 71.7614 14.3155 71.7614 21.0443C71.7614 27.7731 66.2222 33.2278 59.3892 33.2278C56.8424 33.2278 54.4753 32.47 52.5078 31.1709ZM59.3892 28.1646C63.2437 28.1646 66.3684 25.0476 66.3684 21.2025C66.3684 17.3575 63.2437 14.2405 59.3892 14.2405C55.5348 14.2405 52.4101 17.3575 52.4101 21.2025C52.4101 25.0476 55.5348 28.1646 59.3892 28.1646Z" fill="#F1F5F2"/>
<path fill-rule="evenodd" clip-rule="evenodd" d="M52.5078 31.1709C52.4199 31.1709 52.2242 33.2663 52.1018 39.4216L49.6806 40.6713C48.3477 41.357 47.181 41.8494 47.0838 41.7621C46.9865 41.6749 47.0108 27.0437 47.0171 21.0443C47.0171 14.3155 52.5563 8.86076 59.3892 8.86076C66.2222 8.86076 71.7614 14.3155 71.7614 21.0443C71.7614 27.7731 66.2222 33.2278 59.3892 33.2278C56.8424 33.2278 54.4753 32.47 52.5078 31.1709ZM59.3892 28.1646C63.2437 28.1646 66.3684 25.0476 66.3684 21.2025C66.3684 17.3575 63.2437 14.2405 59.3892 14.2405C55.5348 14.2405 52.4101 17.3575 52.4101 21.2025C52.4101 25.0476 55.5348 28.1646 59.3892 28.1646Z" fill="#F1F5F2"/>
<path fill-rule="evenodd" clip-rule="evenodd" d="M109.287 33.3615C102.454 33.3615 96.9149 27.9068 96.9149 21.178C96.9149 14.4492 102.454 8.99444 109.287 8.99444C116.12 8.99444 121.659 14.4492 121.659 21.178C121.662 23.8364 121.73 31.3203 121.363 33.639L118.854 33.5455C116.37 33.452 116.345 33.4426 116.266 32.5949C116.222 32.1243 116 31.6343 115.871 31.6841C113.567 33.0867 112.116 33.4621 109.287 33.3615ZM109.287 28.14C113.142 28.14 116.266 25.023 116.266 21.178C116.266 17.333 113.142 14.216 109.287 14.216C105.433 14.216 102.308 17.333 102.308 21.178C102.308 25.023 105.433 28.14 109.287 28.14Z" fill="#F1F5F2"/>
</g>
<path id="Path 1" d="M15.8032 4.20616C14.5498 6.57696 12.085 11.3059 10.3245 14.715C8.5681 18.1241 6.59266 21.8255 6.9504 22.0816C7.30814 22.3378 11.2826 18.8682 15.1784 15.6262C19.2697 12.4231 22.5702 9.65158 22.7421 9.27326C22.9991 8.93772 23.3554 8.44848 23.3554 7.58255C23.3554 6.42238 22.5856 4.45837 21.2735 2.52475C20.2675 1.0409 19.3691 0 18.807 0C18.2448 0 17.3123 1.34775 15.8032 4.20616ZM22.1957 14.6351C20.2591 17.0101 18.9603 18.3928 18.9092 19.6737C18.8581 20.9545 19.7031 21.6143 19.7783 21.689C20.4142 22.3212 23.3605 23.4724 28.2104 25.3093C32.2472 26.8436 35.8443 28.2252 36.3641 28.3177C37.0809 28.4438 37.3073 28.2798 37.3073 27.6409C37.3073 27.1785 34.7263 23.198 31.7878 18.7002C28.8494 14.2066 26.7795 10.4516 26.1319 10.4274C25.4843 10.4032 24.0946 12.3106 22.1957 14.6351ZM5.5919 25.9301C5.09307 26.115 4.414 26.6236 4.08703 27.0608C3.75588 27.4938 2.70373 29.3181 1.7438 31.1088C0.783872 32.8995 0 34.6482 0 34.9971C0 35.346 0.128052 35.6837 0.523979 35.8504C0.919905 36.0171 5.10146 35.2241 10.0604 34.1858C15.0193 33.1475 21.3364 31.8024 24.103 31.1971C26.8696 30.5918 30.3557 29.6996 30.8168 29.5105C30.919 29.4686 31.4301 29.2031 30.8168 29.0494C30.4689 28.9317 24.7444 28.2126 18.8632 27.2626C12.9863 26.3126 7.7968 25.5475 7.3357 25.5644C6.8746 25.5812 6.09073 25.7451 5.5919 25.9301Z" fill="#F1F5F2"/>
</g>
</svg>
