<svg width="16" height="16" viewBox="0 0 19 19" fill="none" xmlns="http://www.w3.org/2000/svg">
<g id="cart">
<g id="carrinho">
<mask id="path-1-inside-1_170_1316" fill="white">
<path d="M8.17646 17.3358H15.123C15.1882 16.613 15.7574 16.0356 16.4765 15.9578C16.4402 15.952 16.4029 15.9489 16.365 15.9489H6.65896C7.45392 15.9499 8.10645 16.5588 8.17646 17.3358Z"/>
<path d="M6.65533 15.9489C5.87518 15.9498 5.23221 16.5364 5.14235 17.2925C5.13526 17.3522 5.13161 17.4129 5.13161 17.4745C5.13161 18.317 5.81462 19 6.65714 19C7.49967 19 8.18268 18.317 8.18268 17.4745C8.18268 17.4277 8.18058 17.3815 8.17646 17.3358C8.10645 16.5588 7.45392 15.9499 6.65896 15.9489H6.65714H6.65533Z"/>
<path fill-rule="evenodd" clip-rule="evenodd" d="M0.980535 0.0623238C0.631894 -0.0961494 0.220797 0.058012 0.0623238 0.406653C-0.0961494 0.755294 0.058012 1.16639 0.406653 1.32486L3.05124 2.52695V14.9508C3.02319 15.3522 3.1251 15.9025 3.49814 16.384C3.84745 16.8349 4.38978 17.1686 5.14235 17.2925C5.23221 16.5364 5.87518 15.9498 6.65533 15.9489H5.57364C4.97689 15.9014 4.71546 15.6908 4.59446 15.5347C4.45393 15.3533 4.42574 15.1454 4.43524 15.0409L4.43809 15.0096V13.4876C4.97029 13.7663 5.56948 13.8687 6.10231 13.8687H16.8194L16.8576 13.8644C17.7554 13.7647 18.3245 13.2402 18.6366 12.5919C18.9288 11.9852 19 11.2729 19 10.6789V6.51836C19 6.17081 18.7427 5.87695 18.3982 5.83102L4.43809 3.96967V2.08044C4.43809 1.80852 4.27915 1.56169 4.0316 1.44917L0.980535 0.0623238ZM4.43809 11.095C4.43809 11.6568 4.64954 11.9646 4.91374 12.1557C5.21028 12.3701 5.64175 12.4818 6.10231 12.4818H16.7384C17.0675 12.4359 17.253 12.2688 17.3871 11.9903C17.5457 11.6609 17.6132 11.1944 17.6132 10.6789V7.12547L4.43809 5.36879V11.095Z"/>
<path d="M18.168 17.4745C18.168 18.317 17.485 19 16.6425 19C15.7999 19 15.1169 18.317 15.1169 17.4745C15.1169 16.6319 15.7999 15.9489 16.6425 15.9489C17.485 15.9489 18.168 16.6319 18.168 17.4745Z"/>
</mask>
<path d="M6.63187 17.4695C6.63217 17.467 6.63271 17.4654 6.63368 17.4636C6.63496 17.4611 6.63722 17.458 6.64049 17.4551C6.64368 17.4522 6.64644 17.4508 6.64807 17.4502C6.6489 17.4498 6.65112 17.4489 6.65708 17.4489L6.65358 14.4489C5.10522 14.4507 3.83123 15.6143 3.65283 17.1155L6.63187 17.4695ZM6.65722 17.4489C6.66325 17.4489 6.66546 17.4499 6.66632 17.4502C6.66802 17.4509 6.6709 17.4524 6.67415 17.4554C6.67747 17.4585 6.67964 17.4616 6.6808 17.4639C6.68164 17.4656 6.68223 17.4672 6.68252 17.4704L9.67041 17.2012C9.53141 15.6587 8.23818 14.4508 6.66071 14.4489L6.65722 17.4489ZM6.63161 17.4745C6.63161 17.4682 6.63259 17.466 6.633 17.465C6.63383 17.463 6.63569 17.4598 6.63909 17.4564C6.64249 17.453 6.6457 17.4512 6.64766 17.4503C6.64863 17.4499 6.65085 17.4489 6.65714 17.4489V14.4489C4.98619 14.4489 3.63161 15.8035 3.63161 17.4745H6.63161ZM6.65714 17.4489C6.66344 17.4489 6.66565 17.4499 6.66662 17.4503C6.66859 17.4512 6.6718 17.453 6.6752 17.4564C6.6786 17.4598 6.68046 17.463 6.68129 17.465C6.6817 17.466 6.68268 17.4682 6.68268 17.4745H9.68268C9.68268 15.8035 8.3281 14.4489 6.65714 14.4489V17.4489ZM0.980535 0.0623238L-0.260874 2.79342L-0.260873 2.79342L0.980535 0.0623238ZM0.0623238 0.406653L2.79342 1.64806L2.79342 1.64806L0.0623238 0.406653ZM4.0316 1.44917L5.27301 -1.28193L5.27301 -1.28193L4.0316 1.44917ZM4.43809 3.96967H1.43809V6.59622L4.0416 6.94335L4.43809 3.96967ZM18.3982 5.83102L18.0017 8.8047L18.0017 8.8047L18.3982 5.83102ZM18.6366 12.5919L15.9336 11.2905L15.9336 11.2905L18.6366 12.5919ZM16.8576 13.8644L16.5263 10.8828L16.5263 10.8828L16.8576 13.8644ZM16.8194 13.8687V16.8687H16.9856L17.1508 16.8503L16.8194 13.8687ZM4.43809 13.4876L5.82999 10.83L1.43809 8.52977V13.4876H4.43809ZM4.43809 15.0096L7.42577 15.2812L7.43809 15.1457V15.0096H4.43809ZM4.43524 15.0409L1.44756 14.7693L1.44756 14.7693L4.43524 15.0409ZM4.59446 15.5347L2.22292 17.372L2.22293 17.372L4.59446 15.5347ZM5.57364 15.9489L5.33558 18.9395L5.45442 18.9489H5.57364V15.9489ZM5.14235 17.2925L8.12139 17.6465L8.45985 14.7983L5.62968 14.3324L5.14235 17.2925ZM3.49814 16.384L5.86968 14.5467L5.86968 14.5467L3.49814 16.384ZM3.05124 14.9508L6.04394 15.16L6.05124 15.0555V14.9508H3.05124ZM3.05124 2.52695H6.05124V0.595209L4.29265 -0.204151L3.05124 2.52695ZM0.406653 1.32486L1.64806 -1.40623L1.64806 -1.40624L0.406653 1.32486ZM8.17646 17.3358V14.3358H4.89395L5.18857 17.605L8.17646 17.3358ZM15.123 17.3358V20.3358H17.8649L18.1109 17.605L15.123 17.3358ZM16.4765 15.9578L16.799 18.9405L16.9551 12.9963L16.4765 15.9578ZM4.91374 12.1557L6.67158 9.72461L6.67157 9.72461L4.91374 12.1557ZM16.7384 12.4818V15.4818H16.9465L17.1526 15.4531L16.7384 12.4818ZM17.3871 11.9903L20.0901 13.2918L20.0901 13.2917L17.3871 11.9903ZM17.6132 7.12547H20.6132V4.49892L18.0096 4.15178L17.6132 7.12547ZM4.43809 5.36879L4.83458 2.39511L1.43809 1.94224V5.36879H4.43809ZM15.168 17.4745C15.168 16.6601 15.8281 16 16.6425 16V22C19.1418 22 21.168 19.9739 21.168 17.4745H15.168ZM16.6425 16C17.4568 16 18.1169 16.6601 18.1169 17.4745H12.1169C12.1169 19.9739 14.1431 22 16.6425 22V16ZM18.1169 17.4745C18.1169 18.2888 17.4568 18.9489 16.6425 18.9489V12.9489C14.1431 12.9489 12.1169 14.9751 12.1169 17.4745H18.1169ZM16.6425 18.9489C15.8281 18.9489 15.168 18.2888 15.168 17.4745H21.168C21.168 14.9751 19.1418 12.9489 16.6425 12.9489V18.9489ZM2.22194 -2.66878C0.364959 -3.51286 -1.82469 -2.69174 -2.66878 -0.834755L2.79342 1.64806C2.26629 2.80777 0.89883 3.32056 -0.260874 2.79342L2.22194 -2.66878ZM5.27301 -1.28193L2.22194 -2.66878L-0.260873 2.79342L2.79019 4.18027L5.27301 -1.28193ZM7.43809 2.08044C7.43809 0.63209 6.59154 -0.682594 5.27301 -1.28193L2.79019 4.18027C1.96676 3.80598 1.43809 2.98495 1.43809 2.08044H7.43809ZM7.43809 3.96967V2.08044H1.43809V3.96967H7.43809ZM18.7947 2.85734L4.83458 0.995984L4.0416 6.94335L18.0017 8.8047L18.7947 2.85734ZM22 6.51836C22 4.66722 20.6296 3.10199 18.7947 2.85733L18.0017 8.8047C16.8558 8.65191 16 7.67441 16 6.51836H22ZM22 10.6789V6.51836H16V10.6789H22ZM21.3397 13.8934C21.9204 12.6873 22 11.4435 22 10.6789H16C16 10.8624 15.9885 11.0178 15.9681 11.1407C15.9473 11.2668 15.9254 11.3076 15.9336 11.2905L21.3397 13.8934ZM17.1889 16.8461C19.2757 16.6142 20.6547 15.3161 21.3397 13.8934L15.9336 11.2905C15.9484 11.2598 16.0062 11.1566 16.1436 11.0514C16.2954 10.9353 16.4476 10.8915 16.5263 10.8828L17.1889 16.8461ZM17.1508 16.8503L17.189 16.8461L16.5263 10.8828L16.4881 10.887L17.1508 16.8503ZM3.04618 16.1452C4.1133 16.7041 5.21958 16.8687 6.10231 16.8687V10.8687C6.02384 10.8687 5.95248 10.8608 5.89654 10.8488C5.84076 10.8369 5.82151 10.8256 5.82999 10.83L3.04618 16.1452ZM7.42292 15.3125L7.42577 15.2812L1.45041 14.738L1.44756 14.7693L7.42292 15.3125ZM6.966 13.6973C7.17579 13.9681 7.29335 14.2466 7.35694 14.4847C7.41469 14.7008 7.45337 14.9776 7.42292 15.3125L1.44756 14.7693C1.37866 15.5272 1.55846 16.5143 2.22292 17.372L6.966 13.6973ZM5.8117 12.9584C5.82794 12.9597 6.00386 12.9766 6.2552 13.1032C6.52266 13.238 6.76933 13.4435 6.966 13.6973L2.22293 17.372C2.93606 18.2925 4.02735 18.8353 5.33558 18.9395L5.8117 12.9584ZM6.65533 12.9489H5.57364V18.9489H6.65533V12.9489ZM1.1266 18.2214C1.99289 19.3395 3.24544 20.0206 4.65501 20.2527L5.62968 14.3324C5.56743 14.3221 5.58619 14.3157 5.65098 14.3525C5.71836 14.3908 5.79895 14.4554 5.86968 14.5467L1.1266 18.2214ZM0.0585364 14.7417C-0.0132701 15.7692 0.239317 17.0761 1.1266 18.2214L5.86968 14.5467C5.94342 14.6419 5.98974 14.7437 6.01565 14.8374C6.03938 14.9232 6.05325 15.0267 6.04394 15.16L0.0585364 14.7417ZM-0.834756 4.05596L1.80983 5.25805L4.29265 -0.204151L1.64806 -1.40623L-0.834756 4.05596ZM-2.66878 -0.834756C-3.51286 1.02223 -2.69174 3.21188 -0.834755 4.05596L1.64806 -1.40624C2.80777 -0.879097 3.32056 0.488359 2.79342 1.64806L-2.66878 -0.834756ZM8.17646 20.3358H15.123V14.3358H8.17646V20.3358ZM18.1109 17.605C18.0475 18.3089 17.4989 18.8648 16.799 18.9405L16.1539 12.9752C14.0159 13.2064 12.3288 14.9171 12.1352 17.0665L18.1109 17.605ZM16.9551 12.9963C16.7612 12.9649 16.5639 12.9489 16.365 12.9489V18.9489C16.242 18.9489 16.1192 18.939 15.9978 18.9194L16.9551 12.9963ZM16.365 12.9489H6.65896V18.9489H16.365V12.9489ZM6.67157 9.72461C6.8657 9.86497 7.09467 10.0932 7.25787 10.4182C7.41683 10.7348 7.43809 10.9936 7.43809 11.095H1.43809C1.43809 12.5877 2.08608 13.8132 3.1559 14.5867L6.67157 9.72461ZM6.10231 9.48181C6.10828 9.48181 6.15081 9.48185 6.22931 9.50307C6.30209 9.52274 6.46852 9.57778 6.67158 9.72461L3.1559 14.5867C4.11829 15.2826 5.23224 15.4818 6.10231 15.4818V9.48181ZM16.7384 9.48181H6.10231V15.4818H16.7384V9.48181ZM14.6841 10.6888C14.7473 10.5576 14.9187 10.2515 15.2769 9.96869C15.6557 9.6696 16.0492 9.54888 16.3242 9.51055L17.1526 15.4531C17.7567 15.3689 18.4075 15.1416 18.9949 14.6779C19.5616 14.2304 19.8928 13.7015 20.0901 13.2918L14.6841 10.6888ZM14.6132 10.6789C14.6132 10.7431 14.611 10.7961 14.608 10.838C14.6049 10.8803 14.6013 10.9057 14.5997 10.9157C14.5979 10.9264 14.5995 10.9125 14.6094 10.8786C14.6191 10.8455 14.6409 10.7785 14.6841 10.6889L20.0901 13.2917C20.5379 12.3618 20.6132 11.3628 20.6132 10.6789H14.6132ZM14.6132 7.12547V10.6789H20.6132V7.12547H14.6132ZM4.0416 8.34247L17.2167 10.0991L18.0096 4.15178L4.83458 2.39511L4.0416 8.34247ZM7.43809 11.095V5.36879H1.43809V11.095H7.43809ZM5.18268 17.4745C5.18268 16.6601 5.84282 16 6.65714 16V22C9.15652 22 11.1827 19.9739 11.1827 17.4745H5.18268ZM6.65714 16C7.47147 16 8.13161 16.6601 8.13161 17.4745H2.13161C2.13161 19.9739 4.15776 22 6.65714 22V16ZM6.10231 16.8687H16.8194V10.8687H6.10231V16.8687ZM7.43809 15.0096V13.4876H1.43809V15.0096H7.43809ZM0.0512374 2.52695V14.9508H6.05124V2.52695H0.0512374ZM2.16331 16.9385C2.1423 17.1153 2.13161 17.2943 2.13161 17.4745H8.13161C8.13161 17.5316 8.12822 17.589 8.12139 17.6465L2.16331 16.9385ZM11.1827 17.4745C11.1827 17.3378 11.1765 17.2017 11.1644 17.0665L5.18857 17.605C5.18462 17.5612 5.18268 17.5176 5.18268 17.4745H11.1827ZM6.65896 12.9489H6.65714V18.9489H6.65896V12.9489ZM6.65714 12.9489H6.65533V18.9489H6.65714V12.9489Z" fill="#F7F7F7" mask="url(#path-1-inside-1_170_1316)"/>
</g>
</g>
</svg>
